<svg xmlns="http://www.w3.org/2000/svg" width="24" height="24"><path fill="#666" fill-rule="evenodd" d="M15.005 21.41h2.98l.01-2.189 2.34-2.235c.314-.256.522-.559.634-.907.04-.121.065-.246.08-.372l-.046-6.78a.489.489 0 1 0-.976-.003l-.022 3.31a1.329 1.329 0 0 1 .369 1.003 1.332 1.332 0 0 1-.446.927l-2.323 2.014-.655-.756 2.318-2.009a.344.344 0 0 0-.465-.508l-2.924 2.553c-.433.388-.645.689-.75 1.069-.052.18-.085.82-.109 1.286l-.01.196c-.026.455-.012 2.458-.005 3.401zm3.977 1h-4.967l-.005-.495c0-.136-.033-3.331.001-3.959l.01-.194c.04-.759.07-1.239.144-1.505.161-.574.466-1.022 1.051-1.548l2.925-2.554c.248-.221.556-.332.867-.338l.02-2.896a1.488 1.488 0 0 1 2.975.003l.042 6.833a2.841 2.841 0 0 1-1.052 1.98l-2 1.913-.01 2.76zm-12.97-1H8.99c.008-.943.021-2.945-.003-3.4l-.01-.199c-.026-.466-.059-1.106-.109-1.284-.107-.38-.319-.681-.756-1.074l-2.915-2.544a.396.396 0 0 0-.252-.091.345.345 0 0 0-.211.6l2.311 2.004-.654.756-2.317-2.009a1.342 1.342 0 0 1-.113-1.903l.03-.032-.023-3.306a.49.49 0 0 0-.487-.492.489.489 0 0 0-.488.488l-.043 6.839c.011.066.038.193.078.318.11.345.32.649.602.877l2.371 2.263.01 2.189zm3.97 1H5.014l-.012-2.76-2.032-1.941a2.796 2.796 0 0 1-.896-1.323c-.06-.19-.1-.381-.122-.571l.04-6.894a1.488 1.488 0 0 1 2.975.003l.021 2.894c.31.006.621.118.87.341l2.916 2.545c.59.53.894.978 1.056 1.553.075.266.104.746.144 1.502l.01.197c.035.628.002 3.823.001 3.959l-.005.495zM12 1.59A2.492 2.492 0 1 0 12 6.573a2.492 2.492 0 0 0 0-4.983m0 1c.822 0 1.492.67 1.492 1.492 0 .823-.67 1.492-1.492 1.492a1.493 1.493 0 0 1-1.492-1.492c0-.822.67-1.492 1.493-1.492m-3.496 9.015h-1A4.5 4.5 0 0 1 12 7.112a4.498 4.498 0 0 1 4.494 4.493h-1A3.497 3.497 0 0 0 12 8.112a3.499 3.499 0 0 0-3.494 3.493"/></svg>