<svg xmlns="http://www.w3.org/2000/svg" width="24" height="24"><g fill="none" fill-rule="evenodd"><path fill="#666" d="M16.787 16.007a.5.5 0 1 1-1.002-.002.5.5 0 0 1 1.002.002"/><path fill="#666" d="M14.233 17c.31-1.149 1.121-2 2.054-2 .932 0 1.744.851 2.053 2h-4.107Zm2.054 4c-1.189 0-2.193-1.374-2.193-3h4.386c0 1.626-1.004 3-2.193 3Zm.551-6.931c-.492-.42-.826-1.123-.83-1.755-.005-.667.294-1.104.603-1.497.135-.17.39-.4.685-.666 1.068-.964 2.684-2.161 2.684-4.379 0-1.95-1.519-3.607-3.459-3.772l-.035.408v.598a2.798 2.798 0 0 1 2.494 2.766c0 1.774-1.36 2.741-2.354 3.637-.33.297-.614.553-.8.79-.289.367-.827 1.05-.819 2.123.005.614.227 1.244.575 1.783-1.423.404-2.488 1.991-2.488 3.895 0 2.209 1.43 4 3.193 4 1.763 0 3.193-1.791 3.193-4 0-1.973-1.143-3.602-2.642-3.931Z"/><path d="M14.233 17c.31-1.149 1.121-2 2.054-2 .932 0 1.744.851 2.053 2h-4.107zm2.054 4c-1.189 0-2.193-1.374-2.193-3h4.386c0 1.626-1.004 3-2.193 3z"/><path d="M16.838 14.069c-.492-.42-.826-1.123-.83-1.755-.005-.667.294-1.104.603-1.497.135-.17.39-.4.685-.666 1.068-.964 2.684-2.161 2.684-4.379 0-1.95-1.519-3.607-3.459-3.772l-.035.408v.598a2.798 2.798 0 0 1 2.494 2.766c0 1.774-1.36 2.741-2.354 3.637-.33.297-.614.553-.8.79-.289.367-.827 1.05-.819 2.123.005.614.227 1.244.575 1.783-1.423.404-2.488 1.991-2.488 3.895 0 2.209 1.43 4 3.193 4 1.763 0 3.193-1.791 3.193-4 0-1.973-1.143-3.602-2.642-3.931Z"/><path fill="#666" d="M7.93 21.01a.887.887 0 0 1-.64-.26 1.039 1.039 0 0 1-.29-.74V8.81l-.498-.29a3.19 3.19 0 0 1-.63-.485A2.95 2.95 0 0 1 5 5.94c0-.87.38-1.67 1-2.224V6.01h4V3.717a2.952 2.952 0 0 1 1 2.223 2.964 2.964 0 0 1-1.502 2.58L9 8.81v11.2c0 .533-.5 1-1.07 1ZM10 9.384a3.98 3.98 0 0 0 2-3.444c0-1.1-.446-2.09-1.165-2.81A4.025 4.025 0 0 0 9 2.08v2.93H7V2.08c-1.72.447-3 1.997-3 3.86 0 1.097.448 2.084 1.166 2.802.248.248.53.464.834.643V20.01c0 .569.22 1.084.584 1.448.343.342.812.552 1.347.552 1.104 0 2.07-.896 2.07-2V9.384Z"/></g></svg>