<svg xmlns="http://www.w3.org/2000/svg" width="24" height="24"><path fill-rule="evenodd" d="M16.9 16.071a1 1 0 0 1-1.414 1.414l-3.537-3.535-.707.707 3.536 3.535c.39.39.39 1.025 0 1.415a1.004 1.004 0 0 1-1.415 0L9.83 16.071l-.708.707 3.535 3.536a1 1 0 0 1-1.414 1.414l-8.485-8.485a6.007 6.007 0 0 1 0-8.486 6.007 6.007 0 0 1 8.485 0l-3.889 3.89a1.5 1.5 0 0 0 .236 2.313c1.375 1.155 3.42 1.101 4.714-.192L14.072 9l4.95 4.95a1 1 0 0 1-1.415 1.414l-3.535-3.536-.707.707 3.535 3.536Zm4.242-11.314a6.008 6.008 0 0 1 0 8.486l-.003.003-.9.9a1.972 1.972 0 0 0-.512-.903l-4.299-4.3A3.451 3.451 0 0 0 17.96 7.94c.121-.12.221-.253.322-.386l-.715-.713a2.476 2.476 0 0 1-.314.392 2.504 2.504 0 0 1-3.146.318l-.035.036-.672.671-.037.036-1.766 1.768a2.478 2.478 0 0 1-3.364.133l-.046-.037-.047-.032a.502.502 0 0 1-.079-.772L8.414 9l.353-.354.707-.707 3.181-3.182a6.008 6.008 0 0 1 8.486 0Zm.707-.707a7 7 0 0 0-9.9 0 7 7 0 1 0-9.899 9.9l8.486 8.485a2 2 0 0 0 2.828 0c.425-.425.61-.993.572-1.548a1.992 1.992 0 0 0 1.55-.573c.425-.425.61-.993.572-1.549a1.984 1.984 0 0 0 1.549-.573c.425-.425.61-.992.573-1.548a1.987 1.987 0 0 0 1.54-.567h.002l2.127-2.127a7.002 7.002 0 0 0 0-9.9Z"/></svg>