<svg xmlns="http://www.w3.org/2000/svg" width="24" height="24"><g fill-rule="evenodd"><path d="M2.612 12.5h14.683v-1H2.612z"/><path d="M11.464 22h1.071V2h-1.071zM14.995 12.5h6.398v-1h-6.398z"/><path d="M12 2C6.477 2 2 6.478 2 12s4.477 10 10 10c5.522 0 10-4.478 10-10S17.522 2 12 2m0 1c4.962 0 9 4.037 9 9s-4.038 9-9 9c-4.963 0-9-4.037-9-9s4.037-9 9-9"/><path d="M5.96 12c0 5.522 2.697 10 6.022 10s6.02-4.478 6.02-10-2.695-10-6.02-10C8.657 2 5.96 6.478 5.96 12Zm6.022-9c2.722 0 5.02 4.121 5.02 9s-2.298 9-5.02 9c-2.723 0-5.021-4.121-5.021-9s2.298-9 5.02-9"/><path d="M21.982 12c0-3.326-4.478-6.022-10-6.022s-10 2.697-10 6.022 4.478 6.02 10 6.02 10-2.696 10-6.02m-1 0c0 2.721-4.121 5.02-9 5.02s-9-2.298-9-5.02c0-2.723 4.121-5.022 9-5.022s9 2.3 9 5.021"/></g></svg>