<svg xmlns="http://www.w3.org/2000/svg" width="24" height="24"><g fill="#666" fill-rule="evenodd"><path d="M6.495 12.027a2.492 2.492 0 1 0 0 4.984 2.492 2.492 0 0 0 0-4.984m0 1c.822 0 1.492.67 1.492 1.492s-.67 1.492-1.492 1.492c-.823 0-1.492-.67-1.492-1.492 0-.823.67-1.492 1.492-1.492M3 22.043H2a4.5 4.5 0 0 1 4.494-4.493 4.498 4.498 0 0 1 4.494 4.493h-1a3.497 3.497 0 0 0-3.494-3.493A3.499 3.499 0 0 0 3 22.043m14.495-10.016a2.492 2.492 0 1 0 0 4.984 2.492 2.492 0 0 0 0-4.984m0 1c.822 0 1.492.67 1.492 1.492s-.67 1.492-1.492 1.492c-.823 0-1.492-.67-1.492-1.492 0-.823.67-1.492 1.492-1.492M14 22.043h-1a4.5 4.5 0 0 1 4.494-4.493 4.498 4.498 0 0 1 4.494 4.493h-1a3.497 3.497 0 0 0-3.494-3.493A3.499 3.499 0 0 0 14 22.043"/><path fill-rule="nonzero" d="M10.616 10.67C7.685 10.237 5.5 8.453 5.5 6.273c0-2.538 2.943-4.5 6.5-4.5 3.558 0 6.5 1.962 6.5 4.5 0 2.036-1.91 3.74-4.582 4.303l-1.67 4.208-1.632-4.112Zm2.576-.977.275-.049c2.39-.426 4.033-1.833 4.033-3.372 0-1.88-2.43-3.5-5.5-3.5s-5.5 1.62-5.5 3.5c0 1.654 1.898 3.142 4.53 3.445l.297.034.92 2.32.945-2.378Z"/></g></svg>