<svg xmlns="http://www.w3.org/2000/svg" width="24" height="24"><g fill="#084c8e" fill-rule="evenodd"><path d="M11.992 1 2 7.097v14.968h20V7.095L11.992 1ZM3 7.577l8.992-5.296L21 7.577v13.489H3V7.576Z"/><path d="M9.273 8.96c-.599 0-1.227.307-1.68.823-.514.586-.739 1.351-.634 2.154.257 1.961 3.522 5.016 5.051 6.051.995-.647 4.804-3.696 5.113-6.05.105-.804-.12-1.569-.634-2.155-.453-.516-1.08-.824-1.68-.824-1.536 0-2.423 1.335-2.432 1.35l-.374.574-.379-.572c-.01-.014-.91-1.352-2.35-1.352Zm2.725 10.097-.238-.154c-.218-.14-5.312-3.942-5.694-6.849-.139-1.064.163-2.08.851-2.865.621-.708 1.502-1.13 2.356-1.13 1.305 0 2.241.768 2.726 1.291.487-.524 1.437-1.29 2.81-1.29.854 0 1.735.421 2.356 1.13.688.783.99 1.8.85 2.864-.41 3.128-5.558 6.723-5.776 6.856l-.24.147Z"/></g></svg>