<svg xmlns="http://www.w3.org/2000/svg" xmlns:xlink="http://www.w3.org/1999/xlink" width="24" height="24"><defs><path id="a" d="M.376.096h4.042v4.04H.376z"/></defs><g fill="none" fill-rule="evenodd"><path fill="#084c8e" d="M11.93 11.733a5.969 5.969 0 0 1-2.355 1.98L2.587 8.818c.091-.997.431-2 1.054-2.89 1.767-2.523 5.063-3.275 7.35-1.675 2.285 1.6 2.706 4.956.94 7.48m-6.234 2.24-.645-.227-.393.56-2.455 3.507-.95-.666 2.455-3.507.392-.56-.434-.528c-.619-.753-.966-1.669-1.07-2.629l5.937 4.158c-.94.23-1.918.216-2.837-.108m5.81-10.457C8.81 1.63 4.957 2.478 2.903 5.413c-1.736 2.478-1.629 5.647.068 7.712L0 17.37l2.425 1.698 2.972-4.244c2.52.89 5.535-.095 7.27-2.573 2.055-2.936 1.535-6.845-1.16-8.733"/><g transform="translate(4 .904)"><mask id="b" fill="#fff"><use xlink:href="#a"/></mask><path fill="#084c8e" d="M2.397.095A2.024 2.024 0 0 0 .376 2.116c0 1.114.907 2.02 2.021 2.02a2.024 2.024 0 0 0 2.021-2.02A2.024 2.024 0 0 0 2.397.096" mask="url(#b)"/></g><path fill="#084c8e" d="M21.051 19.03a9.966 9.966 0 0 0 .236-2.05c0-2.167-.744-4.25-2.09-5.93a8.514 8.514 0 0 1 2.908-.623 7.946 7.946 0 0 1-1.054 8.602m-1.449 1.346a7.938 7.938 0 0 1-3.504 1.432 9.413 9.413 0 0 0 .61-3.33 9.49 9.49 0 0 0-1.164-4.528 8.488 8.488 0 0 1 2.728-2.455 8.48 8.48 0 0 1 2.015 5.485c0 1.061-.263 2.34-.685 3.396m-4.625 1.526c-.02 0-.039.003-.059.003-3.639 0-6.712-2.445-7.677-5.778 1.835 1.713 4.285 2.768 6.66 2.768.606 0 1.205-.076 1.794-.189a8.413 8.413 0 0 1-.718 3.196m-.059-16.988c-.652 0-1.287.073-1.9.205.186.3.344.612.472.94a7.91 7.91 0 0 1 1.428-.145c.524 0 1.033.054 1.53.15a9.417 9.417 0 0 0-2.592 1.356c.056.394.077.797.058 1.203a8.434 8.434 0 0 1 4.334-1.973 8.04 8.04 0 0 1 3.31 2.813 9.433 9.433 0 0 0-6.856 3.948 8.514 8.514 0 0 1-2.57-.51 6.978 6.978 0 0 1-.787.753 9.481 9.481 0 0 0 3.311.754 8.446 8.446 0 0 1 1 3.288 8.52 8.52 0 0 1-1.756.2c-2.254 0-4.59-1.064-6.265-2.777A5.802 5.802 0 0 1 6 14.976c.531 4.463 4.314 7.928 8.92 7.928a8.995 8.995 0 0 0 8.994-8.995 8.995 8.995 0 0 0-8.995-8.996"/></g></svg>