<svg xmlns="http://www.w3.org/2000/svg" width="24" height="24"><path fill-rule="evenodd" d="M6.455 1a2.492 2.492 0 1 0 .001 4.984 2.492 2.492 0 0 0 0-4.984m0 1c.822 0 1.491.67 1.491 1.492 0 .823-.669 1.492-1.492 1.492a1.494 1.494 0 0 1-1.492-1.492C4.963 2.67 5.633 2 6.455 2m-3.494 9.015h-1a4.5 4.5 0 0 1 4.494-4.493 4.498 4.498 0 0 1 4.494 4.493h-1a3.497 3.497 0 0 0-3.494-3.493 3.499 3.499 0 0 0-3.494 3.493m14.547 1.024a2.491 2.491 0 1 0 0 4.984 2.492 2.492 0 0 0 0-4.984m0 1c.822 0 1.492.669 1.492 1.492 0 .822-.67 1.492-1.492 1.492-.823 0-1.492-.67-1.492-1.492 0-.823.669-1.492 1.492-1.492m-3.494 9.014h-1a4.5 4.5 0 0 1 4.494-4.493 4.498 4.498 0 0 1 4.494 4.493h-1a3.497 3.497 0 0 0-3.494-3.493 3.499 3.499 0 0 0-3.494 3.493M22.61 8.306l-1.16 1.341c-.752-3.814-3.701-6.774-7.41-7.624v1.022a8.8 8.8 0 0 1 6.379 6.535l-1.191-1.03.104 1.435 1.812 1.57 1.57-1.812-.104-1.437zM10.063 21.03c-3.323-.693-6-3.267-6.768-6.621l1.19 1.031-.103-1.436-1.812-1.57L1 14.247l.103 1.435 1.16-1.339a9.789 9.789 0 0 0 7.8 7.71V21.03z"/></svg>