<svg xmlns="http://www.w3.org/2000/svg" width="24" height="24"><path fill="#000" fill-rule="evenodd" d="M9.447 3c-.54 0-1.109.28-1.52.748a2.446 2.446 0 0 0-.576 1.96c.235 1.797 3.258 4.195 4.702 5.18 1.435-.93 4.432-3.238 4.687-5.18a2.444 2.444 0 0 0-.577-1.96c-.41-.469-.979-.748-1.519-.748-1.398 0-2.184 1.181-2.218 1.23l-.415.636-.422-.633C11.581 4.223 10.756 3 9.447 3zm2.591 9.073-.264-.17c-.206-.134-5.053-3.3-5.415-6.066-.134-1.02.156-1.996.817-2.748C7.773 2.407 8.623 2 9.447 2c1.204 0 2.08.68 2.56 1.177C12.49 2.68 13.38 2 14.644 2c.824 0 1.673.406 2.271 1.088.66.752.95 1.728.817 2.75-.39 2.973-5.22 5.946-5.427 6.071l-.267.164zm3.014 8.892h2.98l.01-2.189 2.339-2.235c.315-.256.523-.559.635-.907.039-.12.065-.246.079-.372l-.045-6.78a.489.489 0 1 0-.976-.003l-.022 3.31a1.329 1.329 0 0 1 .369 1.003 1.332 1.332 0 0 1-.446.927l-2.323 2.014-.655-.756 2.318-2.009a.344.344 0 0 0-.465-.508l-2.924 2.553c-.433.388-.645.69-.751 1.07-.051.18-.084.82-.108 1.285l-.011.196c-.025.455-.011 2.458-.004 3.401zm3.977 1h-4.967l-.005-.495c-.001-.136-.033-3.33 0-3.959l.01-.194c.04-.759.07-1.239.145-1.505.16-.574.466-1.022 1.05-1.548l2.926-2.554c.248-.22.556-.332.867-.338l.019-2.896a1.488 1.488 0 0 1 2.976.003l.042 6.833a2.841 2.841 0 0 1-1.052 1.98l-2 1.913-.011 2.76zm-12.971-1h2.979c.008-.943.02-2.945-.003-3.4l-.011-.199c-.025-.466-.058-1.106-.108-1.284-.107-.38-.32-.68-.756-1.074l-2.915-2.544a.396.396 0 0 0-.252-.09.345.345 0 0 0-.211.6l2.31 2.003-.653.756-2.317-2.009a1.342 1.342 0 0 1-.083-1.935l-.023-3.306a.49.49 0 0 0-.487-.492.489.489 0 0 0-.488.488l-.043 6.84c.01.065.038.192.078.317.11.345.319.65.602.877l2.37 2.263.01 2.19zm3.97 1H5.062l-.012-2.76-2.032-1.94a2.796 2.796 0 0 1-.896-1.324c-.06-.19-.1-.38-.122-.57l.04-6.895a1.488 1.488 0 0 1 2.975.003l.02 2.894c.31.006.622.118.87.341l2.917 2.545c.59.53.894.978 1.056 1.553.075.266.104.746.144 1.502l.01.197c.035.628.002 3.823 0 3.96l-.004.494z"/></svg>