<svg xmlns="http://www.w3.org/2000/svg" width="24" height="24"><g fill="#fff" fill-rule="evenodd"><path d="M11.885 3.026a1.002 1.002 0 1 0 0 2.005 1.002 1.002 0 0 0 0-2.004m0 3.003a2.005 2.005 0 0 1-2.002-2.002c0-1.103.898-2.001 2.002-2.001 1.104 0 2.002.897 2.002 2.002a2.005 2.005 0 0 1-2.002 2.002M20.777 20.281l-7.208-5.352.596-.802 7.208 5.351z"/><path d="M10.331 14.025h3V8.037h-3v5.988Zm11.675-6.988h-8.438v.001h-3.43v-.001h-8.14v1h7.333v5.987H4.872v6.012h1v-5.012h8.46V8.037h7.674v-1Z"/></g></svg>