<svg xmlns="http://www.w3.org/2000/svg" width="24" height="24"><path fill="#000" fill-rule="evenodd" d="M19.73 19.827a.883.883 0 0 1-.637.27c-.265 0-.524-.114-.729-.319L7.615 9.03l-.556.146a3.082 3.082 0 0 1-.788.103 2.944 2.944 0 0 1-2.099-.865 2.975 2.975 0 0 1-.865-2.279L4.93 7.757 7.757 4.93 6.135 3.307a2.952 2.952 0 0 1 2.279.865c.756.755 1.041 1.834.763 2.887l-.147.556 3.324 3.324.706.707h.001l6.717 6.718c.377.376.354 1.06-.049 1.463Zm-14.094-.049a.993.993 0 0 1-.707.293 1.002 1.002 0 0 1-.708-1.707l3.536-3.536 1.414 1.415-3.535 3.535ZM18 4.79l1.631-.815.395.395L19.21 6H18V4.79Zm-4.232 6.15L17.708 7h2.12l1.414-2.829-1.414-1.414L17 4.171v2.122l-3.939 3.94-2.918-2.919c.352-1.33.023-2.805-1.022-3.849a3.956 3.956 0 0 0-2.809-1.163c-.706 0-1.412.186-2.04.555L6.343 4.93 4.93 6.343l-2.072-2.07a3.99 3.99 0 0 0 .608 4.848 3.944 3.944 0 0 0 2.806 1.158 4.06 4.06 0 0 0 1.044-.136l2.917 2.917-1.414 1.415-1.06-1.06-4.244 4.242a2 2 0 0 0 2.83 2.828l4.241-4.242-1.06-1.06 1.414-1.416 6.718 6.718c.403.403.921.611 1.436.611.484 0 .965-.184 1.343-.562.781-.78.83-2.096.05-2.877l-6.718-6.718Z"/></svg>