<svg xmlns="http://www.w3.org/2000/svg" xmlns:xlink="http://www.w3.org/1999/xlink" width="24" height="24"><defs><path id="a" d="M.001.019h19.845V9H.001z"/></defs><g fill="none" fill-rule="evenodd"><path fill="#666" d="m12.896 1-6.01 4v6h12V5l-5.99-4Zm-5.01 4.48 5.01-3.2 4.99 3.2V10h-10V5.48Z"/><path fill="#666" d="M13.921 8h2V6h-2zM9.884 8h2V6h-2z"/><g transform="translate(2 12.958)"><mask id="b" fill="#fff"><use xlink:href="#a"/></mask><path fill="#666" d="m5.036 5.618 3.438 1.94a2.445 2.445 0 0 0 1.846.4l8.013-2.486a.722.722 0 0 0 .483-.9.723.723 0 0 0-.898-.48l-3.956 1.17-.003-.01c-.018.032-.035.065-.056.097a1.545 1.545 0 0 1-2.12.515L8.57 3.841l.533-.846 3.205 2.02a.543.543 0 0 0 .559-.932l-4.063-2.54c-.637-.388-1.093-.545-1.6-.524-.241.005-.982.188-1.575.334l-.244.06c-.57.14-3.082.92-4.141 1.251L2.38 6.411l2.655-.793ZM9.873 9h-.064a3.398 3.398 0 0 1-1.863-.593L4.915 6.698l-3.202.955L0 2.006l.473-.148C.633 1.808 4.394.626 5.147.442L5.39.383C6.262.168 6.856.026 7.183.02 7.912.014 8.517.2 9.328.69l4.065 2.542c.36.22.599.568.692.95l3.547-1.048a1.72 1.72 0 0 1 .995 3.294l-8.064 2.498a3.414 3.414 0 0 1-.69.074Z" mask="url(#b)"/></g></g></svg>