<svg xmlns="http://www.w3.org/2000/svg" xmlns:xlink="http://www.w3.org/1999/xlink" width="24" height="24"><defs><path id="a" d="M0 22h22V0H0z"/></defs><g fill="none" fill-rule="evenodd" transform="translate(1 1)"><path fill="#084c8e" d="M11 15a4 4 0 1 1 0-8 4 4 0 0 1 0 8m0-9a5 5 0 0 0-5 5 5 5 0 0 0 5 5 5 5 0 0 0 5-5 5 5 0 0 0-5-5"/><mask id="b" fill="#fff"><use xlink:href="#a"/></mask><path fill="#084c8e" d="M0 11.5h4v-1H0zM18 11.5h4v-1h-4zM10.5 4h1V0h-1zM10.5 22h1v-4h-1zM3.575 19.132l2.829-2.828-.708-.707-2.828 2.828zM19.132 3.575l-2.828 2.829-.707-.708 2.828-2.828zM6.404 5.696l-.708.708-2.828-2.829.707-.707zM19.132 18.425l-.707.707-2.828-2.828.707-.707z" mask="url(#b)"/></g></svg>