<svg xmlns="http://www.w3.org/2000/svg" width="24" height="24"><g fill="#666" fill-rule="evenodd"><path d="M9.955 20.597c0 .795-.67 1.442-1.493 1.442H5.456c-.824 0-1.493-.647-1.493-1.442V18.27h3.961v-6.76H3.963V9.147c0-.795.669-1.442 1.493-1.442h3.006c.823 0 1.493.647 1.493 1.442v11.451zM3.963 17.31h2.971v-4.837H3.963v4.837zM5.98 6.73h1.941V1.893H5.98V6.73zM8.951 1h-4v5.793c-1.132.226-1.984 1.195-1.984 2.353v2.365h-.005v6.76h.005v2.326C2.967 21.923 4.083 23 5.456 23h3.006c1.373 0 2.489-1.077 2.489-2.403V9.146c0-1.163-.861-2.136-2-2.355V1zm5.15 3.42.014 7.967 4.523-.009-.014-7.968-4.523.01zm-.485 8.992a.5.5 0 0 1-.5-.51L13.1 3.907a.52.52 0 0 1 .146-.362.488.488 0 0 1 .353-.15l5.523-.01h.001c.276 0 .499.228.5.511l.016 8.991a.506.506 0 0 1-.499.513l-5.523.011h-.001z"/><path d="m15.255 8.4 1.129 1.697 1.1-1.701-1.106-1.697z"/><path d="M22.106 4.242A.495.495 0 0 0 21.809 4l-5.293-1.58a.502.502 0 0 0-.622.337l-.462 1.546h1.044l.234-.782 2.617.782h.025v.006l1.692.506-1.601 5.364v3.115a.492.492 0 0 0 .19-.262l2.513-8.409a.505.505 0 0 0-.04-.38M22.1 18.5c0 .827-.673 1.5-1.5 1.5h-2v-3h2c.827 0 1.5.673 1.5 1.5ZM15.6 20c-.827 0-1.5-.673-1.5-1.5s.673-1.5 1.5-1.5h2v3h-2Zm-2.5-1.5c0 1.375 1.125 2.5 2.5 2.5h5c1.375 0 2.5-1.125 2.5-2.5S21.975 16 20.6 16h-5a2.507 2.507 0 0 0-2.5 2.5Z"/><path d="M9.955 20.597c0 .795-.67 1.442-1.493 1.442H5.456c-.824 0-1.493-.647-1.493-1.442V18.27h3.961v-6.76H3.963V9.147c0-.795.669-1.442 1.493-1.442h3.006c.823 0 1.493.647 1.493 1.442v11.451zM3.963 17.31h2.971v-4.837H3.963v4.837zM5.98 6.73h1.941V1.893H5.98V6.73zM8.951 1h-4v5.793c-1.132.226-1.984 1.195-1.984 2.353v2.365h-.005v6.76h.005v2.326C2.967 21.923 4.083 23 5.456 23h3.006c1.373 0 2.489-1.077 2.489-2.403V9.146c0-1.163-.861-2.136-2-2.355V1zm5.15 3.42.014 7.967 4.523-.009-.014-7.968-4.523.01zm-.485 8.992a.5.5 0 0 1-.5-.51L13.1 3.907a.52.52 0 0 1 .146-.362.488.488 0 0 1 .353-.15l5.523-.01h.001c.276 0 .499.228.5.511l.016 8.991a.506.506 0 0 1-.499.513l-5.523.011h-.001z"/><path d="m15.255 8.4 1.129 1.697 1.1-1.701-1.106-1.697z"/><path d="M22.106 4.242A.495.495 0 0 0 21.809 4l-5.293-1.58a.502.502 0 0 0-.622.337l-.462 1.546h1.044l.234-.782 2.617.782h.025v.006l1.692.506-1.601 5.364v3.115a.492.492 0 0 0 .19-.262l2.513-8.409a.505.505 0 0 0-.04-.38M22.1 18.5c0 .827-.673 1.5-1.5 1.5h-2v-3h2c.827 0 1.5.673 1.5 1.5ZM15.6 20c-.827 0-1.5-.673-1.5-1.5s.673-1.5 1.5-1.5h2v3h-2Zm-2.5-1.5c0 1.375 1.125 2.5 2.5 2.5h5c1.375 0 2.5-1.125 2.5-2.5S21.975 16 20.6 16h-5a2.507 2.507 0 0 0-2.5 2.5Z"/></g></svg>