<svg xmlns="http://www.w3.org/2000/svg" width="24" height="24"><path fill="#000" fill-rule="evenodd" d="M21.95 18a2.5 2.5 0 0 0-4.899 0H16v-6h7v6h-1.05Zm-2.45 2c-.827 0-1.5-.673-1.5-1.5s.673-1.5 1.5-1.5a1.501 1.501 0 0 1 0 3ZM15 12v6H6.95a2.5 2.5 0 0 0-4.899 0H1v-6h14ZM4.5 20c-.827 0-1.5-.673-1.5-1.5S3.673 17 4.5 17a1.501 1.501 0 0 1 0 3ZM1 11h4V5.004H1V11Zm5 0h4V5.004H6V11Zm5 0h4V5.004h-4V11Zm5-5.996h4.233L22.902 11H16V5.004ZM0 4v15h2.051a2.5 2.5 0 0 0 4.899 0h10.101a2.5 2.5 0 0 0 4.899 0H24v-8h-.003l-3.116-6.998L0 4Z"/></svg>