<svg xmlns="http://www.w3.org/2000/svg" width="24" height="24"><g fill="#000" fill-rule="evenodd"><path d="M2.97 17.045h18.022V4H2.97v13.045Zm1-1h16.022V5H3.97v11.045Z"/><path fill-rule="nonzero" d="M8.657 11.846H6.844l-.38 1.09H5.62l1.768-4.681h.73l1.771 4.68H9.04l-.382-1.09Zm-1.585-.656h1.357L7.75 9.248l-.678 1.942Zm3.347 1.746V8.255h1.604c.253 0 .48.025.682.075.201.05.372.127.51.23.14.103.247.234.32.394.075.16.112.349.112.567 0 .215-.058.408-.174.579a1.117 1.117 0 0 1-.508.399c.135.036.252.09.352.159a.982.982 0 0 1 .394.558c.032.113.048.231.048.353 0 .225-.037.423-.11.593-.075.17-.182.313-.322.428-.14.115-.311.201-.511.259-.2.058-.427.087-.68.087h-1.717Zm.813-2.113v1.463h.904c.132 0 .25-.017.352-.051a.702.702 0 0 0 .255-.146.602.602 0 0 0 .155-.227.799.799 0 0 0 .051-.293c0-.231-.061-.413-.183-.546-.122-.133-.32-.2-.595-.2h-.939Zm0-.598h.797c.253 0 .451-.057.594-.172.142-.114.213-.277.213-.487 0-.231-.065-.398-.197-.501-.132-.103-.337-.155-.616-.155h-.79v1.315Zm6.913 1.187c-.022.23-.075.44-.161.635a1.516 1.516 0 0 1-.915.834c-.22.08-.473.119-.76.119a1.89 1.89 0 0 1-.78-.156 1.668 1.668 0 0 1-.595-.444 2.005 2.005 0 0 1-.377-.696 2.975 2.975 0 0 1-.132-.916v-.38c0-.336.045-.64.135-.914.09-.273.218-.506.386-.7.167-.192.369-.341.606-.446.236-.105.502-.158.795-.158.279 0 .525.04.74.12.214.081.396.193.545.335.149.143.266.313.35.51.085.197.139.412.163.646h-.81a1.821 1.821 0 0 0-.089-.399.849.849 0 0 0-.178-.3.738.738 0 0 0-.293-.188 1.256 1.256 0 0 0-.428-.065c-.184 0-.345.035-.484.105a.925.925 0 0 0-.345.302 1.417 1.417 0 0 0-.208.487c-.046.193-.069.413-.069.66v.385c0 .234.02.446.061.637.041.19.104.354.19.49a.91.91 0 0 0 .331.317.985.985 0 0 0 .486.112c.176 0 .324-.02.445-.061a.76.76 0 0 0 .3-.18c.08-.08.142-.177.186-.293.043-.115.075-.248.094-.398h.81Z"/><path d="M20.992 16.045H2.97L1 20.07 23 20l-2.008-3.955Zm-.612 1 1.032 2.024H2.602l.992-2.024H20.38Z"/></g></svg>