<svg xmlns="http://www.w3.org/2000/svg" width="24" height="24"><g fill="#373475" fill-rule="evenodd"><path d="M5.538 11c.644.002 1.21.232 1.596.646l.732-.68c-.576-.62-1.4-.963-2.325-.966h-.013c-.929 0-1.823.359-2.392.963l.728.686c.385-.409.997-.68 1.674-.649m6 0c.644.002 1.21.232 1.596.646l.732-.68c-.575-.62-1.4-.963-2.325-.966h-.013c-.929 0-1.823.359-2.392.963l.728.686c.385-.409 1.05-.68 1.674-.649m-7.423 6.013c1.058 1.275 2.587 1.98 4.307 1.987h.022c1.733 0 3.391-.741 4.438-1.984l-.765-.645C11.258 17.393 9.887 18 8.444 18h-.018c-1.418-.005-2.676-.582-3.54-1.626l-.77.639zm14.357-8.01c.93 0 1.823-.36 2.393-.963l-.73-.686c-.382.407-1.004.649-1.662.649h-.01c-.644-.002-1.211-.232-1.596-.646l-.733.68c.576.62 1.4.963 2.325.966h.013z"/><path d="M22 12.5c0 3.584-2.916 6.5-6.5 6.5-.122 0-.24-.012-.36-.018A7.461 7.461 0 0 0 16 15.5v-1.461c1.24.11 2.339.645 3.115 1.58l.77-.639c-.97-1.169-2.339-1.852-3.885-1.963V6H9V4h13v8.5Zm-7 3c0 3.584-2.916 6.5-6.5 6.5A6.508 6.508 0 0 1 2 15.5V7h13v8.5ZM8 3v3H1v9.5A7.5 7.5 0 0 0 8.5 23a7.483 7.483 0 0 0 6.041-3.068c.314.04.633.068.959.068a7.5 7.5 0 0 0 7.5-7.5V3H8Z"/></g></svg>