<svg xmlns="http://www.w3.org/2000/svg" width="24" height="24"><g fill-rule="evenodd"><path d="M18.375 11.492h-3.02v2.948h-2.979v4h2.979v3.03h4.02v-3.03h2.979v-4h-2.98v-2.948h-1Zm-4.998 3.947h2.978v-2.947h2.02v2.947h2.979v2.001h-2.98v3.03h-2.02v-3.03h-2.977v-2Z"/><path d="M20.308 5.413C19.258 4.215 17.772 3.5 16.335 3.5c-2.568 0-4.267 1.581-5.006 2.45-.739-.867-2.42-2.45-4.858-2.45-1.436 0-2.922.715-3.973 1.913C1.331 6.743.82 8.47 1.056 10.277c.661 5.044 9.691 10.944 10.076 11.193l.264.171.267-.165a38.029 38.029 0 0 0 2.864-1.98h-1.7c-.625.442-1.128.773-1.415.958-1.495-1.012-8.822-6.168-9.364-10.308-.199-1.516.228-2.963 1.201-4.074C4.114 5.088 5.32 4.5 6.471 4.5c2.735 0 4.425 2.52 4.441 2.545l.423.64.416-.644c.016-.025 1.675-2.54 4.584-2.54 1.154 0 2.358.587 3.222 1.571.974 1.111 1.401 2.558 1.202 4.074-.1.773-.372 1.346-.372 1.346l.012 2.085s.854-1.007 1.352-3.3c.387-1.78-.276-3.535-1.443-4.864"/></g></svg>