<svg xmlns="http://www.w3.org/2000/svg" width="24" height="24"><g fill="#fff" fill-rule="evenodd"><path d="M11.742 11.45a2.491 2.491 0 1 0 0 4.984 2.492 2.492 0 0 0 0-4.984m0 1c.822 0 1.492.669 1.492 1.492 0 .822-.67 1.492-1.492 1.492-.823 0-1.492-.67-1.492-1.492 0-.823.67-1.492 1.492-1.492m-3.494 9.014h-1a4.5 4.5 0 0 1 4.494-4.493 4.498 4.498 0 0 1 4.494 4.493h-1a3.497 3.497 0 0 0-3.494-3.493 3.499 3.499 0 0 0-3.494 3.493M1.5 17.696a4.5 4.5 0 0 1 4.494-4.493c.006.247.006.747 0 1A3.499 3.499 0 0 0 2.5 17.696M22.423 17.696a4.5 4.5 0 0 0-4.494-4.493 27.79 27.79 0 0 0 0 1 3.499 3.499 0 0 1 3.494 3.493M6.241 7.484a2.492 2.492 0 1 0 .001 4.985 2.492 2.492 0 0 0 0-4.985m0 1c.822 0 1.491.67 1.491 1.492 0 .823-.669 1.492-1.492 1.492A1.494 1.494 0 0 1 4.75 9.976c0-.822.67-1.492 1.492-1.492m11.002-1a2.492 2.492 0 1 0 0 4.985 2.492 2.492 0 0 0 0-4.985m0 1c.823 0 1.492.67 1.492 1.492 0 .823-.669 1.492-1.492 1.492a1.494 1.494 0 0 1-1.492-1.492c0-.822.67-1.492 1.492-1.492m-5.5-5.984a2.491 2.491 0 1 0 0 4.984 2.492 2.492 0 0 0 0-4.984m0 1c.821 0 1.491.669 1.491 1.492 0 .822-.67 1.492-1.492 1.492-.823 0-1.492-.67-1.492-1.492 0-.823.67-1.492 1.492-1.492"/></g></svg>