<svg xmlns="http://www.w3.org/2000/svg" xmlns:xlink="http://www.w3.org/1999/xlink" width="24" height="24"><defs><path id="a" d="M0 .555h20.473v19.444H0z"/><path id="c" d="M0 20.445h20.473V1H0z"/></defs><g fill="#fff" fill-rule="evenodd" transform="translate(2 1)"><g transform="translate(0 .445)"><mask id="b"><use xlink:href="#a"/></mask><path d="M10.473 1.554c-4.963 0-9 3.59-9 8 0 1.75.634 3.418 1.834 4.824l.205.24-1.522 3.393 3.725-1.673.215.112a9.843 9.843 0 0 0 4.543 1.104c4.963 0 9-3.589 9-8 0-4.41-4.037-8-9-8ZM0 20l2.343-5.218C1.119 13.244.473 11.444.473 9.554c0-4.963 4.485-9 10-9 5.514 0 10 4.037 10 9s-4.486 9-10 9c-1.668 0-3.318-.382-4.788-1.106L0 20Z" mask="url(#b)"/></g><mask id="d"><use xlink:href="#c"/></mask><path d="M10.21 15.043h1.094v-1.097H10.21zM11.29 12.588h-1.077l-.002-.098c-.01-.438.015-.808.072-1.1.058-.3.153-.572.282-.812.128-.237.303-.47.52-.694.212-.216.464-.456.77-.732.25-.232.461-.498.63-.79.162-.28.245-.598.245-.942a1.717 1.717 0 0 0-.56-1.292 2.025 2.025 0 0 0-1.341-.499c-.358 0-.679.064-.953.189a1.822 1.822 0 0 0-.678.51 2.236 2.236 0 0 0-.402.771 3.128 3.128 0 0 0-.118.897v.1h-1.08l.002-.101c.006-.48.077-.918.21-1.301.142-.418.36-.78.643-1.074a2.965 2.965 0 0 1 1.036-.686 3.657 3.657 0 0 1 1.381-.245c.401 0 .782.06 1.133.18.353.12.668.3.933.53.272.23.488.514.642.843.155.33.234.713.234 1.136 0 .538-.12 1.004-.359 1.383-.23.369-.53.728-.89 1.069-.26.264-.502.498-.693.68a1.844 1.844 0 0 0-.365.457 1.583 1.583 0 0 0-.157.545c-.028.223-.046.551-.056.977l-.002.098Z" mask="url(#d)"/></g></svg>