<svg xmlns="http://www.w3.org/2000/svg" xmlns:xlink="http://www.w3.org/1999/xlink" width="24" height="24"><defs><path id="a" d="M0 23h23.856V.026H0z"/></defs><g fill="none" fill-rule="evenodd"><path fill="#084c8e" d="M5.911 22.974h1V18.82h-1zM2.911 22.974h1V18.82h-1z"/><g transform="translate(0 -.026)"><path fill="#084c8e" d="M4.884 8.02a1.997 1.997 0 1 0 .001 3.993 1.997 1.997 0 0 0-.001-3.993m0 1a.998.998 0 0 1 0 1.994.997.997 0 0 1 0-1.994"/><mask id="b" fill="#fff"><use xlink:href="#a"/></mask><path fill="#084c8e" d="M2.911 19.064h4v-5.977h-4v5.977Zm1-1h2v-3.977h-2v3.977Z" mask="url(#b)"/><path fill="#084c8e" d="M6.933 13.082h-.588l-.425.278 3.066 4.683.836-.547zM2.889 13.082h.588l.425.278-3.066 4.683L0 17.496zM11.404 22.989h1V5.976h-1zM11.404 1.962h1V.025h-1z" mask="url(#b)"/><path fill="#084c8e" d="M2.216 5.476h19.291c-1.143-1.946-5.137-3.394-9.645-3.394-4.509 0-8.503 1.448-9.646 3.394zm20.682 1H.825l.161-.624c.708-2.764 5.281-4.77 10.876-4.77 5.594 0 10.167 2.006 10.875 4.77l.161.624zm-3.921 1.533a1.997 1.997 0 1 0-.001 3.993 1.997 1.997 0 0 0 0-3.993m0 1a.998.998 0 1 1 0 1.995.998.998 0 0 1 0-1.995m1.966 4.063h-4.005l-1.012 8.104h6.04l-1.023-8.104zm-.864 1.16.73 5.784H17.08l.721-5.784h2.276z" mask="url(#b)"/><path fill="#084c8e" d="M16.938 23h1v-2.088h-1zM19.94 23h1v-2.138h-1zM20.967 13.072h-.588l-.424.277 3.066 4.683.836-.547zM16.924 13.072h.587l.425.277-3.066 4.683-.836-.547z" mask="url(#b)"/></g></g></svg>