<svg xmlns="http://www.w3.org/2000/svg" width="24" height="24"><g fill="#666" fill-rule="evenodd"><path d="m5.7 7.6.6.8 3.76-2.819 1.99.941-3.743 5.617.832.554.004-.004 5.96 3.875-2.343 6.261.937.35 2.624-7.012-3.601-2.34 3.23-4.849L17.04 12H22v-1h-4.255l-1.258-3.487L9.94 4.418 5.7 7.6Zm3.997 4.257 3.268-4.903 2.38 1.125-3.464 5.198-2.184-1.42Z"/><path d="M7.217 16H2v1h5.783l1.646-2.743-.858-.514zM16 3a1.001 1.001 0 0 1 0 2 1.001 1.001 0 0 1 0-2m0 3c1.103 0 2-.897 2-2s-.897-2-2-2-2 .897-2 2 .897 2 2 2M19 22a1 1 0 1 1 0-2 1 1 0 0 1 0 2m0-3c-1.103 0-2 .897-2 2s.897 2 2 2 2-.897 2-2-.897-2-2-2"/></g></svg>