<svg xmlns="http://www.w3.org/2000/svg" width="154.691" height="128.501"><g fill="none" fill-rule="evenodd" stroke="#363578"><path fill="#FFF" stroke-linejoin="round" d="m9.018 149.9-3.16-3.786 1.984-10.073 11.754-12.049-5.96-3.258H7.842l2.8-14.117 3.259 1.129 1.776-5.898-.535-5.925-4.039 1.354-.841-2.355 8.316-4.846 12.176 4.288 2.525 9.227 6.584 5.096 3.076.317v3.699l2.16 3.042-13.282 1.822-3.018 8.474-4.537 2.347-.904 13.21-8.216 7.246z"/><path fill="#FFF" stroke-linejoin="round" d="m42.944 108.849-.005 3.854 2.16 3.042-13.282 1.822-3.018 8.474-4.537 2.347-.69 10.086h10.764l6.14 2.339 7.038-1.401 7.125.534.574-3.303 4.104-.625-.641-10.792-2.592-6.614h-2.253l-.714-4.295 4.01-1.614-3.296-4.016z"/><path fill="#FFF" stroke-linejoin="round" d="m1 157.863 8.018-7.962 6.124-1.057 8.216-7.247.214-3.123h10.764l6.14 2.339 7.038-1.401 7.125.534 1.86.948 2.038-1.314 3.73 4.636 4.006 10.026-1.842 2.796-4.822 2.84v1.014l-7.065 4.628-3.817-6.374-4.937 4.291h-5.885l-.824-6.4-4.884.394-14.803 6.716 2.029 3.36-7.678-1.77-1.847 1.023-4.04-4.695-4.26-1.173z"/><path fill="#FFF" stroke-linecap="round" stroke-linejoin="round" d="m66.273 167.507-.29 2.075 3.897-.055.35 4.045 7.375.639 1.535-3.821-2.167-9.246-3.585-.71-.696-1.99 5.383-15.312-.47-2.319h-1.212l-.485-5.308-1.58.183v-2.907l-7.894.38.948-2.457-1.881-.717.285-2.09-7.053-2.484.584 10.605-4.104.625-.574 3.303 1.86.948 2.038-1.314 3.73 4.636 4.006 10.026-1.933 2.894-4.73 2.742.08 2.448z"/><path fill="#FFF" stroke-linejoin="round" d="M31.472 79.223h10.016l-.044-4.731 4.601-.45.492-7.252 5.265.753-1.672 2.32 1.672 4.178.113 4.977 6.723 1.92 6.647-.798 2.079 5.95-3.125 6.157-3.508 1.124 9.604 8.277-2.468.875-.503 2.148-2.512 1.482-.613-1.482-5.924-1.586-5.82 2.323-2.365 3.36H39.938l-6.659-5.177-2.525-9.227.718-1.74-4.354-5.475z"/><path fill="#FFF" stroke-linecap="round" stroke-linejoin="round" d="m50.13 108.768 1.922-3.162 6.263-2.52 5.924 1.585.613 1.482 2.706-1.731.32-1.976 2.306-.65 1.69 2.29 2.659 10.252-.438 1.907 5.288 3.095-1.2 3.591 1.391 1.282-1.085 1.378-2.603.258-2.724-1.636-5.604.618-1.772 3.066-7.053-2.484-2.613-6.763h-2.145l-.858-4.312 4.01-1.635-3.152-3.935z"/><path fill="#FFF" stroke-linecap="square" stroke-linejoin="round" d="m74.311 132.727.282-1.006 3.896.653-.986-3.359 4.656 2.037 3.326-3.155 6.424 4.83 1.965-1.006-5.214-4.32 1.878-5.591-1.34-2.324-2.165.436-3.195-2.526-1.305-1.651-4.241 1.169-1.12 1.2 2.211 1.226-1.252 3.541 1.443 1.332-1.085 1.378-2.83.27-2.497-1.648-5.604.618-2.019 3.517.104 1.686 1.739.67-.948 2.457z"/><path fill="#FFF" stroke-linejoin="round" d="m77.171 118.114 1.12-1.2 4.086-1.17 4.656 4.178 2.165-.436-2.677-2.989 1.973-2.593-.253-4.624 2.894.202 1.403-1.761 2.022.529v-2.59l-2.103-1.747 1.417-2.265-2.523-1.657.332-4.316 2.19-3.051 3.21-1.54-1.898-4 2.433-7.514 2.32-1.158 1.287-5.505-1.127-1.04-1.5.678-6.141-5.232.75-4.24-2.926 1.367V61l-2.04 3.108-1.72-.642-1.846 2.183 2.5 2.16 3.106.72-3.634 2.76-4.27-.39-3.888 5.088-6.446-4.698-6.758 8.851 2.07 5.418-3.116 6.689-3.104 1.194 9.2 8.207 1.708 2.265 2.49 10.425-.438 1.907z"/><path fill="#FFF" stroke-linecap="round" stroke-linejoin="round" d="m87.933 156.876 3.246 9.884 8.348-2.204 1.847-4.462-.799-4.89-2.556-.638-10.986-8.474-1.016-3.237 4.044.19 1.118-2.15-2.706-3.335.404-1.953-5.087-3.793-6.287-2.799.986 3.359-3.872-.706-.288 4.02 1.579-.183.485 5.308 1.399-.168.283 2.487-5.383 15.312.696 1.99 3.654.74zM97.715 92.593l3.51-.391 5.49 1.973c1.558 1.162 2.637 2.077 3.238 2.747.6.67 1.208 1.634 1.824 2.895l-5.844 2.03-4.183 4.848 1.544 5.946-3.137 1.272v8.134l4.125.608 3.244 10.506-.811 1.554 1.003 2.718-2.484-.636-2.199 2.65-1.89-2.65h-3.43l-1.496-3.184-7.426-5.972 1.745-5.831-1.34-2.857-2.896-1.931 2.036-3.313-.097-4.43h3.083l1.281-1.646 2.467.646v-1.61l-2.652-2.973 1.454-1.9-2.577-1.979.307-3.866 1.119-1.977 4.493-2.65.499 1.269Z"/><path fill="#FFF" d="m112.84 136.352 3.188-1.56 5.88 3.205.586-1.144.145-2.582 2.874-3.909-1.008-1.025 2.91-7.605 4.944-3.78-.372-1.783-7.193-.098-.289-2.635 2.16-.22.772-1.783-11.838-2.746.43-2.85-1.398-5.273-1.79-1.261-6.908 2.545-4.183 4.847 1.544 5.946-3.038 1.273v7.818l3.948.863 3.123 10.186-.612 1.934 1.003 2.718h3.104z"/><path fill="#363578" stroke-linejoin="round" d="m99.527 164.556 2.997 1.558 2.09-1.076-.61 4.338h7.439l5.873-1.646 2.896 7.435 5.223-2.911 1 1.957 2.266-.508-.134 2.525 1.367.727-2.093 3.11-.608 5.204 2.628 3.231.916-.465 4.5-10.165 2.03-1.342 2.878.776 2.076-3.093-2.885-3.29 6.17-5.585 3.788-.298 1.382-2.763-1.886-3.5 2.59-4.217.94-3.974 2.33-1.74-.672-1.692-5.425-1.097-3.048-4.768-3.284-1.84.848 4.791-1.594.133-.763-3.558-6.319-3.423-5.144-2.2-4.562 2.271v2.119l-9.036-4.967-4.503 2.777-3.29.071-2.664-.664-2.199 2.65-1.89-2.65h-3.43l-1.496-3.184-2.345-1.892-1.965 1.006-6.424-4.83-3.326 3.155 6.718 4.555-.488 1.854 2.464 3.143-.791 2.424-4.045-.173 1.016 3.2 10.986 8.51 2.556.64.8 4.889z"/></g></svg>