<svg xmlns="http://www.w3.org/2000/svg" width="61" height="61"><g fill="none" fill-rule="evenodd" transform="translate(.249 .11)"><circle cx="30" cy="30" r="27.5" stroke="#000" stroke-width="5"/><g fill-rule="nonzero"><path fill="#000" d="M41.246 24.07c.036 1.908-.378 3.672-.918 5.436-.9 2.898-2.16 5.634-3.546 8.316-1.44 2.79-3.042 5.49-4.734 8.118-.468.738-1.116 1.17-2.034 1.17-.666 0-1.224-.288-1.656-.792a4.153 4.153 0 0 1-.252-.342c-2.43-4.05-4.734-8.154-6.66-12.474-.882-1.998-1.674-4.032-2.232-6.156-.666-2.538-.63-5.04.216-7.524 1.08-3.006 2.742-5.406 5.748-6.378 1.602-.522 2.784-.582 4.458-.546 1.296.036 2.814.174 4.074.498 1.728.45 3.738 1.734 4.926 3.102.972 1.116 1.818 2.316 2.16 3.738.324 1.278.45 2.574.45 3.834Zm-11.16 5.508c3.186.054 6.138-2.538 6.138-6.084 0-3.6-2.97-6.12-6.102-6.138-3.258-.018-6.138 2.628-6.156 6.084-.036 3.42 2.79 6.192 6.12 6.138Z"/><path fill="#FFF" d="M30.086 29.578c-3.33.036-6.156-2.718-6.12-6.156.018-3.456 2.898-6.102 6.156-6.084 3.132.018 6.12 2.538 6.102 6.138-.018 3.564-2.952 6.156-6.138 6.102Z"/></g></g></svg>