<svg xmlns="http://www.w3.org/2000/svg" width="94" height="94"><circle cx="47" cy="47" r="47" fill="#373475"/><g fill="#fff" fill-rule="evenodd"><path d="M55.632 19.565C46.67 11.923 35.914 7.19 24.502 5.713a46.742 46.742 0 0 0-10.797 8.115C41.57 12.216 65.81 33.224 68.03 61.173c.829 10.43-1.574 20.783-6.695 29.716a46.405 46.405 0 0 0 12.07-6.041 60.021 60.021 0 0 0 3.12-24.35c-1.27-15.988-8.69-30.526-20.893-40.933"/><path d="M51.546 36.96c-15.99 0-31.03-7.507-40.717-19.962a46.701 46.701 0 0 0-4.974 7.352C17.158 37.578 33.847 45.48 51.546 45.48a59.928 59.928 0 0 0 39.106-14.484 46.352 46.352 0 0 0-3.782-8.057 51.427 51.427 0 0 1-35.324 14.02"/><path d="M67.043 15.796c0 28.41-23.114 51.525-51.525 51.525-3.734 0-7.449-.43-11.077-1.227a46.543 46.543 0 0 0 5.84 9.491c1.74.153 3.486.257 5.237.257 33.11 0 60.046-26.937 60.046-60.046 0-2.016-.13-4.022-.328-6.017a46.53 46.53 0 0 0-9.558-5.71 51.766 51.766 0 0 1 1.365 11.727"/><path d="M93.107 41.842a51.444 51.444 0 0 1-46.013 28.313c-20.172 0-38.13-11.693-46.532-29.37a47.023 47.023 0 0 0-.379 5.856c0 3.839.474 7.565 1.35 11.134C12.667 70.72 29.13 78.676 47.093 78.676c17.438 0 33.5-7.48 44.638-19.854a46.616 46.616 0 0 0 1.62-12.181c0-1.62-.084-3.221-.245-4.799"/><path d="M49.108.115a46.484 46.484 0 0 0-17.431 2.454C20.513 13.583 13.764 28.84 13.764 45.347c0 18.521 8.382 35.43 22.098 46.582 3.5.839 7.148 1.296 10.905 1.296 2.3 0 4.56-.174 6.771-.496-18.872-8.042-31.253-26.522-31.253-47.382 0-19.16 10.584-36.362 26.822-45.232"/><path d="M13.168 39.431c23.593 0 44.572-13.587 54.357-34.494a46.177 46.177 0 0 0-7.971-3.09C51.052 19.482 33.21 30.91 13.168 30.91c-3.34 0-6.65-.324-9.895-.954a46.193 46.193 0 0 0-2.31 8.223 60.304 60.304 0 0 0 12.205 1.252"/></g></svg>