<svg xmlns="http://www.w3.org/2000/svg" width="23" height="22"><g fill="none" fill-rule="evenodd"><path fill="#373475" fill-rule="nonzero" d="M12.577.504 12.864.5C18.469.5 23 5.208 23 11s-4.53 10.5-10.136 10.5c-4.047 0-7.646-2.478-9.259-6.22l-.112-.27-.204-.51h2.147l.014.032C6.763 17.53 9.642 19.5 12.864 19.5c4.493 0 8.148-3.799 8.148-8.5 0-4.701-3.655-8.5-8.148-8.5-3.515 0-6.6 2.344-7.714 5.752l-.077.248H3l.164-.557C4.422 3.653 8.2.631 12.577.504L12.864.5Z"/><path stroke="#373475" stroke-width="2" d="m11 7.257 4.243 4.243L11 15.743"/><path stroke="#373475" stroke-linecap="square" stroke-width="2" d="M1 11.5h12.474"/></g></svg>