<svg xmlns="http://www.w3.org/2000/svg" width="24" height="24"><path fill="#373475" fill-rule="evenodd" d="M14 20c-1.103 0-2-.897-2-2s.897-2 2-2 2 .897 2 2-.897 2-2 2m-6-6c-1.103 0-2-.897-2-2s.897-2 2-2 2 .897 2 2-.897 2-2 2m6-10c1.103 0 2 .897 2 2s-.897 2-2 2-2-.897-2-2 .897-2 2-2m0 11c-.648 0-1.244.21-1.734.559l-1.825-1.825c.349-.49.559-1.086.559-1.734 0-.648-.21-1.244-.559-1.734l1.825-1.825C12.756 8.79 13.352 9 14 9a3 3 0 1 0-3-3c0 .648.21 1.244.559 1.734L9.734 9.559A2.977 2.977 0 0 0 8 9a3 3 0 1 0 0 6c.648 0 1.244-.21 1.734-.559l1.825 1.825A2.977 2.977 0 0 0 11 18a3 3 0 1 0 3-3"/></svg>