<svg xmlns="http://www.w3.org/2000/svg" width="1280" height="1280" viewBox="0 0 24 1280"><path fill="#373475" d="M42.958 1144.794c1.974-.157 8.133-.71 13.817-1.184 11.29-.947 30.793-3.869 39.715-5.843l5.684-1.342v-83.613l10.975-16.344c12.475-18.475 21.476-29.687 29.293-36.398 13.738-11.843 25.976-17.765 45.004-21.87 5.29-1.185 10.185-1.422 22.897-1.422 17.054 0 26.687 1.026 42.636 4.658l8.132 1.816 28.898 28.898 28.976 28.976 10.975-8.842c32.293-25.819 60.006-54.4 84.482-87.009l4.58-6.158-28.03-28.187-28.108-28.187-3.158-8.29c-7.817-20.371-10.817-34.662-10.817-51.716 0-12.001.71-16.897 3.711-26.766 7.659-24.87 31.03-48.005 68.77-67.98l8.211-4.343h40.267c34.504 0 40.425-.158 40.741-1.105.79-2.053 4.343-26.53 5.448-37.188.632-6.474 1.026-21.002.947-39.083 0-29.45-.79-43.662-4.263-75.323-.869-7.817-1.58-14.449-1.58-14.844 0-.315-17.922-.631-39.793-.631h-39.714l-6.632-2.685c-32.924-13.343-52.19-29.529-63.164-53.058-11.133-23.607-11.054-57.795.158-96.167l1.658-5.606 28.108-28.187 28.108-28.187-2.132-3.158c-3.553-5.369-17.291-22.186-27.634-33.714-19.818-22.265-40.82-42.398-60.875-58.426l-10.264-8.29-29.292 29.292L260.4 296.5l-6.237.79c-11.212 1.342-40.346 1.816-50.926.868-34.267-3.158-58.506-14.528-78.087-36.635-5.921-6.79-15.238-20.607-19.738-29.45l-3.238-6.396v-82.902l-8.132-1.264c-11.37-1.816-32.056-4.263-45.557-5.448-14.922-1.342-60.4-1.263-73.823 0-10.817 1.106-36.95 4.659-39.32 5.37-1.263.394-1.342 3.079-1.342 42.477v42.004l-3.632 7.501c-11.132 22.897-28.897 41.451-50.057 52.031-9.238 4.659-22.976 9.001-35.135 11.133-8.922 1.58-12.949 1.816-30.398 1.895-12.16 0-23.844-.395-29.608-1.105l-9.475-1.027-31.345-31.582-31.424-31.66-2.921 2.289c-6.712 4.974-28.108 22.581-36.951 30.319-23.845 20.923-45.242 43.899-59.611 64.19l-2.685 3.79 31.345 31.345 31.345 31.345 2.685 13.423c4.658 23.133 5.527 30.318 5.527 46.188.079 11.291-.316 16.107-1.421 21.318-3.79 17.37-10.738 30.556-22.976 43.347-11.212 11.764-23.134 20.133-42.083 29.608l-10.423 5.21h-90.798l-.395 1.817c-.552 2.763-2.684 19.58-3.947 32.134-4.106 40.662-3.395 84.877 2.052 120.723.869 5.921 1.737 11.37 1.974 12.159.395 1.263 3.316 1.342 46.505 1.342h46.11l10.106 5.053c42.636 21.397 61.9 48.084 64.585 89.693.79 12.238-1.737 38.293-5.921 60.006l-.79 4.343-31.977 31.976-31.977 31.977 5.053 7.343c16.186 23.923 40.03 48.478 68.85 70.823 14.37 11.29 29.37 21.95 30.16 21.554.395-.078 14.528-13.738 31.266-30.24 22.029-21.633 31.346-30.318 33.477-31.029 1.58-.631 7.896-2.131 13.975-3.395 58.98-12.238 103.116 7.817 136.198 62.059l4.737 7.816v43.663c0 35.924.158 43.662 1.027 43.662.631 0 7.421.71 15.238 1.579 28.74 3.158 42.32 4.027 65.454 4.263 13.027.158 25.265.158 27.24 0zm-57.242-331.61c-19.107-2.29-38.057-8.054-56.848-17.292-19.897-9.79-34.74-20.528-50.215-36.398-22.976-23.687-39.083-53.61-46.505-86.456-5.132-22.818-5.29-53.532-.316-76.113 14.291-64.506 60.322-115.511 122.223-135.329 19.028-6.08 33.556-8.29 54.558-8.29 29.371 0 52.82 5.369 78.955 18.08 26.213 12.712 48.636 31.03 65.217 53.295 8.922 12.001 12.554 17.923 18.87 30.95 9.238 18.871 15.238 40.03 17.449 61.349 1.263 12.08.474 34.03-1.58 46.267-9.71 57.4-44.372 104.932-95.85 131.46-33.162 17.134-67.586 23.135-105.958 18.476z"/></svg>