<svg xmlns="http://www.w3.org/2000/svg" width="24" height="24"><path fill="#373475" fill-rule="evenodd" d="M14.63 18.483a7.33 7.33 0 0 0 .894-1.519c.275.162.535.345.785.541a6.987 6.987 0 0 1-1.68.978Zm-6.155-1.519a7.33 7.33 0 0 0 .895 1.519 6.98 6.98 0 0 1-1.679-.978c.25-.196.51-.379.784-.541ZM5.025 12.5h2.49c.043 1.276.254 2.47.597 3.514a8.056 8.056 0 0 0-1.173.808A6.966 6.966 0 0 1 5.025 12.5Zm3.087-4.514c-.343 1.044-.554 2.238-.598 3.514H5.025A6.971 6.971 0 0 1 6.94 7.177c.366.302.756.575 1.173.809ZM9.37 5.517a7.33 7.33 0 0 0-.895 1.519 7.083 7.083 0 0 1-.784-.541 6.98 6.98 0 0 1 1.68-.978Zm6.154 1.519a7.33 7.33 0 0 0-.895-1.519 6.987 6.987 0 0 1 1.68.978 7.19 7.19 0 0 1-.785.541Zm3.45 4.464h-2.489a12.775 12.775 0 0 0-.597-3.514 8.092 8.092 0 0 0 1.173-.809 6.97 6.97 0 0 1 1.913 4.323ZM12.5 15.026V12.5h2.986a11.787 11.787 0 0 1-.509 3.085 7.95 7.95 0 0 0-2.477-.559Zm0 3.882v-2.882a6.921 6.921 0 0 1 2.127.496c-.568 1.279-1.346 2.125-2.127 2.386Zm-1-2.882v2.882c-.782-.261-1.559-1.107-2.127-2.386a6.915 6.915 0 0 1 2.127-.496Zm0-3.526v2.526a7.938 7.938 0 0 0-2.477.559 11.704 11.704 0 0 1-.509-3.085H11.5Zm0-3.526V11.5H8.514c.042-1.149.226-2.189.51-3.085a7.938 7.938 0 0 0 2.476.559Zm0-3.882v2.882a6.915 6.915 0 0 1-2.127-.496c.568-1.279 1.345-2.125 2.127-2.386Zm1 2.882V5.092c.781.261 1.56 1.107 2.127 2.386a6.921 6.921 0 0 1-2.127.496Zm0 1a7.95 7.95 0 0 0 2.477-.559c.282.896.466 1.936.51 3.085H12.5V8.974Zm3.388 7.04c.342-1.044.553-2.238.597-3.514h2.49a6.965 6.965 0 0 1-1.914 4.322 8.166 8.166 0 0 0-1.173-.808ZM17.8 17.5A7.963 7.963 0 0 0 20 12c0-2.133-.84-4.066-2.2-5.5a7.887 7.887 0 0 0-.73-.687 7.964 7.964 0 0 0-4.57-1.788V4h-1v.025a7.958 7.958 0 0 0-4.57 1.788 8.016 8.016 0 0 0-.73.687A7.966 7.966 0 0 0 4 12c0 2.133.84 4.066 2.2 5.5.23.243.471.475.73.687A7.961 7.961 0 0 0 12 20c1.924 0 3.69-.68 5.07-1.813.26-.212.5-.444.73-.687Z"/></svg>