<svg xmlns="http://www.w3.org/2000/svg" width="24" height="24"><path fill="#373475" fill-rule="evenodd" d="M12 1A11 11 0 0 0 1 12a11 11 0 0 0 11 11 11 11 0 0 0 11-11A11 11 0 0 0 12 1zm-.002 4.027c.615 0 1.168.077 1.654.229a3.39 3.39 0 0 1 1.229.664c.334.29.59.65.77 1.08.178.43.267.922.267 1.473 0 .386-.057.736-.174 1.047-.117.31-.275.601-.474.876-.2.276-.43.542-.688.797-.258.255-.53.514-.816.778-.164.152-.3.304-.409.457a2.26 2.26 0 0 0-.404 1.016c-.026.19-.043.4-.049.628h-2.25c0-.398.023-.755.067-1.068.044-.314.117-.604.222-.867.106-.264.244-.507.414-.733.17-.225.381-.453.633-.681.2-.176.383-.347.553-.514.17-.167.316-.335.44-.502.122-.167.22-.343.287-.527a1.72 1.72 0 0 0 .101-.594c0-.498-.116-.87-.348-1.115-.231-.246-.574-.37-1.025-.37-.182 0-.358.029-.531.085a1.238 1.238 0 0 0-.461.267c-.135.123-.242.28-.324.47a1.82 1.82 0 0 0-.133.682H8c.006-.615.113-1.147.324-1.595.211-.448.496-.819.854-1.112a3.57 3.57 0 0 1 1.261-.656 5.446 5.446 0 0 1 1.559-.215zm-.174 10.389c.217 0 .412.035.588.105.176.07.326.166.45.286.122.12.217.261.284.425.068.164.1.344.1.538 0 .187-.032.363-.1.527a1.251 1.251 0 0 1-.734.707 1.628 1.628 0 0 1-.588.101 1.64 1.64 0 0 1-.59-.101 1.251 1.251 0 0 1-.734-.707c-.067-.164-.1-.34-.1-.527 0-.194.033-.374.1-.538.067-.164.162-.305.285-.425.123-.12.274-.215.45-.286.175-.07.372-.105.59-.105z"/></svg>