<svg xmlns="http://www.w3.org/2000/svg" width="75" height="36"><g fill="none" fill-rule="evenodd"><g transform="translate(2.246 2)"><rect width="28.516" height="22.916" x=".75" y="5.542" stroke="#666" stroke-width="1.5" rx="1.792"/><rect width="18" height="1.5" x="6.008" y="21" fill="#666" rx=".75"/><g fill="#666" transform="translate(5.264 10.616)"><circle cx="2.5" cy="2.5" r="2.5"/><circle cx="17.956" cy="2.5" r="2.5"/></g><rect width="1.5" height="6" x="14.408" fill="#666" rx=".75"/></g><path stroke="#666" stroke-width="1.5" d="M52.5 11.571V8.303a4 4 0 0 1 4-4h12a4 4 0 0 1 4 4v13a4 4 0 0 1-4 4h-5.792"/><path stroke="#666" stroke-width="1.5" d="M60.319 29.697a3.24 3.24 0 0 1-.952 2.298 3.24 3.24 0 0 1-2.298.952H45.263a3.24 3.24 0 0 1-2.298-.952 3.24 3.24 0 0 1-.952-2.298v-4.57l-4.24-4.627h4.24v-3.803c0-.898.364-1.71.952-2.299a3.24 3.24 0 0 1 2.298-.951h11.806c.897 0 1.71.363 2.298.951.588.589.952 1.401.952 2.299Z"/><path fill="#222" fill-rule="nonzero" d="M53.083 25.426h-3.855l-.807 2.317h-1.798l3.76-9.953h1.552l3.766 9.953h-1.805l-.813-2.317Zm-3.37-1.394h2.885l-1.443-4.13-1.442 4.13Z"/><path stroke="#666" stroke-linecap="round" stroke-width="1.3" d="M57.683 10.945h11.931"/><path stroke="#666" stroke-width="1.3" d="M66.853 10.945c-.235 2.41-.795 4.21-1.678 5.404-.878 1.186-2.01 2.081-3.128 2.712-.507.285-1.219.464-1.54.683"/><path stroke="#666" stroke-linecap="round" stroke-width="1.3" d="M62.047 13.438c2.13 5.066 4.652 7.465 7.567 7.199M63.65 10.746V8.323"/></g></svg>