<svg xmlns="http://www.w3.org/2000/svg" xmlns:xlink="http://www.w3.org/1999/xlink" width="24" height="24"><defs><path id="a" d="M0 .807h19V8.05H0z"/><path id="c" d="M0 16.193h19V1H0z"/></defs><g fill="none" fill-rule="evenodd" transform="translate(3 3)"><g transform="translate(0 .193)"><mask id="b" fill="#fff"><use xlink:href="#a"/></mask><path fill="#1D1D1B" d="M3.284 6.803c1.387 0 2.575.417 3.118 1.013.543-.596 1.73-1.013 3.117-1.013 1.388 0 2.576.417 3.119 1.013.542-.596 1.73-1.013 3.117-1.013 1.517 0 2.789.498 3.245 1.186C18.642 3.976 14.533.806 9.502.806 4.446.806.32 4.008 0 8.05c.418-.719 1.722-1.248 3.284-1.248" mask="url(#b)"/></g><mask id="d" fill="#fff"><use xlink:href="#c"/></mask><path fill="#1D1D1B" d="M8.896 16.193h1.5V8.597h-1.5z" mask="url(#d)"/></g></svg>