<svg xmlns="http://www.w3.org/2000/svg" width="24" height="24"><path fill="#fff" fill-rule="evenodd" d="M19.435 4.566A5.309 5.309 0 0 0 15.656 3a5.304 5.304 0 0 0-3.778 1.566s-3.37 3.37-3.564 3.562a5.332 5.332 0 0 0-1.564 3.787 5.307 5.307 0 0 0 1.565 3.77l.436.436a.592.592 0 0 0 .839 0l.84-.84a.594.594 0 0 0 0-.84l-.436-.434A2.985 2.985 0 0 1 9.96 9.84l3.598-3.597a2.95 2.95 0 0 1 2.099-.869 2.95 2.95 0 0 1 2.098.87 2.968 2.968 0 0 1 0 4.198l-.183.183c.288.772.458 1.599.46 2.468 0 .157-.022.31-.032.464l1.435-1.436a5.343 5.343 0 0 0 0-7.556ZM14.25 8.88a.592.592 0 0 0-.839 0l-.84.84a.594.594 0 0 0 0 .84l.436.434a2.985 2.985 0 0 1 .034 4.166l-3.598 3.597a2.955 2.955 0 0 1-2.1.868 2.95 2.95 0 0 1-2.097-.868l-.001-.002a2.968 2.968 0 0 1 0-4.198l.183-.183a7.044 7.044 0 0 1-.46-2.468c0-.157.022-.31.032-.464l-1.435 1.436a5.344 5.344 0 0 0 0 7.556A5.306 5.306 0 0 0 7.345 22a5.304 5.304 0 0 0 3.778-1.566l3.564-3.562a5.333 5.333 0 0 0 1.564-3.787 5.307 5.307 0 0 0-1.565-3.77l-.435-.435Z"/></svg>