<svg xmlns="http://www.w3.org/2000/svg" width="24" height="24"><path fill="#fff" fill-rule="evenodd" d="M13.289 8.49c.45-.193.889-.291 1.314-.291.903 0 1.301.509 1.195 1.523-.053.613-.451 1.506-1.195 2.681-.745 1.174-1.302 1.761-1.674 1.761-.48 0-.917-.904-1.315-2.714-.134-.532-.373-1.888-.718-4.07-.32-2.023-1.169-2.967-2.55-2.834-.586.053-1.463.585-2.632 1.594-.85.77-1.714 1.542-2.59 2.312l.836 1.076c.795-.557 1.26-.837 1.392-.837.61 0 1.179.957 1.71 2.867l1.434 5.257c.715 1.911 1.59 2.866 2.625 2.866 1.67 0 3.713-1.569 6.126-4.707 2.334-3.005 3.541-5.372 3.62-7.1.105-2.314-.754-3.497-2.578-3.552-2.46-.079-4.127 1.31-5 4.169Z"/></svg>