<svg xmlns="http://www.w3.org/2000/svg" xmlns:xlink="http://www.w3.org/1999/xlink" width="24" height="24"><defs><path id="a" d="M0 .869h15.125V16H0z"/></defs><g fill="none" fill-rule="evenodd"><g transform="translate(4 3.987)"><mask id="b" fill="#fff"><use xlink:href="#a"/></mask><path fill="#020303" d="M4.093 11.906C7.479 15.29 10.112 16 11.723 16c1.806 0 2.789-.843 3.049-1.102l.353-.353-3.693-3.701-.648.649a.512.512 0 0 1-.705 0L4.507 5.92a.496.496 0 0 1-.145-.353c0-.133.05-.258.145-.353l.648-.647-3.698-3.7-.353.354c-.161.16-3.766 3.926 2.989 10.684" mask="url(#b)"/></g><path fill="#fff" d="m8.054 2.87 3.02 3.02a.5.5 0 0 1 0 .708l-1.06 1.06L6.286 3.93l1.061-1.06a.5.5 0 0 1 .707 0ZM18.04 12.88l3.02 3.02a.5.5 0 0 1 0 .708L20 17.668l-3.728-3.727 1.06-1.061a.5.5 0 0 1 .708 0Z"/></g></svg>