<svg xmlns="http://www.w3.org/2000/svg" width="24" height="24"><g fill="none" fill-rule="evenodd"><path fill="#fff" d="M19.69 5.462c-1.54-.415-7.712-.415-7.712-.415s-6.172 0-7.71.415a2.48 2.48 0 0 0-1.746 1.757C2.11 8.768 2.11 12 2.11 12s0 3.232.412 4.781a2.48 2.48 0 0 0 1.745 1.757c1.54.415 7.711.415 7.711.415s6.173 0 7.712-.415a2.48 2.48 0 0 0 1.745-1.757c.412-1.549.412-4.781.412-4.781s0-3.232-.412-4.781a2.48 2.48 0 0 0-1.745-1.757Z"/><path fill="#FFFFFE" d="M9.96 15.306v-5.87l5.159 2.935-5.159 2.935"/></g></svg>