<svg xmlns="http://www.w3.org/2000/svg" xmlns:xlink="http://www.w3.org/1999/xlink" width="24" height="24"><defs><path id="a" d="M.499.729h4.006v4.006H.499z"/></defs><g fill="#fff" fill-rule="evenodd"><path d="m13.894 6.007-1.239 4.928a6.519 6.519 0 0 0-4.017-.714l.681-2.714H6.44l-.73 2.906-1.456-.365L5.27 6.007h8.624Z"/><g transform="translate(10 .271)"><mask id="b"><use xlink:href="#a"/></mask><path d="M2.502 4.735A2.005 2.005 0 0 1 .499 2.732c0-1.104.899-2.004 2.003-2.004s2.003.9 2.003 2.004a2.005 2.005 0 0 1-2.003 2.003" mask="url(#b)"/></g><path d="m17.638 13.08 3.159 6.946-1.365.621-2.76-6.067h-.913a6.536 6.536 0 0 0-.693-1.421v-.079h2.572zm-8.08-1.924A5.565 5.565 0 0 0 4 16.714a5.564 5.564 0 0 0 5.558 5.557 5.564 5.564 0 0 0 5.558-5.557 5.565 5.565 0 0 0-5.558-5.558"/></g></svg>