<svg xmlns="http://www.w3.org/2000/svg" xml:space="preserve" style="enable-background:new 0 0 24 24" viewBox="0 0 24 24"><path fill="#666" d="M21 11.7c0-2.4-1-4.6-2.6-6.2C16.8 4 14.6 3 12.2 3 9.8 3 7.6 4 6 5.6c-1.6 1.6-2.6 3.8-2.6 6.2 0 .8.1 1.6.3 2.3.2.7.5 1.4.9 2.1l-1.5 4.5-.1.3.4-.1L8 19.4c.6.3 1.3.6 2 .8.7.2 1.4.3 2.2.3 2.4 0 4.6-1 6.2-2.6 1.6-1.6 2.6-3.8 2.6-6.2zM8.1 7.4zm2.1 3.4zm-.1.3c.1.1.3.5.6.9.2.2.4.5.7.7.7.7 1.4.9 1.7 1.1.1 0 .1.1.2.1s.1.1.2.1c0 0 .1 0 .1-.1.1-.1.3-.3.5-.6.1-.1.2-.3.3-.4.1-.2.2-.3.4-.3.1 0 .2 0 .4.1.1 0 .3.1.6.3.4.2.9.4 1.1.5 0 0 .1 0 .1.1.2.1.3.2.4.3.1.1.1.3 0 .6 0 .2-.1.4-.2.7-.1.3-.4.6-.7.8-.4.3-.8.5-1.1.5h-.2c-.3.1-.7.2-2.8-.6-2.3-.9-3.9-3.2-4.2-3.6 0 0 0-.1-.1-.1-.1-.2-1-1.4-1-2.6 0-1.2.6-1.8.9-2.1.1-.1.2-.2.4-.3.2-.2.3-.2.4-.2h.5c.3 0 .5 0 .7.6 0 .1.1.4.3.7.2.5.4 1 .5 1.1 0 .1.1.2.1.3 0 .1 0 .2-.1.3v.1c-.1.1-.1.2-.2.4 0 .1-.1.1-.1.2l-.3.3c-.1-.1-.2 0-.1.1z"/></svg>