<svg xmlns="http://www.w3.org/2000/svg" width="24" height="24"><path fill="#666" fill-rule="evenodd" d="M8.613 8.916 4.487 4.787l1.597-1.6a.634.634 0 0 1 .893-.007l3.215 3.218a.636.636 0 0 1-.004.898l-.704.703-.655.655c-.08.082-.154.168-.216.262Zm3.394 6.724a36.197 36.197 0 0 1-1.952-1.826 36.694 36.694 0 0 1-1.825-1.957c-.477-.55-.57-1.348-.321-2.02L3.673 5.603c-.985 1.013-.86 3.525.22 5.733.464.955 1.066 1.817 1.687 2.637a23.63 23.63 0 0 0 2.018 2.304 22.509 22.509 0 0 0 2.3 2.025c.819.624 1.683 1.22 2.631 1.684 2.211 1.079 4.725 1.197 5.737.21L14.03 15.96c-.672.249-1.47.157-2.023-.319Zm8.677 1.25-3.214-3.215a.64.64 0 0 0-.898.003h-.002l-.706.705-.652.655c-.08.08-.168.151-.261.217l4.125 4.127c.534-.535 1.066-1.066 1.601-1.599a.629.629 0 0 0 .007-.892Z"/></svg>