<svg xmlns="http://www.w3.org/2000/svg" width="24" height="24"><g fill="#373475" fill-rule="evenodd"><path d="M12.002 2.25c-2.648 0-2.98.012-4.02.059-1.039.047-1.748.212-2.368.454a4.775 4.775 0 0 0-1.727 1.124 4.782 4.782 0 0 0-1.124 1.727c-.242.621-.407 1.33-.454 2.367-.047 1.04-.058 1.373-.058 4.021 0 2.648.01 2.98.058 4.02.047 1.039.212 1.748.454 2.368a4.775 4.775 0 0 0 1.124 1.727 4.778 4.778 0 0 0 1.727 1.125c.62.24 1.33.406 2.367.453 1.04.047 1.373.058 4.021.058 2.648 0 2.98-.01 4.02-.058 1.039-.047 1.748-.212 2.368-.453a4.778 4.778 0 0 0 1.727-1.125 4.787 4.787 0 0 0 1.125-1.727c.24-.62.406-1.33.453-2.367.047-1.04.058-1.373.058-4.021 0-2.648-.01-2.98-.058-4.02-.047-1.038-.212-1.747-.453-2.368a4.794 4.794 0 0 0-1.125-1.727 4.775 4.775 0 0 0-1.727-1.124c-.62-.242-1.33-.407-2.367-.454-1.04-.047-1.373-.058-4.021-.058m0 1.757c2.604 0 2.912.01 3.94.056.95.043 1.468.202 1.811.336.455.177.78.388 1.121.73.341.341.553.666.73 1.121.134.343.293.86.336 1.81.046 1.029.056 1.337.056 3.941s-.01 2.912-.056 3.94c-.044.951-.203 1.468-.336 1.811-.177.456-.389.78-.73 1.122a3.03 3.03 0 0 1-1.121.729c-.343.134-.86.293-1.81.336-1.029.046-1.337.057-3.941.057s-2.912-.01-3.94-.057c-.951-.044-1.467-.203-1.811-.336a3.03 3.03 0 0 1-1.121-.729 3.025 3.025 0 0 1-.73-1.122c-.134-.343-.293-.86-.336-1.81-.046-1.029-.056-1.337-.056-3.941s.01-2.912.056-3.94c.043-.95.202-1.467.336-1.811.177-.455.388-.78.73-1.121A3.023 3.023 0 0 1 6.25 4.4c.343-.134.86-.293 1.81-.336 1.029-.046 1.337-.056 3.941-.056"/><path d="M12.002 15.252a3.25 3.25 0 1 1 0-6.5 3.25 3.25 0 0 1 0 6.5m0-8.257a5.008 5.008 0 1 0 0 10.015 5.008 5.008 0 0 0 0-10.015m6.376-.198a1.17 1.17 0 1 1-2.341-.001 1.17 1.17 0 0 1 2.34.001"/></g></svg>