<svg xmlns="http://www.w3.org/2000/svg" width="24" height="24"><path fill="#000" fill-rule="evenodd" d="M21.69 5.892a8.11 8.11 0 0 1-2.322.638 4.058 4.058 0 0 0 1.778-2.234 8.173 8.173 0 0 1-2.564.98 4.04 4.04 0 0 0-6.885 3.685A11.482 11.482 0 0 1 3.371 4.74a4.038 4.038 0 0 0 1.25 5.39 4.015 4.015 0 0 1-1.831-.506v.052a4.044 4.044 0 0 0 3.24 3.961 4.038 4.038 0 0 1-1.824.07A4.038 4.038 0 0 0 7.98 16.51 8.1 8.1 0 0 1 2 18.183 11.427 11.427 0 0 0 8.192 20c7.431 0 11.495-6.156 11.495-11.496 0-.176-.004-.349-.011-.524a8.14 8.14 0 0 0 2.014-2.088"/></svg>