<svg xmlns="http://www.w3.org/2000/svg" width="20" height="19"><path fill="#fff" d="M19.631.653A1.742 1.742 0 0 0 18.245 0c-.359 0-.73.097-1.105.29L1.195 8.442C.062 9.023-.017 9.897.002 10.246c.018.35.192 1.21 1.38 1.67l2.038.787c.387.15.819.226 1.284.226.074 0 .144-.01.217-.013-.028.035-.062.062-.087.099-.38.554-.399 1.305-.055 2.114A1.371 1.371 0 0 0 7.416 19c.86 0 1.115-.404 2.522-2.638.11-.164.354-.545.395-1.03.164.066.319.126.451.178l2.258.897 1.057.423a1.386 1.386 0 0 0 .703.193c1.027 0 1.273-.867 1.405-1.332.065-.23.156-.548.252-.9l3.444-12.339c.26-.932-.06-1.527-.272-1.8ZM8.801 15.659s-1.277 2.029-1.386 2.029c-.003 0-.005-.002-.006-.005-.125-.328-1.388-3.057-1.388-3.057-.232-.546-.19-1.015.21-1.015a.86.86 0 0 1 .316.073l.98.497c.163.109.342.203.539.279l.05.018.092.045c.757.391.998.532.593 1.136Zm9.803-13.552-3.442 12.34a78.017 78.017 0 0 1-.359 1.263c-.007-.02-.568-.245-1.254-.518l-2.26-.898c-.685-.27-1.81-.71-2.5-.968l-.114-.045-.422-.214c-.418-.312-.455-.828-.034-1.265l6.989-7.298c.28-.292.386-.443.325-.443-.048 0-.203.097-.463.296L6.228 11.16c-.386.293-.972.457-1.523.457-.282 0-.556-.044-.79-.134l-2.036-.785c-.688-.266-.714-.756-.06-1.093L17.767 1.45c.184-.094.345-.138.479-.138.343 0 .499.293.36.795Z"/></svg>