<svg xmlns="http://www.w3.org/2000/svg" width="24" height="24"><g fill="#fff" fill-rule="evenodd"><path d="M12.227 2a2.002 2.002 0 1 0 0 4.005 2.002 2.002 0 0 0 0-4.005m0 1a1.002 1.002 0 1 1-.001 2.005 1.002 1.002 0 0 1 0-2.005m4.758 9.501-1.979-.002V7.995c0-.828-.673-1.5-1.5-1.5h-2.508c-.826 0-1.5.672-1.5 1.5v7.506h1V7.995a.5.5 0 0 1 .5-.5h2.508c.275 0 .5.225.5.5L14 13.505l2.986-.004c.274 0 .5.225.5.5v5.507h1v-5.507c0-.827-.674-1.5-1.5-1.5"/><path d="M11.027 11.944v1.135c1.171.697 1.966 1.964 1.966 3.424a4.001 4.001 0 0 1-3.997 3.996A4.001 4.001 0 0 1 5 16.503a4 4 0 0 1 3.996-3.997l.03.002v-1l-.03-.002a4.996 4.996 0 1 0 4.997 4.997 4.992 4.992 0 0 0-2.966-4.56"/></g></svg>