<svg xmlns="http://www.w3.org/2000/svg" width="48" height="48"><path fill="#666" fill-rule="evenodd" d="M29.259 36.966c.672-.864 1.276-1.884 1.79-3.038.55.324 1.07.69 1.57 1.082a13.973 13.973 0 0 1-3.36 1.956ZM16.95 33.928c.514 1.154 1.118 2.174 1.79 3.038a13.96 13.96 0 0 1-3.358-1.956 14.165 14.165 0 0 1 1.568-1.082ZM10.05 25h4.978c.088 2.552.51 4.94 1.196 7.028a16.112 16.112 0 0 0-2.346 1.616A13.932 13.932 0 0 1 10.05 25Zm6.174-9.028c-.686 2.088-1.108 4.476-1.196 7.028H10.05a13.942 13.942 0 0 1 3.828-8.646 15.97 15.97 0 0 0 2.346 1.618Zm2.516-4.938c-.672.864-1.276 1.884-1.79 3.038-.55-.324-1.07-.69-1.568-1.082a13.96 13.96 0 0 1 3.358-1.956Zm12.308 3.038c-.514-1.154-1.118-2.174-1.79-3.038a13.973 13.973 0 0 1 3.36 1.956c-.5.392-1.02.758-1.57 1.082Zm6.9 8.928H32.97c-.088-2.552-.51-4.94-1.194-7.028a16.185 16.185 0 0 0 2.346-1.618A13.94 13.94 0 0 1 37.949 23ZM25 30.052V25h5.972c-.086 2.298-.454 4.378-1.018 6.17A15.901 15.901 0 0 0 25 30.052Zm0 7.764v-5.764c1.496.108 2.924.448 4.254.992-1.136 2.558-2.692 4.25-4.254 4.772Zm-2-5.764v5.764c-1.564-.522-3.118-2.214-4.254-4.772A13.83 13.83 0 0 1 23 32.052ZM23 25v5.052c-1.744.11-3.408.494-4.954 1.118-.566-1.792-.934-3.872-1.018-6.17H23Zm0-7.052V23h-5.972c.084-2.298.452-4.378 1.018-6.17A15.876 15.876 0 0 0 23 17.948Zm0-7.764v5.764a13.83 13.83 0 0 1-4.254-.992c1.136-2.558 2.69-4.25 4.254-4.772Zm2 5.764v-5.764c1.562.522 3.118 2.214 4.254 4.772-1.33.544-2.758.884-4.254.992Zm0 2a15.901 15.901 0 0 0 4.954-1.118c.564 1.792.932 3.872 1.018 6.17H25v-5.052Zm6.776 14.08c.684-2.088 1.106-4.476 1.194-7.028h4.978a13.93 13.93 0 0 1-3.826 8.644 16.332 16.332 0 0 0-2.346-1.616ZM35.599 35C38.32 32.132 40 28.266 40 24s-1.68-8.132-4.402-11c-.46-.486-.94-.95-1.458-1.374A15.928 15.928 0 0 0 25 8.05V8h-2v.05a15.917 15.917 0 0 0-9.14 3.576h-.002c-.516.424-.998.888-1.458 1.374C9.68 15.868 8 19.734 8 24s1.68 8.132 4.4 11c.46.486.942.95 1.458 1.374h.002A15.922 15.922 0 0 0 24 40a15.93 15.93 0 0 0 10.14-3.626c.518-.424.998-.888 1.458-1.374Z"/></svg>