<svg xmlns="http://www.w3.org/2000/svg" xmlns:xlink="http://www.w3.org/1999/xlink" width="48" height="48"><defs><path id="a" d="M.001.563H23.95v27.489H.001z"/></defs><g fill="none" fill-rule="evenodd"><path fill="#666" d="M23.115 10.149h1.72V5.001h-1.72zM31.094 10.466l1.214 1.216 3.641-3.64-1.215-1.217zM12 8.042l3.639 3.64 1.218-1.216-3.642-3.641z"/><g transform="translate(12 12.088)"><mask id="b" fill="#fff"><use xlink:href="#a"/></mask><path fill="#666" d="M1.715 26.338v-2.5a.86.86 0 0 1 .849-.857l18.816-.014a.86.86 0 0 1 .857.858v2.513H1.715Zm10.23-24.06c4.24 0 7.693 3.442 7.713 7.678l-.013 11.299-15.403.008L4.23 9.992c0-4.255 3.46-7.714 7.714-7.714Zm9.416 18.975.012-11.261c0-5.198-4.231-9.429-9.429-9.429S2.516 4.794 2.53 10.121v11.15a2.575 2.575 0 0 0-2.528 2.567v4.214h23.95v-4.227a2.575 2.575 0 0 0-2.571-2.572h-.02Z" mask="url(#b)"/></g></g></svg>