<svg xmlns="http://www.w3.org/2000/svg" width="24" height="24"><g fill="#fff" fill-rule="evenodd"><path d="M12.911 22.32h1v-2.5h-1zM9.911 22.32h1v-2.5h-1z"/><path d="M11.884 8.994a1.997 1.997 0 1 0 .001 3.993 1.997 1.997 0 0 0 0-3.993m0 1a.998.998 0 0 1 0 1.994.997.997 0 0 1 0-1.994M9.91 20.038h4v-5.977h-4v5.977zm1-1h2v-3.977h-2v3.977z"/><path d="M13.933 14.057h-.588l-.425.277 3.066 4.684.836-.548zM9.889 14.057h.588l.425.277L8 19l-1-.53zM4.508 4.011a2.491 2.491 0 1 0 0 4.983 2.492 2.492 0 1 0 0-4.983m0 1C5.33 5.011 6 5.681 6 6.503s-.67 1.491-1.492 1.491a1.493 1.493 0 0 1-1.492-1.49c0-.824.669-1.493 1.492-1.493m14.984-2.028a2.491 2.491 0 1 0 0 4.983 2.492 2.492 0 1 0 0-4.983m0 1c.822 0 1.492.669 1.492 1.492a1.493 1.493 0 0 1-2.984 0c0-.823.669-1.492 1.492-1.492"/><path fill-rule="nonzero" d="m4.508 9.971.192.005c1.844.101 3.308 1.641 3.308 3.526L8 19.003h-.998c.004-.055.006-.11.006-.166v-5.335a2.513 2.513 0 0 0-2.336-2.517l-.164-.005-.165.005a2.513 2.513 0 0 0-2.335 2.517v5.335c0 .056.002.111.005.167H1.012a3.622 3.622 0 0 1-.004-.167v-5.335c0-1.885 1.464-3.425 3.308-3.526l.192-.005zM20.5 9.075c1.38 0 2.5 1.146 2.5 2.56v7.385h-1v-7.386c0-.848-.672-1.535-1.5-1.535h-2c-.828 0-1.5.687-1.5 1.535v7.386h-1v-7.386c0-1.413 1.12-2.559 2.5-2.559h2z"/></g></svg>