<svg xmlns="http://www.w3.org/2000/svg" width="48" height="48"><g fill-rule="evenodd"><path d="M24 38c-7.72 0-14-6.282-14-14 0-7.72 6.28-14 14-14 7.718 0 14 6.28 14 14 0 7.718-6.282 14-14 14m0-30C15.178 8 8 15.178 8 24s7.178 16 16 16 16-7.178 16-16S32.822 8 24 8"/><path d="M24.236 14.272c-1.202 0-2.224.362-3.038 1.076-.796.698-1.308 1.622-1.518 2.742l1.966.37c.128-.68.412-1.206.872-1.608.888-.784 2.558-.79 3.4.022.416.4.61.898.61 1.566 0 .388-.072.712-.22.992-.188.352-.422.69-.702 1.01a8.584 8.584 0 0 1-.972.952c-.424.356-.818.726-1.182 1.114-.39.412-.726.866-1.002 1.348a3.733 3.733 0 0 0-.48 1.858V28h2v-2.286c0-.324.072-.608.22-.87.196-.342.436-.668.716-.966.314-.33.652-.648 1.012-.952.434-.364.834-.754 1.196-1.17.378-.434.702-.9.958-1.386.304-.568.456-1.218.456-1.93 0-1.214-.412-2.226-1.22-3.004-.8-.772-1.832-1.164-3.072-1.164M23 30.5a1.5 1.5 0 1 0 .001 3.001A1.5 1.5 0 0 0 23 30.5"/></g></svg>