<svg xmlns="http://www.w3.org/2000/svg" xmlns:xlink="http://www.w3.org/1999/xlink" width="48" height="48"><defs><path id="a" d="M0 .002h30.755v28.986H0z"/><path id="c" d="M0 29.698h30.755V.712H0z"/></defs><g fill="none" fill-rule="evenodd" transform="translate(9 10)"><g transform="translate(0 .71)"><mask id="b" fill="#fff"><use xlink:href="#a"/></mask><path fill="#000" d="M1.812 12.467v10.872c0 2.116 1.667 3.837 3.714 3.837 2.047 0 3.714-1.72 3.714-3.837l-.083-10.961-7.345.089Zm7.763 14.71h16.116c2.234 0 3.252-1.99 3.252-3.838V1.813H10.887l.165 21.519a5.71 5.71 0 0 1-1.477 3.844Zm16.116 1.811-20.372-.004C2.368 28.874 0 26.384 0 23.34V10.677l9.142-.111L9.061.002h21.694v23.337c0 3.274-2.13 5.65-5.064 5.65Z" mask="url(#b)"/></g><mask id="d" fill="#fff"><use xlink:href="#c"/></mask><path fill="#000" d="M12.735 7.988H27.22V6.176H12.735zM12.735 11.628H27.22V9.816H12.735zM12.735 15.271H27.22v-1.812H12.735zM12.735 18.913h10.829v-1.812H12.735z" mask="url(#d)"/></g></svg>