<svg xmlns="http://www.w3.org/2000/svg" width="24" height="24"><g fill="#FFF" fill-rule="evenodd"><path d="M15.017 3.51a2.466 2.466 0 1 0 0 4.933 2.467 2.467 0 1 0 0-4.933m0 .99c.814 0 1.477.662 1.477 1.477a1.478 1.478 0 0 1-2.954 0c0-.815.662-1.477 1.477-1.477"/><path fill-rule="nonzero" d="M8.911 9.798c2.028.11 3.639 1.804 3.639 3.878l-.009 6.05-1.097.001a2.84 2.84 0 0 0 .006-.183v-5.868a2.764 2.764 0 0 0-2.57-2.769l-.18-.005-.18.005a2.719 2.719 0 0 0-1.643.692 2.782 2.782 0 0 0-.927 2.077v5.868c0 .061.002.123.006.183H4.854a3.984 3.984 0 0 1-.004-.183v-5.868a3.89 3.89 0 0 1 1.542-3.11 3.81 3.81 0 0 1 2.097-.768h.422zm3.316.862a3.816 3.816 0 0 1 2.325-.956h.422c2.028.11 3.64 1.804 3.64 3.878l-.01 6.051h-1.097c.004-.06.006-.121.006-.183v-5.868a2.764 2.764 0 0 0-2.569-2.768l-.18-.006-.182.006a2.832 2.832 0 0 0-1.67.715l-.685-.87z"/><path d="M8.57 3.51a2.466 2.466 0 1 0 0 4.933 2.467 2.467 0 1 0 0-4.933m0 .99c.813 0 1.476.662 1.476 1.477a1.478 1.478 0 0 1-2.954 0c0-.815.662-1.477 1.477-1.477"/></g></svg>