<svg xmlns="http://www.w3.org/2000/svg" width="24" height="24"><g fill="#fff" fill-rule="evenodd"><path d="M5.808 8.179c0 2.984 4.739 10.7 6.191 12.995 1.454-2.295 6.193-10.011 6.193-12.995A6.2 6.2 0 0 0 12 1.986a6.2 6.2 0 0 0-6.192 6.193Zm6.191 14.835-.418-.639c-.276-.422-6.773-10.394-6.773-14.196 0-3.966 3.226-7.193 7.191-7.193 3.967 0 7.193 3.227 7.193 7.193 0 3.802-6.498 13.774-6.774 14.196l-.418.639Z"/><path d="M12 4.703a2.925 2.925 0 0 0-2.921 2.92 2.925 2.925 0 0 0 2.92 2.922 2.925 2.925 0 0 0 2.921-2.921A2.925 2.925 0 0 0 12 4.703m0 6.842a3.926 3.926 0 0 1-3.921-3.921 3.926 3.926 0 0 1 3.92-3.921 3.926 3.926 0 0 1 3.921 3.92A3.926 3.926 0 0 1 12 11.546"/></g></svg>