<svg xmlns="http://www.w3.org/2000/svg" width="94" height="95" viewBox="0 0 94 95">
  <defs>
    <filter id="a" width="127.9%" height="127.6%" x="-14%" y="-13.8%" filterUnits="objectBoundingBox">
      <feOffset dy="2" in="SourceAlpha" result="shadowOffsetOuter1"/>
      <feGaussianBlur stdDeviation="2" in="shadowOffsetOuter1" result="shadowBlurOuter1"/>
      <feColorMatrix values="0 0 0 0 0 0 0 0 0 0 0 0 0 0 0 0 0 0 0.5 0" in="shadowBlurOuter1" result="shadowMatrixOuter1"/>
      <feMerge>
        <feMergeNode in="shadowMatrixOuter1"/>
        <feMergeNode in="SourceGraphic"/>
      </feMerge>
    </filter>
  </defs>
  <g fill="none" fill-rule="evenodd" transform="translate(4.105 2.5)">
    <g transform="translate(0 .315)" filter="url(#a)">
      <circle cx="42.688" cy="42.688" r="42.688" fill="#0E64AC" fill-opacity=".9"/>
      <circle cx="42.688" cy="42.688" r="33.066" fill="#F5F9FF"/>
    </g>
    <path fill="#434343" fill-rule="nonzero" d="M24.5590006,38.716 L29.4230006,38.716 L29.4230006,36.94 L26.6550006,36.94 L26.6550006,27.932 L24.5590006,27.932 L24.5590006,38.716 Z M32.1910006,35.548 L35.9030006,35.548 L35.9304354,35.3848834 C35.9573216,35.1762469 35.9670006,34.8955556 35.9670006,34.46 C35.9670006,32.092 34.9910006,30.764 33.3110006,30.764 C31.5350006,30.764 30.1750006,32.332 30.1750006,34.956 C30.1750006,37.404 31.3430006,38.812 33.4710006,38.812 C34.2710006,38.812 35.0870006,38.668 35.6310006,38.46 L35.3430006,36.956 C34.9750006,37.084 34.4470006,37.212 33.8550006,37.212 C32.9270006,37.212 32.2230006,36.764 32.1910006,35.548 Z M32.2070006,34.076 C32.2230006,33.292 32.4950006,32.284 33.1830006,32.284 C33.8070006,32.284 34.0630006,33.068 34.0630006,34.076 L32.2070006,34.076 Z M39.2470006,38.716 L39.2470006,30.892 L37.1510006,30.892 L37.1510006,38.716 L39.2470006,38.716 Z M38.1750006,27.676 C37.5990006,27.676 37.0870006,28.108 37.1030006,28.812 C37.0870006,29.484 37.5670006,29.948 38.1430006,29.948 C38.7830006,29.948 39.2630006,29.484 39.2470006,28.812 C39.2470006,28.108 38.7830006,27.676 38.1750006,27.676 Z M44.8790006,36.94 C44.6550006,37.052 44.3990006,37.1 44.0950006,37.1 C43.1190006,37.1 42.5270006,36.236 42.5270006,34.812 C42.5270006,33.452 43.1190006,32.492 44.1270006,32.492 C44.4790006,32.492 44.7350006,32.572 44.9110006,32.636 L45.1830006,30.988 C44.9750006,30.892 44.5270006,30.78 44.0310006,30.78 C41.8710006,30.78 40.4470006,32.46 40.4470006,34.876 C40.4470006,37.436 41.7430006,38.812 43.7270006,38.812 C44.3190006,38.812 44.8470006,38.684 45.0550006,38.588 L44.8790006,36.94 Z M45.8870006,38.716 L47.9830006,38.716 L47.9830006,33.852 C47.9830006,33.676 48.0310006,33.388 48.0630006,33.26 C48.2230006,32.732 48.5270006,32.524 48.8790006,32.524 C49.5030006,32.524 49.6470006,33.196 49.6470006,33.964 L49.6470006,38.716 L51.7430006,38.716 L51.7430006,33.964 C51.7430006,31.98 51.1830006,30.764 49.7430006,30.764 C49.3590006,30.764 48.9910006,30.86 48.6870006,31.036 C48.4310006,31.212 48.1910006,31.436 48.0150006,31.708 L47.9830006,31.708 L47.9830006,27.644 L45.8870006,27.644 L45.8870006,38.716 Z M53.5830006,29.276 L53.5830006,30.892 L52.6550006,30.892 L52.6550006,32.38 L53.5830006,32.38 L53.5830006,36.076 C53.5830006,37.308 53.8230006,37.9 54.2550006,38.316 C54.6230006,38.668 55.1510006,38.812 55.7590006,38.812 C56.3190006,38.812 56.7510006,38.748 57.0390006,38.668 L57.0230006,37.036 C56.8470006,37.068 56.6870006,37.084 56.4790006,37.084 C56.0630006,37.084 55.6790006,36.86 55.6790006,35.948 L55.6790006,32.38 L57.2150006,32.38 L57.2150006,30.892 L55.6790006,30.892 L55.6790006,28.78 L53.5830006,29.276 Z M59.9350006,35.548 L63.6470006,35.548 L63.6744354,35.3848834 C63.7013216,35.1762469 63.7110006,34.8955556 63.7110006,34.46 C63.7110006,32.092 62.7350006,30.764 61.0550006,30.764 C59.2790006,30.764 57.9190006,32.332 57.9190006,34.956 C57.9190006,37.404 59.0870006,38.812 61.2150006,38.812 C62.0150006,38.812 62.8310006,38.668 63.3750006,38.46 L63.0870006,36.956 C62.7190006,37.084 62.1910006,37.212 61.5990006,37.212 C60.6710006,37.212 59.9670006,36.764 59.9350006,35.548 Z M59.9510006,34.076 C59.9670006,33.292 60.2390006,32.284 60.9270006,32.284 C61.5510006,32.284 61.8070006,33.068 61.8070006,34.076 L59.9510006,34.076 Z M22.2230006,54.38 C22.5750006,54.588 23.4230006,54.812 24.2870006,54.812 C26.3990006,54.812 27.8550006,53.516 27.8550006,51.548 C27.8550006,50.412 27.3270006,49.324 25.9030006,48.46 C24.7350006,47.756 24.4150006,47.42 24.4150006,46.78 C24.4150006,46.204 24.8470006,45.66 25.7430006,45.66 C26.3510006,45.66 26.8150006,45.836 27.1190006,46.028 L27.4550006,44.22 C27.1350006,44.028 26.4630006,43.836 25.7590006,43.836 C23.5030006,43.836 22.3510006,45.276 22.3510006,47.004 C22.3510006,47.9286316 22.8536045,48.9968643 24.1581072,49.8685902 L24.3830006,50.012 C25.2950006,50.604 25.7750006,50.988 25.7750006,51.772 C25.7750006,52.476 25.2950006,52.988 24.3030006,52.988 C23.6950006,52.988 22.9590006,52.812 22.5270006,52.572 L22.2230006,54.38 Z M28.8630006,57.788 L30.9590006,57.788 L30.9590006,54.076 L30.9910006,54.076 C31.2150006,54.444 31.6470006,54.844 32.2870006,54.844 C33.5990006,54.844 34.8310006,53.58 34.8310006,50.796 C34.8310006,48.62 34.1270006,46.764 32.3990006,46.764 C31.6790006,46.764 31.0870006,47.148 30.7670006,47.788 L30.7350006,47.788 L30.6230006,46.892 L28.7990006,46.892 L28.8376245,47.8798484 C28.8525516,48.3401633 28.8630006,48.8325714 28.8630006,49.372 L28.8630006,57.788 Z M30.9590006,49.756 C30.9590006,49.564 30.9750006,49.356 31.0550006,49.196 C31.1350006,48.828 31.4390006,48.524 31.7590006,48.524 C32.3830006,48.524 32.7350006,49.324 32.7350006,50.812 C32.7350006,52.044 32.4790006,53.132 31.7430006,53.132 C31.5270006,53.132 31.2850806,53.02832 31.1222166,52.657664 L31.0710006,52.524 C30.9910006,52.364 30.9590006,52.124 30.9590006,51.852 L30.9590006,49.756 Z M36.0150006,54.716 L38.1270006,54.716 L38.1270006,50.748 C38.1270006,50.412 38.1590006,50.14 38.2070006,49.964 C38.4470006,49.148 39.0390006,48.844 39.4870006,48.844 C39.6630006,48.844 39.8070006,48.844 39.9350006,48.876 L39.9350006,46.796 C39.8070006,46.764 39.6950006,46.764 39.4870006,46.764 C38.9110006,46.764 38.2870006,47.196 37.9350006,48.028 L37.8870006,48.028 L37.7750006,46.892 L35.9510006,46.892 L35.9873526,47.805152 C36.0034806,48.28016 36.0150006,48.7736 36.0150006,49.244 L36.0150006,54.716 Z M46.1270006,54.716 C46.0310006,54.188 45.9990006,53.548 45.9990006,52.924 L45.9990006,50.012 L45.9941061,49.7144883 C45.9431881,48.2265 45.4660006,46.764 43.2310006,46.764 C42.1430006,46.764 41.2310006,47.1 40.7990006,47.356 L41.1830006,48.764 C41.6470006,48.476 42.1590006,48.316 42.7830006,48.316 C43.5190006,48.316 43.8870006,48.764 43.8870006,49.372 L43.8870006,49.548 C42.1110006,49.564 40.3030006,50.412 40.3030006,52.46 C40.3030006,53.852 41.1830006,54.844 42.3670006,54.844 C43.0550006,54.844 43.6630006,54.556 44.0950006,53.948 L44.1270006,53.948 L44.2390006,54.716 L46.1270006,54.716 Z M43.9510006,52.268 C43.9510006,52.396 43.9350006,52.524 43.9030006,52.636 C43.7590006,53.1 43.3750006,53.308 43.0390006,53.308 C42.7190006,53.308 42.2870006,53.02 42.2870006,52.236 C42.2870006,51.148 43.2470006,50.924 43.9510006,50.908 L43.9510006,52.268 Z M51.6470006,52.94 C51.4230006,53.052 51.1670006,53.1 50.8630006,53.1 C49.8870006,53.1 49.2950006,52.236 49.2950006,50.812 C49.2950006,49.452 49.8870006,48.492 50.8950006,48.492 C51.2470006,48.492 51.5030006,48.572 51.6790006,48.636 L51.9510006,46.988 C51.7430006,46.892 51.2950006,46.78 50.7990006,46.78 C48.6390006,46.78 47.2150006,48.46 47.2150006,50.876 C47.2150006,53.436 48.5110006,54.812 50.4950006,54.812 C51.0870006,54.812 51.6150006,54.684 51.8230006,54.588 L51.6470006,52.94 Z M52.6550006,54.716 L54.7510006,54.716 L54.7510006,49.852 C54.7510006,49.676 54.7990006,49.388 54.8310006,49.26 C54.9910006,48.732 55.2950006,48.524 55.6470006,48.524 C56.2710006,48.524 56.4150006,49.196 56.4150006,49.964 L56.4150006,54.716 L58.5110006,54.716 L58.5110006,49.964 C58.5110006,47.98 57.9510006,46.764 56.5110006,46.764 C56.1270006,46.764 55.7590006,46.86 55.4550006,47.036 C55.1990006,47.212 54.9590006,47.436 54.7830006,47.708 L54.7510006,47.708 L54.7510006,43.644 L52.6550006,43.644 L52.6550006,54.716 Z M61.7270006,51.548 L65.4390006,51.548 L65.4664354,51.3848834 C65.4933216,51.1762469 65.5030006,50.8955556 65.5030006,50.46 C65.5030006,48.092 64.5270006,46.764 62.8470006,46.764 C61.0710006,46.764 59.7110006,48.332 59.7110006,50.956 C59.7110006,53.404 60.8790006,54.812 63.0070006,54.812 C63.8070006,54.812 64.6230006,54.668 65.1670006,54.46 L64.8790006,52.956 C64.5110006,53.084 63.9830006,53.212 63.3910006,53.212 C62.4630006,53.212 61.7590006,52.764 61.7270006,51.548 Z M61.7430006,50.076 C61.7590006,49.292 62.0310006,48.284 62.7190006,48.284 C63.3430006,48.284 63.5990006,49.068 63.5990006,50.076 L61.7430006,50.076 Z"/>
  </g>
</svg>
