<?xml version="1.0" encoding="UTF-8"?>
<svg width="188px" height="188px" viewBox="0 0 188 188" version="1.1" xmlns="http://www.w3.org/2000/svg" xmlns:xlink="http://www.w3.org/1999/xlink">
    <title>Alpha-Siegel_var2</title>
    <defs>
        <filter x="-4.6%" y="-4.6%" width="109.1%" height="109.1%" filterUnits="objectBoundingBox" id="filter-1">
            <feOffset dx="0" dy="2" in="SourceAlpha" result="shadowOffsetOuter1"></feOffset>
            <feGaussianBlur stdDeviation="1" in="shadowOffsetOuter1" result="shadowBlurOuter1"></feGaussianBlur>
            <feColorMatrix values="0 0 0 0 0   0 0 0 0 0   0 0 0 0 0  0 0 0 0.5 0" type="matrix" in="shadowBlurOuter1" result="shadowMatrixOuter1"></feColorMatrix>
            <feMerge>
                <feMergeNode in="shadowMatrixOuter1"></feMergeNode>
                <feMergeNode in="SourceGraphic"></feMergeNode>
            </feMerge>
        </filter>
        <polygon id="path-2" points="0 0 175.688 0 175.688 175.748 0 175.748"></polygon>
    </defs>
    <g id="Alle-Seiten" stroke="none" stroke-width="1" fill="none" fill-rule="evenodd">
        <g id="Alpha-Siegel_var2" filter="url(#filter-1)" transform="translate(6.000000, 6.000000)">
            <g id="Group-3">
                <mask id="mask-3" fill="white">
                    <use xlink:href="#path-2"></use>
                </mask>
                <g id="Clip-2"></g>
                <path d="M87.814,175.748 C136.346,175.748 175.688,136.405 175.688,87.874 C175.688,39.342 136.346,0 87.814,0 C39.283,0 -0.06,39.342 -0.06,87.874 C-0.06,136.405 39.283,175.748 87.814,175.748" id="Fill-1" fill="#2F773C" mask="url(#mask-3)"></path>
            </g>
            <path d="M87.814,151.653 C123.039,151.653 151.594,123.098 151.594,87.874 C151.594,52.649 123.039,24.094 87.814,24.094 C52.59,24.094 24.035,52.649 24.035,87.874 C24.035,123.098 52.59,151.653 87.814,151.653" id="Fill-4" fill="#FFFFFE"></path>
            <path d="M87.814,150.236 C122.256,150.236 150.177,122.315 150.177,87.874 C150.177,53.432 122.256,25.511 87.814,25.511 C53.373,25.511 25.452,53.432 25.452,87.874 C25.452,122.315 53.373,150.236 87.814,150.236" id="Fill-5" fill="#76BB53"></path>
            <path d="M87.814,25.511 C53.373,25.511 25.452,53.432 25.452,87.874 C25.452,122.315 53.373,150.236 87.814,150.236 L87.814,25.511" id="Fill-6" fill="#AAA8A4"></path>
            <path d="M105.536,84.388 C113.723,84.388 120.359,77.752 120.359,69.565 C120.359,61.379 113.723,54.742 105.536,54.742 C97.35,54.742 90.713,61.379 90.713,69.565 C90.713,77.752 97.35,84.388 105.536,84.388" id="Fill-7" fill="#FFFFFE"></path>
            <path d="M100.884,69.922 C101.794,69.922 102.532,69.184 102.532,68.274 C102.532,67.364 101.794,66.626 100.884,66.626 C99.974,66.626 99.236,67.364 99.236,68.274 C99.236,69.184 99.974,69.922 100.884,69.922" id="Fill-8" fill="#76BB53"></path>
            <path d="M110.189,69.922 C111.099,69.922 111.837,69.184 111.837,68.274 C111.837,67.364 111.099,66.626 110.189,66.626 C109.278,66.626 108.541,67.364 108.541,68.274 C108.541,69.184 109.278,69.922 110.189,69.922" id="Fill-9" fill="#76BB53"></path>
            <path d="M105.542,79.082 C102.672,79.082 100.044,77.76 98.513,75.546 C98.277,75.205 98.363,74.738 98.704,74.503 C99.042,74.266 99.511,74.351 99.747,74.693 C100.997,76.502 103.164,77.582 105.542,77.582 C107.912,77.582 110.074,76.508 111.327,74.709 C111.562,74.37 112.03,74.285 112.371,74.522 C112.711,74.759 112.795,75.227 112.558,75.567 C111.025,77.768 108.402,79.082 105.542,79.082" id="Fill-10" fill="#76BB53"></path>
            <path d="M138.017,84.388 C146.203,84.388 152.84,77.752 152.84,69.565 C152.84,61.379 146.203,54.742 138.017,54.742 C129.83,54.742 123.194,61.379 123.194,69.565 C123.194,77.752 129.83,84.388 138.017,84.388" id="Fill-11" fill="#FFFFFE"></path>
            <path d="M129.002,72.496 C129.814,72.278 130.297,71.443 130.079,70.63 C129.861,69.817 129.026,69.335 128.213,69.553 C127.401,69.771 126.919,70.606 127.136,71.418 C127.354,72.231 128.189,72.713 129.002,72.496" id="Fill-12" fill="#2F773C"></path>
            <path d="M136.927,70.475 C137.74,70.257 138.222,69.422 138.004,68.609 C137.787,67.796 136.951,67.314 136.139,67.532 C135.326,67.75 134.844,68.585 135.062,69.397 C135.279,70.21 136.115,70.692 136.927,70.475" id="Fill-13" fill="#2F773C"></path>
            <path d="M132.994,79.795 C131.608,79.795 130.624,79.481 130.6,79.473 C130.208,79.342 129.994,78.918 130.125,78.525 C130.255,78.132 130.682,77.915 131.071,78.049 C131.272,78.112 135.815,79.523 138.542,75.173 C138.762,74.824 139.224,74.717 139.576,74.936 C139.927,75.156 140.033,75.619 139.813,75.97 C137.826,79.141 134.992,79.795 132.994,79.795" id="Fill-14" fill="#2F773C"></path>
            <path d="M67.322,84.388 C75.509,84.388 82.145,77.752 82.145,69.565 C82.145,61.379 75.509,54.742 67.322,54.742 C59.136,54.742 52.499,61.379 52.499,69.565 C52.499,77.752 59.136,84.388 67.322,84.388" id="Fill-15" fill="#FFFFFE"></path>
            <path d="M62.623,70.044 C61.485,70.044 60.456,69.597 59.871,68.848 C59.616,68.521 59.674,68.05 60.001,67.795 C60.328,67.54 60.799,67.598 61.054,67.925 C61.347,68.301 61.964,68.544 62.623,68.544 C63.26,68.544 63.867,68.311 64.168,67.952 C64.435,67.634 64.906,67.592 65.225,67.858 C65.542,68.124 65.584,68.597 65.318,68.914 C64.726,69.622 63.718,70.044 62.623,70.044" id="Fill-16" fill="#898985"></path>
            <path d="M72.061,70.044 C70.923,70.044 69.894,69.597 69.31,68.848 C69.055,68.521 69.113,68.05 69.44,67.795 C69.767,67.54 70.238,67.598 70.492,67.925 C70.786,68.301 71.401,68.544 72.061,68.544 C72.708,68.544 73.3,68.317 73.607,67.951 C73.873,67.634 74.345,67.593 74.664,67.858 C74.981,68.124 75.023,68.597 74.756,68.915 C74.164,69.622 73.156,70.044 72.061,70.044" id="Fill-17" fill="#898985"></path>
            <path d="M70.597,77.952 C69.475,77.952 68.207,77.648 66.902,76.801 C63.83,74.809 61.459,76.672 61.36,76.753 C61.038,77.013 60.566,76.964 60.306,76.646 C60.045,76.327 60.089,75.857 60.407,75.594 C61.532,74.665 64.507,73.458 67.719,75.543 C70.791,77.536 73.186,75.67 73.287,75.589 C73.609,75.332 74.08,75.381 74.34,75.702 C74.6,76.022 74.554,76.491 74.235,76.752 C73.562,77.303 72.236,77.952 70.597,77.952" id="Fill-18" fill="#898985"></path>
            <path d="M46.227,95.65 C49.722,96.33 81.376,102.622 84.442,103.176 C79.989,102.144 49.329,91.978 49.329,91.978 C46.227,91.448 46.227,94.289 46.227,94.289 L46.227,95.65" id="Fill-19" fill="#FFFFFE"></path>
            <path d="M129.476,95.65 C125.981,96.33 94.327,102.622 91.262,103.176 C95.714,102.144 126.374,91.978 126.374,91.978 C129.476,91.449 129.476,94.289 129.476,94.289 L129.476,95.65" id="Fill-20" fill="#FFFFFE"></path>
            <path d="M91.078,157.775 L129.727,150.166 C129.727,150.166 133.097,149.515 133.097,146.024 L133.097,99.963 C133.097,99.963 133.097,96.472 129.727,97.123 C129.727,97.123 93.561,104.312 91.078,104.733 C88.595,105.152 87.145,105.19 84.551,104.733 C81.957,104.275 45.902,97.123 45.902,97.123 C42.532,96.472 42.532,99.963 42.532,99.963 L42.532,146.024 C42.532,149.515 45.902,150.166 45.902,150.166 L84.551,157.775 C86.858,158.221 88.771,158.221 91.078,157.775" id="Fill-21" fill="#FFFFFE"></path>
            <path d="M63.427,139.348 L67.244,139.348 L67.244,135.666 L63.427,135.666 L63.427,139.348 Z M71.905,121.547 C71.905,117.561 68.831,115.096 65.149,115.096 C61.332,115.096 58.428,117.764 58.428,121.581 L61.873,121.581 C61.873,119.757 63.055,118.169 65.149,118.169 C67.109,118.169 68.46,119.656 68.46,121.547 C68.46,122.493 68.021,123.304 67.413,124.114 L64.778,127.661 C63.967,128.742 63.629,129.62 63.629,131.005 L63.629,132.187 L67.075,132.187 L67.075,131.174 C67.075,130.634 67.311,129.857 67.683,129.35 L70.284,125.702 C71.196,124.452 71.905,123.169 71.905,121.547 L71.905,121.547 Z" id="Fill-22" fill="#898985"></path>
            <path d="M108.477,139.247 L112.26,139.247 L112.26,135.565 L108.477,135.565 L108.477,139.247 Z M112.463,115.197 L108.275,115.197 L109.018,132.086 L111.72,132.086 L112.463,115.197 L112.463,115.197 Z" id="Fill-23" fill="#2F773C"></path>
            <path d="M45.146,26.662 L41.225,23.805 L41.201,23.822 L42.638,28.49 L45.146,26.662 Z M42.118,33.936 L38.901,22.883 L41.13,21.257 L50.55,27.787 L48.66,29.165 L46.678,27.771 L43.213,30.298 L43.911,32.628 L42.118,33.936 L42.118,33.936 Z" id="Fill-24" fill="#FFFFFE"></path>
            <polyline id="Fill-25" fill="#FFFFFE" points="51.386 27.422 46.208 17.914 48.25 16.803 52.567 24.73 56.689 22.485 57.549 24.065 51.386 27.422"></polyline>
            <path d="M58.394,17.257 C59.571,16.725 61.299,16.523 60.59,14.738 C59.881,12.953 58.486,13.991 57.264,14.412 L58.394,17.257 Z M58.437,23.666 L54.438,13.597 L57.548,12.362 C59.785,11.489 61.878,11.271 62.892,13.824 C63.617,15.651 62.853,17.343 60.635,18.305 L59.059,18.931 L60.599,22.808 L58.437,23.666 L58.437,23.666 Z" id="Fill-26" fill="#FFFFFE"></path>
            <polyline id="Fill-27" fill="#FFFFFE" points="66.708 20.444 64.13 9.923 66.389 9.37 67.406 13.523 71.385 12.548 70.367 8.396 72.655 7.834 75.233 18.356 72.974 18.909 71.842 14.29 67.835 15.272 68.967 19.891 66.708 20.444"></polyline>
            <path d="M82.38,13.461 L80.479,8.996 L80.449,8.999 L79.289,13.746 L82.38,13.461 Z M76.048,18.156 L78.956,7.012 L81.704,6.759 L86.445,17.2 L84.115,17.415 L83.128,15.2 L78.855,15.593 L78.259,17.953 L76.048,18.156 L76.048,18.156 Z" id="Fill-28" fill="#FFFFFE"></path>
            <polyline id="Fill-29" fill="#FFFFFE" points="87.067 14.232 87.094 12.552 90.814 12.612 90.787 14.292 87.067 14.232"></polyline>
            <path d="M98.794,10.379 C98.831,9.281 98.313,8.678 97.196,8.547 C96.347,8.448 95.431,8.794 95.321,9.732 C95.185,10.894 96.212,11.149 97.11,11.48 C98.699,12.089 101.058,12.833 100.805,14.992 C100.494,17.658 98.063,18.31 95.754,18.04 C93.297,17.753 91.667,16.596 92.057,13.894 L94.411,14.169 C94.182,15.351 94.773,16.235 95.979,16.376 C96.903,16.483 98.157,16.343 98.291,15.196 C98.439,13.931 96.916,13.662 96.02,13.316 C94.559,12.768 92.584,11.843 92.806,9.937 C93.093,7.479 95.484,6.656 97.688,6.914 C99.773,7.157 101.264,8.479 101.012,10.638 L98.794,10.379" id="Fill-30" fill="#FFFFFE"></path>
            <polyline id="Fill-31" fill="#FFFFFE" points="103.972 19.223 101.7 18.731 103.991 8.144 106.264 8.636 103.972 19.223"></polyline>
            <polyline id="Fill-32" fill="#FFFFFE" points="108.758 9.175 115.686 11.361 115.144 13.078 110.435 11.592 109.671 14.011 114.081 15.402 113.539 17.12 109.129 15.728 108.258 18.491 113.125 20.027 112.583 21.744 105.498 19.509 108.758 9.175"></polyline>
            <path d="M120.378,20.876 L121.16,19.253 L125.162,21.182 L122.809,26.062 C121.982,25.947 121.2,25.737 120.411,25.439 C119.918,25.252 119.405,25.072 118.121,24.453 C116.187,23.521 114.118,21.041 115.988,17.161 C117.857,13.281 121.087,13.354 123.02,14.286 C125.846,15.648 127.179,17.34 126.072,19.672 L123.841,18.597 C124.441,17.353 123.832,16.543 122.682,15.989 C120.831,15.097 119.28,16.032 118.218,18.236 C117.156,20.439 117.39,22.235 119.243,23.127 C120.081,23.531 120.687,23.69 121.294,23.849 L122.284,21.794 L120.378,20.876" id="Fill-33" fill="#FFFFFE"></path>
            <polyline id="Fill-34" fill="#FFFFFE" points="130.033 18.251 136.059 22.298 135.055 23.792 130.959 21.041 129.545 23.145 133.38 25.721 132.378 27.215 128.543 24.64 126.928 27.043 131.162 29.886 130.159 31.38 123.995 27.241 130.033 18.251"></polyline>
            <polyline id="Fill-35" fill="#FFFFFE" points="131.416 32.381 138.477 24.174 140.24 25.69 134.351 32.533 137.91 35.595 136.736 36.959 131.416 32.381"></polyline>
        </g>
    </g>
</svg>