<svg xmlns="http://www.w3.org/2000/svg" width="166" height="64" viewBox="0 0 166 64" xmlns:xlink="http://www.w3.org/1999/xlink">
  <defs>
    <path id="a" d="M96,22.0264026 L97.0072307,22.0264026 L97.0072307,28.8594059 L100.772957,28.8594059 L100.772957,29.7834983 L96,29.7834983 L96,22.0264026 Z M102.34201,28.2785479 C102.34201,28.5531367 102.438177,28.7696362 102.630513,28.9280528 C102.82285,29.0864694 103.050613,29.1656766 103.313811,29.1656766 C103.634371,29.1656766 103.944804,29.0882296 104.245119,28.9333333 C104.751268,28.6763463 105.004338,28.2556685 105.004338,27.6712871 L105.004338,26.9056106 C104.892986,26.9795383 104.749579,27.0411439 104.574114,27.090429 C104.398649,27.1397142 104.226561,27.1749174 104.057845,27.1960396 L103.506146,27.269967 C103.175462,27.3157318 102.927453,27.3878983 102.762111,27.4864686 C102.482042,27.651926 102.34201,27.9159498 102.34201,28.2785479 Z M104.548807,26.3564356 C104.758015,26.3282727 104.898047,26.2367444 104.968908,26.0818482 C105.0094,25.9973593 105.029646,25.8759084 105.029646,25.7174917 C105.029646,25.3936177 104.919138,25.1586366 104.69812,25.0125413 C104.477102,24.8664459 104.160764,24.7933993 103.749096,24.7933993 C103.273316,24.7933993 102.935889,24.9271714 102.736804,25.1947195 C102.625451,25.342575 102.552904,25.5625948 102.519161,25.8547855 L101.668836,25.8547855 C101.685707,25.1577523 101.902505,24.6728286 102.319234,24.4 C102.735963,24.1271714 103.219327,23.9907591 103.769342,23.9907591 C104.407089,23.9907591 104.92504,24.1174905 105.32321,24.3709571 C105.718006,24.6244237 105.915401,25.0186992 105.915401,25.5537954 L105.915401,28.8118812 C105.915401,28.9104515 105.934803,28.9896587 105.973608,29.049505 C106.012413,29.1093512 106.094239,29.1392739 106.219089,29.1392739 L106.355748,29.1313531 L106.355748,29.1313531 C106.406363,29.1260726 106.460352,29.1181519 106.517715,29.1075908 L106.517715,29.809901 L106.330441,29.8613862 C106.276452,29.8745875 106.230899,29.8838284 106.193782,29.8891089 C106.119547,29.89967 106.018318,29.9049505 105.890094,29.9049505 C105.576282,29.9049505 105.348518,29.78878 105.206797,29.5564356 C105.132562,29.4332227 105.08026,29.258967 105.049892,29.0336634 C104.864304,29.28713 104.597736,29.5071498 104.250181,29.6937294 C103.902625,29.880309 103.519645,29.9735974 103.101229,29.9735974 C102.598455,29.9735974 102.187637,29.814303 101.868764,29.4957096 C101.54989,29.1771161 101.390456,28.7784402 101.390456,28.29967 C101.390456,27.7751349 101.547359,27.3685383 101.861171,27.079868 C102.174983,26.7911977 102.586645,26.6134217 103.096168,26.5465347 L104.548807,26.3564356 Z M107.408532,24.1280528 L108.274042,24.1280528 L108.274042,24.9306931 C108.530491,24.5997783 108.80212,24.3621569 109.088937,24.2178218 C109.375755,24.0734866 109.694623,24.0013201 110.045553,24.0013201 C110.814899,24.0013201 111.334537,24.2811853 111.604483,24.8409241 C111.752953,25.1471963 111.827187,25.5854757 111.827187,26.1557756 L111.827187,29.7834983 L110.90094,29.7834983 L110.90094,26.2191419 C110.90094,25.8741457 110.852013,25.5960407 110.754158,25.3848185 C110.59219,25.0327815 110.298628,24.8567657 109.873463,24.8567657 C109.657507,24.8567657 109.480357,24.8796477 109.34201,24.9254125 C109.09231,25.0028607 108.872982,25.1577546 108.68402,25.390099 C108.532176,25.5766786 108.433478,25.7694159 108.387925,25.9683168 C108.342371,26.1672177 108.319595,26.4514833 108.319595,26.8211221 L108.319595,29.7834983 L107.408532,29.7834983 L107.408532,24.1280528 Z M113.750542,27.0217822 C113.750542,27.6272858 113.873703,28.1342114 114.120029,28.5425743 C114.366355,28.9509371 114.761145,29.1551155 115.304411,29.1551155 C115.726201,29.1551155 116.072908,28.9658985 116.344541,28.5874587 C116.616174,28.209019 116.751988,27.6660101 116.751988,26.9584158 C116.751988,26.2437808 116.611956,25.7148532 116.331887,25.3716172 C116.051818,25.0283811 115.705955,24.8567657 115.294288,24.8567657 C114.83538,24.8567657 114.463366,25.0398222 114.178236,25.4059406 C113.893105,25.772059 113.750542,26.3106675 113.750542,27.0217822 Z M115.122198,24.0277228 C115.53724,24.0277228 115.88479,24.119251 116.164859,24.3023102 C116.326827,24.4079213 116.510724,24.592738 116.716558,24.8567657 L116.716558,22 L117.592191,22 L117.592191,29.7834983 L116.772234,29.7834983 L116.772234,28.9966997 C116.559652,29.3452163 116.308269,29.5969189 116.018077,29.7518152 C115.727885,29.9067114 115.395519,29.9841584 115.020969,29.9841584 C114.416965,29.9841584 113.893953,29.7192546 113.451916,29.1894389 C113.00988,28.6596233 112.788865,27.9546799 112.788865,27.0745875 C112.788865,26.250821 112.990478,25.5370767 113.393709,24.9333333 C113.796941,24.3295899 114.373098,24.0277228 115.122198,24.0277228 Z M121.195951,24.0013201 C121.580624,24.0013201 121.953481,24.0954886 122.314534,24.2838284 C122.675586,24.4721682 122.95059,24.7159501 123.139552,25.0151815 C123.285322,25.2433015 123.39222,25.5018342 123.460246,25.7907849 L123.503977,26.0132013 C123.557966,26.2737087 123.58496,26.6891061 123.58496,27.2594059 L119.611714,27.2594059 C119.628585,27.8332262 119.758495,28.2935076 120.001446,28.640264 C120.244397,28.9870204 120.620629,29.160396 121.130152,29.160396 C121.605932,29.160396 121.985537,28.9967013 122.26898,28.6693069 C122.430948,28.479207 122.545673,28.2591872 122.61316,28.0092409 L123.509038,28.0092409 C123.485418,28.2169427 123.406966,28.4484036 123.27368,28.7036304 C123.140395,28.9588572 122.991083,29.1674359 122.825741,29.3293729 C122.549047,29.6110025 122.206558,29.8010996 121.798265,29.89967 C121.578934,29.9559959 121.330924,29.9841584 121.05423,29.9841584 C120.379365,29.9841584 119.807426,29.7280554 119.338395,29.2158416 C118.869364,28.7036278 118.634852,27.9863632 118.634852,27.0640264 C118.634852,26.155771 118.871051,25.4182647 119.343456,24.8514851 C119.815862,24.2847056 120.433354,24.0013201 121.195951,24.0013201 Z M122.64859,26.5042904 C122.611472,26.0924072 122.525428,25.7632576 122.390456,25.5168317 C122.140756,25.0591836 121.724033,24.830363 121.140275,24.830363 C120.721859,24.830363 120.370934,24.9878972 120.087491,25.3029703 C119.804048,25.6180434 119.653893,26.0184794 119.637021,26.5042904 L122.64859,26.5042904 Z M125.245119,28.0092409 C125.272114,28.3260742 125.348035,28.5689761 125.472885,28.7379538 C125.702339,29.044226 126.100503,29.1973597 126.66739,29.1973597 C127.004822,29.1973597 127.301758,29.1207928 127.558207,28.9676568 C127.814655,28.8145207 127.942878,28.5777794 127.942878,28.2574257 C127.942878,28.0145202 127.839962,27.8297036 127.634129,27.7029703 C127.52133,27.6365862 127.314328,27.5611507 127.013119,27.4766621 L126.130875,27.2435644 C125.668593,27.1238718 125.327791,26.9900997 125.10846,26.8422442 C124.717038,26.5852572 124.52133,26.2297052 124.52133,25.7755776 C124.52133,25.2404814 124.706072,24.8074824 125.07556,24.4765677 C125.445049,24.1456529 125.941911,23.980198 126.566161,23.980198 C127.382747,23.980198 127.971558,24.2301405 128.33261,24.730033 C128.55869,25.0468663 128.668354,25.388337 128.661605,25.7544554 L127.801157,25.7544554 C127.784285,25.5397129 127.711738,25.3443353 127.583514,25.1683168 C127.374306,24.9183706 127.011572,24.7933993 126.4953,24.7933993 C126.151119,24.7933993 125.890456,24.8620455 125.713304,24.9993399 C125.536152,25.1366343 125.447578,25.3179307 125.447578,25.5432343 C125.447578,25.7896602 125.56399,25.9867979 125.796819,26.1346535 C125.931791,26.2226627 126.130874,26.3001097 126.394071,26.3669967 L126.996385,26.520132 C127.651004,26.6855894 128.089659,26.8457638 128.312364,27.0006601 C128.666668,27.2435656 128.843818,27.6255199 128.843818,28.1465347 C128.843818,28.6499475 128.660763,29.0847066 128.294649,29.4508251 C127.928535,29.8169435 127.370937,30 126.621837,30 C125.815373,30 125.244277,29.8090228 124.908532,29.4270627 C124.572787,29.0451026 124.393107,28.5725001 124.369487,28.0092409 L125.245119,28.0092409 Z M130.331887,24.1280528 L131.779465,28.7326733 L133.292842,24.1280528 L134.289949,24.1280528 L132.245119,29.7834983 L131.273319,29.7834983 L129.274042,24.1280528 L130.331887,24.1280528 Z M137.326826,24.0013201 C137.711499,24.0013201 138.084356,24.0954886 138.445409,24.2838284 C138.806461,24.4721682 139.081464,24.7159501 139.270427,25.0151815 C139.416197,25.2433015 139.523095,25.5018342 139.591121,25.7907849 L139.634852,26.0132013 C139.688841,26.2737087 139.715835,26.6891061 139.715835,27.2594059 L135.742589,27.2594059 C135.75946,27.8332262 135.88937,28.2935076 136.132321,28.640264 C136.375272,28.9870204 136.751504,29.160396 137.261027,29.160396 C137.736806,29.160396 138.116412,28.9967013 138.399855,28.6693069 C138.561823,28.479207 138.676548,28.2591872 138.744035,28.0092409 L139.639913,28.0092409 C139.616293,28.2169427 139.537841,28.4484036 139.404555,28.7036304 C139.27127,28.9588572 139.121958,29.1674359 138.956616,29.3293729 C138.679921,29.6110025 138.337433,29.8010996 137.92914,29.89967 C137.709808,29.9559959 137.461799,29.9841584 137.185105,29.9841584 C136.51024,29.9841584 135.938301,29.7280554 135.46927,29.2158416 C135.000239,28.7036278 134.765727,27.9863632 134.765727,27.0640264 C134.765727,26.155771 135.001926,25.4182647 135.474331,24.8514851 C135.946737,24.2847056 136.564229,24.0013201 137.326826,24.0013201 Z M138.779465,26.5042904 C138.742347,26.0924072 138.656303,25.7632576 138.52133,25.5168317 C138.27163,25.0591836 137.854908,24.830363 137.27115,24.830363 C136.852734,24.830363 136.501809,24.9878972 136.218366,25.3029703 C135.934923,25.6180434 135.784767,26.0184794 135.767896,26.5042904 L138.779465,26.5042904 Z M140.859725,24.1280528 L141.725235,24.1280528 L141.725235,25.1049505 C141.796096,24.9148505 141.969871,24.6833897 142.246565,24.4105611 C142.488673,24.171836 142.763071,24.0375547 143.069764,24.0077145 L143.22399,24.0019069 L143.22399,24.0019069 L143.496746,24.0277228 L143.496746,24.0277228 L143.496746,25.0310231 C143.442757,25.020462 143.392986,25.0134214 143.347433,25.009901 C143.30188,25.0063806 143.252109,25.0046205 143.19812,25.0046205 C142.739212,25.0046205 142.3866,25.1586343 142.140275,25.4666667 C141.893949,25.774699 141.770788,26.1293709 141.770788,26.5306931 L141.770788,29.7834983 L140.859725,29.7834983 L140.859725,24.1280528 Z M144.215474,22 L145.101229,22 L145.101229,24.8145215 C145.300314,24.543453 145.538201,24.3366344 145.814895,24.1940594 C146.09159,24.0514844 146.3919,23.980198 146.715835,23.980198 C147.3907,23.980198 147.938176,24.2222198 148.358279,24.7062706 C148.778382,25.1903215 148.988431,25.9040657 148.988431,26.8475248 C148.988431,27.7416986 148.780913,28.4844855 148.365871,29.0759076 C147.950829,29.6673297 147.375516,29.9630363 146.639913,29.9630363 C146.228246,29.9630363 145.880696,29.859187 145.597252,29.6514851 C145.428536,29.5282722 145.248013,29.3311345 145.055676,29.060066 L145.055676,29.7834983 L144.215474,29.7834983 L144.215474,22 Z M146.584237,29.1234323 C147.076888,29.1234323 147.445528,28.919254 147.690166,28.5108911 C147.934805,28.1025282 148.057122,27.5639197 148.057122,26.8950495 C148.057122,26.300107 147.934805,25.8072627 147.690166,25.4165017 C147.445528,25.0257406 147.085324,24.830363 146.609544,24.830363 C146.194503,24.830363 145.830925,24.9905375 145.5188,25.3108911 C145.206675,25.6312447 145.050615,26.1592923 145.050615,26.8950495 C145.050615,27.4266253 145.114726,27.8578641 145.24295,28.1887789 C145.482527,28.8118843 145.929618,29.1234323 146.584237,29.1234323 Z M150.749819,28.2785479 C150.749819,28.5531367 150.845986,28.7696362 151.038322,28.9280528 C151.230659,29.0864694 151.458422,29.1656766 151.72162,29.1656766 C152.04218,29.1656766 152.352614,29.0882296 152.652928,28.9333333 C153.159077,28.6763463 153.412148,28.2556685 153.412148,27.6712871 L153.412148,26.9056106 C153.300795,26.9795383 153.157388,27.0411439 152.981923,27.090429 C152.806459,27.1397142 152.634371,27.1749174 152.465654,27.1960396 L151.913955,27.269967 C151.583271,27.3157318 151.335262,27.3878983 151.16992,27.4864686 C150.889852,27.651926 150.749819,27.9159498 150.749819,28.2785479 Z M152.956616,26.3564356 C153.165824,26.3282727 153.305856,26.2367444 153.376717,26.0818482 C153.417209,25.9973593 153.437455,25.8759084 153.437455,25.7174917 C153.437455,25.3936177 153.326947,25.1586366 153.105929,25.0125413 C152.884911,24.8664459 152.568573,24.7933993 152.156905,24.7933993 C151.681126,24.7933993 151.343698,24.9271714 151.144613,25.1947195 C151.03326,25.342575 150.960714,25.5625948 150.92697,25.8547855 L150.076645,25.8547855 C150.093517,25.1577523 150.310314,24.6728286 150.727043,24.4 C151.143772,24.1271714 151.627136,23.9907591 152.177151,23.9907591 C152.814898,23.9907591 153.332849,24.1174905 153.73102,24.3709571 C154.125815,24.6244237 154.32321,25.0186992 154.32321,25.5537954 L154.32321,28.8118812 C154.32321,28.9104515 154.342612,28.9896587 154.381417,29.049505 C154.420222,29.1093512 154.502048,29.1392739 154.626898,29.1392739 L154.763557,29.1313531 L154.763557,29.1313531 C154.814172,29.1260726 154.868161,29.1181519 154.925524,29.1075908 L154.925524,29.809901 C154.783803,29.8521454 154.675826,29.8785478 154.601591,29.8891089 C154.527356,29.89967 154.426127,29.9049505 154.297903,29.9049505 C153.984091,29.9049505 153.756328,29.78878 153.614606,29.5564356 C153.540371,29.4332227 153.48807,29.258967 153.457701,29.0336634 C153.272113,29.28713 153.005545,29.5071498 152.65799,29.6937294 C152.310435,29.880309 151.927454,29.9735974 151.509038,29.9735974 C151.006264,29.9735974 150.595446,29.814303 150.276573,29.4957096 C149.957699,29.1771161 149.798265,28.7784402 149.798265,28.29967 C149.798265,27.7751349 149.955168,27.3685383 150.26898,27.079868 C150.582793,26.7911977 150.994454,26.6134217 151.503977,26.5465347 L152.956616,26.3564356 Z M155.816341,24.1280528 L156.681851,24.1280528 L156.681851,24.9306931 C156.9383,24.5997783 157.209929,24.3621569 157.496746,24.2178218 C157.783564,24.0734866 158.102433,24.0013201 158.453362,24.0013201 C159.222708,24.0013201 159.742346,24.2811853 160.012292,24.8409241 C160.160762,25.1471963 160.234996,25.5854757 160.234996,26.1557756 L160.234996,29.7834983 L159.308749,29.7834983 L159.308749,26.2191419 C159.308749,25.8741457 159.259822,25.5960407 159.161967,25.3848185 C158.999999,25.0327815 158.706437,24.8567657 158.281273,24.8567657 C158.065316,24.8567657 157.888167,24.8796477 157.749819,24.9254125 C157.500119,25.0028607 157.280791,25.1577546 157.091829,25.390099 C156.939985,25.5766786 156.841287,25.7694159 156.795734,25.9683168 C156.750181,26.1672177 156.727404,26.4514833 156.727404,26.8211221 L156.727404,29.7834983 L155.816341,29.7834983 L155.816341,24.1280528 Z M162.158351,27.0217822 C162.158351,27.6272858 162.281512,28.1342114 162.527838,28.5425743 C162.774164,28.9509371 163.168954,29.1551155 163.71222,29.1551155 C164.13401,29.1551155 164.480717,28.9658985 164.75235,28.5874587 C165.023983,28.209019 165.159798,27.6660101 165.159798,26.9584158 C165.159798,26.2437808 165.019765,25.7148532 164.739696,25.3716172 C164.459627,25.0283811 164.113764,24.8567657 163.702097,24.8567657 C163.243189,24.8567657 162.871175,25.0398222 162.586045,25.4059406 C162.300914,25.772059 162.158351,26.3106675 162.158351,27.0217822 Z M163.530007,24.0277228 C163.945049,24.0277228 164.292599,24.119251 164.572668,24.3023102 C164.734636,24.4079213 164.918534,24.592738 165.124367,24.8567657 L165.124367,22 L166,22 L166,29.7834983 L165.180043,29.7834983 L165.180043,28.9966997 C164.967461,29.3452163 164.716078,29.5969189 164.425886,29.7518152 C164.135694,29.9067114 163.803328,29.9841584 163.428778,29.9841584 C162.824774,29.9841584 162.301762,29.7192546 161.859725,29.1894389 C161.417689,28.6596233 161.196674,27.9546799 161.196674,27.0745875 C161.196674,26.250821 161.398287,25.5370767 161.801518,24.9333333 C162.20475,24.3295899 162.780907,24.0277228 163.530007,24.0277228 Z"/>
    <path id="b" d="M98.793925,37.2966158 C99.2152731,37.2966158 99.5429834,37.2346832 99.7770656,37.1108162 C100.144909,36.916168 100.328828,36.5658066 100.328828,36.0597213 C100.328828,35.550097 100.133205,35.2068135 99.7419535,35.0298607 C99.5212473,34.930767 99.1935371,34.881221 98.7588129,34.881221 L96.9781246,34.881221 L96.9781246,37.2966158 L98.793925,37.2966158 Z M99.1299986,40.8958195 C99.7419565,40.8958195 100.178346,40.7082523 100.439181,40.3331121 C100.603038,40.0959953 100.684966,39.8093359 100.684966,39.4731254 C100.684966,38.9068762 100.445871,38.5211247 99.9676745,38.3158593 C99.7135281,38.2061485 99.3774579,38.151294 98.9594538,38.151294 L96.9781246,38.151294 L96.9781246,40.8958195 L99.1299986,40.8958195 Z M96,34 L99.1651108,34 C100.027871,34 100.641492,34.2725034 101.005991,34.8175182 C101.220009,35.1395725 101.327017,35.511168 101.327017,35.9323159 C101.327017,36.4242449 101.19493,36.8276914 100.930751,37.1426676 C100.793646,37.3090033 100.596351,37.4611805 100.33886,37.5992037 C100.716736,37.7513832 100.999302,37.9230249 101.186568,38.114134 C101.517627,38.4538836 101.683155,38.9228017 101.683155,39.5209025 C101.683155,40.0234487 101.534347,40.4782107 101.236728,40.8852024 C100.791972,41.4939203 100.08472,41.7982747 99.1149505,41.7982747 L96,41.7982747 L96,34 Z M104.99373,35.9854015 C105.37495,35.9854015 105.74446,36.0800698 106.102271,36.2694094 C106.460083,36.458749 106.732617,36.7038251 106.919883,37.004645 C107.064345,37.2339759 107.170283,37.4938811 107.237698,37.7843657 L107.281037,38.0079628 C107.334541,38.2698531 107.361293,38.6874557 107.361293,39.260783 L103.423715,39.260783 C103.440435,39.8376494 103.569178,40.3003743 103.809948,40.6489715 C104.050719,40.9975687 104.423573,41.1718646 104.928522,41.1718646 C105.40003,41.1718646 105.776228,41.0073009 106.057127,40.6781685 C106.21764,40.4870594 106.331336,40.2658716 106.398217,40.0145985 L107.286053,40.0145985 C107.262644,40.2234029 107.184897,40.4560925 107.052808,40.7126742 C106.920718,40.9692559 106.772747,41.1789419 106.60889,41.3417386 C106.334679,41.6248632 105.995265,41.8159694 105.590637,41.915063 C105.373275,41.971688 105.127492,42 104.853281,42 C104.184475,42 103.61767,41.7425374 103.152849,41.2276045 C102.688029,40.7126716 102.455622,39.9915994 102.455622,39.0643663 C102.455622,38.1512894 102.689701,37.4098679 103.157865,36.8400796 C103.62603,36.2702913 104.237979,35.9854015 104.99373,35.9854015 Z M106.433329,38.5016589 C106.396544,38.0875892 106.311273,37.7566922 106.177511,37.5089582 C105.930053,37.0488807 105.517071,36.8188454 104.938554,36.8188454 C104.523894,36.8188454 104.17612,36.9772158 103.895221,37.2939615 C103.614322,37.6107072 103.465515,38.013269 103.448795,38.5016589 L106.433329,38.5016589 Z M108.494914,36.1128069 L109.352654,36.1128069 L109.352654,37.0948905 C109.422879,36.9037814 109.595094,36.6710918 109.869305,36.3968149 C110.109239,36.1568225 110.381173,36.0218284 110.685113,35.9918297 L110.837955,35.9859913 L110.837955,35.9859913 L111.108263,36.0119443 L111.108263,36.0119443 L111.108263,37.0205707 C111.054758,37.0099535 111.005434,37.0028755 110.96029,36.9993364 C110.915145,36.9957974 110.865822,36.9940279 110.812317,36.9940279 C110.357529,36.9940279 110.008083,37.1488593 109.763968,37.4585269 C109.519854,37.7681944 109.397799,38.1247491 109.397799,38.5282017 L109.397799,41.7982747 L108.494914,41.7982747 L108.494914,36.1128069 Z M111.915842,34 L112.818726,34 L112.818726,41.7982747 L111.915842,41.7982747 L111.915842,34 Z M114.173053,36.1393497 L115.090985,36.1393497 L115.090985,41.7982747 L114.173053,41.7982747 L114.173053,36.1393497 Z M114.173053,34 L115.090985,34 L115.090985,35.0829463 L114.173053,35.0829463 L114.173053,34 Z M116.455343,36.1128069 L117.313083,36.1128069 L117.313083,36.919708 C117.56723,36.5870366 117.83642,36.3481538 118.120663,36.2030524 C118.404906,36.0579511 118.720912,35.9854015 119.068692,35.9854015 C119.831131,35.9854015 120.346104,36.2667523 120.613627,36.8294625 C120.760764,37.1373605 120.834332,37.5779666 120.834332,38.151294 L120.834332,41.7982747 L119.9164,41.7982747 L119.9164,38.2149967 C119.9164,37.868169 119.867912,37.5885877 119.770935,37.3762442 C119.610421,37.0223384 119.319495,36.8453882 118.898147,36.8453882 C118.684129,36.8453882 118.50857,36.8683917 118.371464,36.9143995 C118.124006,36.9922587 117.906647,37.1479749 117.719381,37.3815528 C117.5689,37.5691228 117.471088,37.7628833 117.425944,37.9628401 C117.3808,38.1627968 117.358228,38.4485715 117.358228,38.8201725 L117.358228,41.7982747 L116.455343,41.7982747 L116.455343,36.1128069 Z M127.259858,35.9854015 C127.641078,35.9854015 128.010588,36.0800698 128.368399,36.2694094 C128.726211,36.458749 128.998745,36.7038251 129.186011,37.004645 C129.330473,37.2339759 129.436411,37.4938811 129.503826,37.7843657 L129.547165,38.0079628 C129.600669,38.2698531 129.627421,38.6874557 129.627421,39.260783 L125.689843,39.260783 C125.706563,39.8376494 125.835306,40.3003743 126.076076,40.6489715 C126.316847,40.9975687 126.689701,41.1718646 127.19465,41.1718646 C127.666158,41.1718646 128.042356,41.0073009 128.323255,40.6781685 C128.483768,40.4870594 128.597464,40.2658716 128.664344,40.0145985 L129.552181,40.0145985 C129.528772,40.2234029 129.451025,40.4560925 129.318935,40.7126742 C129.186846,40.9692559 129.038875,41.1789419 128.875017,41.3417386 C128.600807,41.6248632 128.261393,41.8159694 127.856765,41.915063 C127.639403,41.971688 127.39362,42 127.119409,42 C126.450603,42 125.883798,41.7425374 125.418977,41.2276045 C124.954157,40.7126716 124.72175,39.9915994 124.72175,39.0643663 C124.72175,38.1512894 124.955829,37.4098679 125.423993,36.8400796 C125.892158,36.2702913 126.504107,35.9854015 127.259858,35.9854015 Z M128.699457,38.5016589 C128.662672,38.0875892 128.577401,37.7566922 128.443639,37.5089582 C128.196181,37.0488807 127.783199,36.8188454 127.204682,36.8188454 C126.790022,36.8188454 126.442247,36.9772158 126.161349,37.2939615 C125.88045,37.6107072 125.731643,38.013269 125.714923,38.5016589 L128.699457,38.5016589 Z M130.951651,40.6410086 L132,40.6410086 L132,41.7982747 L130.951651,41.7982747 L130.951651,40.6410086 Z"/>
    <path id="c" d="M134.165563,35 L136.401325,40.9611981 L138.610596,35 L139.792053,35 L136.952318,42 L135.834437,42 L133,35 L134.165563,35 Z M139.892715,40.9611981 L141,40.9611981 L141,42 L139.892715,42 L139.892715,40.9611981 Z"/>
  </defs>
  <g fill="none" fill-rule="evenodd">
    <g fill-rule="nonzero">
      <use fill="#000000" xlink:href="#a"/>
      <use fill="#878787" xlink:href="#a"/>
    </g>
    <g fill-rule="nonzero">
      <use fill="#000000" xlink:href="#b"/>
      <use fill="#878787" xlink:href="#b"/>
    </g>
    <g fill-rule="nonzero">
      <use fill="#000000" xlink:href="#c"/>
      <use fill="#878787" xlink:href="#c"/>
    </g>
    <line x1="87.5" x2="87.5" y1="8" y2="58" stroke="#878787" stroke-width=".26"/>
    <path fill="#FFFFFF" fill-rule="nonzero" d="M32.5043747,62.9650146 L31.3756899,62.212828 C30.0895141,61.3381924 0,41.0379009 0,19.8104956 C0,9.83965015 5.4859335,2.21282799 13.9991924,0.376093294 C15.149009,0.126153346 16.3223031,0 17.4989904,0 C23.4617156,0.152728986 29.0167449,3.06007767 32.5393727,7.87172012 C32.5824967,7.92931453 32.6512016,7.96201941 32.7231121,7.95918367 C32.7926481,7.96224245 32.8588283,7.92916423 32.898102,7.87172012 C36.4207299,3.06007767 41.9757592,0.152728986 47.9384843,0 C49.1151108,0.00120012744 50.2882849,0.12727109 51.4382824,0.376093294 C58.4991251,1.90670554 63.5563333,7.44314869 65,15.244898 L60.0215372,15.244898 C58.7791089,9.85714286 55.1918159,6.10495627 50.3970925,5.19533528 C49.4490395,5.00709935 48.485074,4.91044449 47.5185085,4.90670554 C42.1113205,4.90670554 37.3953426,8.13411079 32.6968636,15.0699708 C27.9896352,8.13411079 23.2736573,4.90670554 17.8664692,4.90670554 C16.8999038,4.91044449 15.9359383,5.00709935 14.9878853,5.19533528 C10.3156549,6.06997085 4.85596985,10.4431487 4.85596985,19.845481 C4.85596985,26.755102 8.77574371,34.6005831 16.501548,43.1632653 C21.3396669,48.4392289 26.6883544,53.2234878 32.4693768,57.4460641 L32.4693768,63 L32.5043747,62.9650146 Z"/>
    <path fill="#FFFFFF" fill-rule="nonzero" d="M35.5362404 23.540308C35.3950549 23.5441451 35.2714182 23.6335575 35.2268709 23.7640399 35.2268709 23.8156703 33.777254 28.6947464 33.0701237 31.1644022L32.186211 34.107337C32.1593441 34.1994085 32.179031 34.2984308 32.2392457 34.3740942 32.3013184 34.450242 32.3957244 34.4945653 32.4955804 34.4945653L35.0589275 34.4945653C35.2263944 34.4945653 35.3635122 34.3649586 35.368297 34.2019928L35.5185622 31.2934783C35.5981143 29.4605978 35.8279316 23.9189312 35.8367859 23.8586957 35.8383189 23.7030919 35.7210533 23.5705184 35.5627578 23.548913L35.5362404 23.540308zM39.9558044 41L34.9882145 41 35.1473188 38.0742754C35.1503005 37.9885405 35.1185555 37.9050985 35.0589275 37.8419384 34.9987549 37.7812411 34.9157589 37.7470572 34.8291102 37.7472826L31.293459 37.7472826C31.1515823 37.7434164 31.026269 37.8367067 30.9929287 37.9710145L30.1090159 41 25 41 32.6988804 22 38.8067177 22 40 41 39.9558044 41zM59.2000755 40.965642L52.9747074 40.965642 53.3046433 29.9281193C53.3567384 27.6347197 53.6085315 24.0185353 53.6085315 23.9841772 53.6244246 23.8220782 53.5105047 23.6755688 53.3480559 23.6491863L53.2612307 23.6491863C53.116791 23.6526298 52.9924446 23.7510413 52.9573424 23.8896926 52.9573424 23.9326401 52.1325028 27.5745931 51.4986787 29.8336347L48.390336 41 42 41 42.6251416 22.034358 47.3137033 22.034358 46.0286901 32.1184448C45.7248018 34.5836347 45.212533 38.8526221 45.212533 38.8955696 45.1916433 39.0560773 45.3029355 39.2041428 45.4643262 39.2305606L45.5164213 39.2305606C45.6594155 39.2311228 45.7845618 39.1356156 45.8203096 38.9986438 45.8203096 38.9556962 46.9577199 34.7038879 47.6870517 32.20434L50.6564741 22 56.6040015 22 56.3608909 32.1184448C56.3001133 34.6952984 55.9441299 38.8268535 55.9354473 38.8698011 55.9202417 39.0329918 56.0399549 39.1781649 56.2046055 39.1962025L56.2480181 39.1962025C56.3974472 39.1983883 56.5263035 39.0927654 56.5519064 38.9471067 56.5519064 38.9471067 57.4201586 34.7811935 57.9671574 32.1785714L60.207248 22 65 22 59.2434881 40.965642 59.2000755 40.965642z"/>
    <g fill-rule="nonzero">
      <path fill="#FFFFFF" d="M73.2571429,25.2317808 C72.5862641,25.2431582 71.9755182,25.620043 71.6659341,26.2136986 C70.6989011,27.7041096 69.5648352,33.990137 69.5648352,36.3134247 C69.5648352,36.909589 69.5648352,38.7068493 70.9978022,38.7068493 C71.5408374,38.7429744 72.0668986,38.5101743 72.4043956,38.0843836 C73.556044,36.8131507 74.8043956,29.7117808 74.8043956,27.8093151 C74.8043956,27.1693151 74.8043956,25.2317808 73.2571429,25.2317808 L73.2571429,25.2317808 Z M70.3120879,41.9506849 C67.8417582,41.9506849 64.8967033,40.9775342 64.8967033,36.3309589 C64.8967033,31.289863 66.2417582,26.5293151 68.3164835,24.2060274 C69.7632592,22.666391 71.8335528,21.8663501 73.9428571,22.0317808 C75.5692308,22.0317808 79.3494505,22.5928767 79.3494505,27.8268493 C79.3494505,33.7271233 77.5472527,38.2071233 75.7538462,40.0219178 C74.2814625,41.3811124 72.3143631,42.0783276 70.3120879,41.9506849 Z"/>
      <path fill="#E30613" d="M65.8461538,15.7019178 C64.4747253,7.81150685 59.3406593,1.97260274 52,0.385753425 C44.8263736,-1.1660274 37.6087912,2.09534247 33.1164835,8.02191781 C28.6153846,2.09534247 21.3978022,-1.1660274 14.2241758,0.385753425 C5.58241758,2.25315068 0,9.98575342 0,20.0854795 C0,41.5035616 30.3384615,61.9134247 31.6483516,62.7726027 L33.1340659,63.7632877 L33.1340659,57.6263014 C27.1912088,53.3479452 5.38901099,36.1643836 5.38901099,20.050411 C5.38901099,10.9764384 10.5230769,6.50520548 15.3758242,5.58465753 C21.0813187,4.49753425 26.8043956,6.29479452 32.9582418,15.4564384 C33.0285714,15.5441096 33.1076923,15.6668493 33.1076923,15.6668493 C33.1499764,15.5937586 33.1969611,15.5234747 33.2483516,15.4564384 C39.4461538,6.29479452 45.1516484,4.49753425 50.8307692,5.58465753 C54.821978,6.33863014 59.0065934,9.51232877 60.3692308,15.6668493 L65.8461538,15.7019178 Z"/>
    </g>
    <path fill="#1D1D1B" fill-rule="nonzero" d="M32.966443 31.7546012L32.0715884 34.7432077 34.6666667 34.7432077 34.8098434 31.780894C34.8993289 29.8965819 35.1319911 24.2173532 35.1319911 24.2173532 35.1319911 24.2173532 33.6733781 29.2129711 32.9395973 31.7546012L32.966443 31.7546012zM34.3087248 42L34.4876957 38.6871166 30.9082774 38.6871166 29.8791946 41.9824715 24 41.9824715 32.0536913 22 38.7472036 22 40 41.9824715 34.3087248 42zM59.9406376 42L53.0721876 42 53.4151704 30.4035088C53.467937 28.0263158 53.7229754 24.3157895 53.7229754 24.3157895 53.7229754 24.3157895 52.896299 28.0614035 52.2367167 30.4035088L49.0355442 42 42 42 42.6507878 22 48.0681568 22 46.722609 32.6578947C46.4060095 35.2017544 45.8871381 39.5701754 45.8871381 39.5701754 45.8871381 39.5701754 47.0392085 35.2280702 47.7779406 32.6315789L50.7856358 22 57.372664 22 57.1176255 32.6578947C57.0560645 35.3684211 56.6866984 39.5701754 56.6866984 39.5701754 56.6866984 39.5701754 57.5661414 35.3421053 58.1201905 32.6578947L60.4331257 22 66 22 59.9406376 42zM73.5826542 24.9743049C73.0136898 24.9869345 72.5032075 25.3354769 72.2729919 25.8685042 71.338766 27.3528749 70.2299185 33.7016896 70.2299185 35.9997817 70.2299185 37.5378044 70.6228172 38.1279759 71.338766 38.1279759 71.787947 38.1639274 72.2245607 37.9655629 72.5 37.6003984 73.5215367 36.4379393 74.8050058 29.4184752 74.8050058 27.326049 74.8050058 25.8953301 74.4906868 25.0190149 73.5826542 25.0190149L73.5826542 24.9743049zM76.306752 39.9163744C74.796589 41.3792387 72.7576768 42.1282543 70.6839348 41.9819747 68.1519208 41.9819747 65 40.9357616 65 35.9282458 65 30.5093983 66.4144354 25.7075483 68.4924331 23.3468623 69.9871164 21.7047506 72.1305667 20.8490396 74.3160652 21.0219442 76.93539 21.0219442 80 22.3274751 80 27.281339 80 33.1562281 78.2974389 37.9044261 76.3329453 39.9432004L76.306752 39.9163744z"/>
  </g>
</svg>
