<?xml version="1.0" encoding="UTF-8"?>
<svg width="154.690722px" height="128.500944px" viewBox="0 0 154.690722 128.500944" version="1.1" xmlns="http://www.w3.org/2000/svg" xmlns:xlink="http://www.w3.org/1999/xlink">
    <title>Berlin Viertelmap</title>
    <g id="Symbole" stroke="none" stroke-width="1" fill="none" fill-rule="evenodd">
        <g id="Tile_Bezirke_416_white-Copy-2" transform="translate(-237,5, -56,0011)" stroke="#363578">
            <g id="Berlin-Viertelmap" transform="translate(238, 56,502)">
                <polygon id="Spandau" fill="#FFFFFF" stroke-linejoin="round" points="8.01803657 88.9006441 4.85718298 85.1141616 6.84171048 75.0411816 18.5961785 62.9922589 12.6358138 59.734252 6.84171048 59.734252 9.64180533 45.6165314 12.9007012 46.7455399 14.6765529 40.8476503 14.1418077 34.9230235 10.1033289 36.276897 9.2616018 33.9219504 17.5782581 29.0758219 29.7537081 33.3640267 32.2790076 42.5909617 38.8625297 47.6870079 41.9393378 48.0039065 41.9393378 51.7027559 44.0992012 54.7446397 30.81726 56.5670363 27.7985955 65.0412478 23.2616037 67.388183 22.3582641 80.5972977 14.1418077 87.8444882"></polygon>
                <polygon id="Charlottenburg-Wilmersdorf" fill="#FFFFFF" stroke-linejoin="round" points="41.9440726 47.848729 41.9393378 51.7027559 44.0992012 54.7446397 30.81726 56.5670363 27.7985955 65.0412478 23.2616037 67.388183 22.5718809 77.473678 33.335541 77.473678 39.4754722 79.8129921 46.5137355 78.4117625 53.6390007 78.9462325 54.2130938 75.6431451 58.3169719 75.017914 57.6759999 64.2259633 55.0842949 57.611624 52.8311948 57.611624 52.1172377 53.3168967 56.126256 51.7027559 52.8311948 47.6870079"></polygon>
                <polygon id="Steglitz-Zehlendorf" fill="#363578" stroke-linejoin="round" points="2.84217094e-14 96.8631063 8.01803657 88.9006441 14.1418077 87.8444882 22.3582641 80.5972977 22.5718809 77.473678 33.335541 77.473678 39.4754722 79.8129921 46.5137355 78.4117625 53.6390007 78.9462325 55.4995381 79.8944731 57.5374057 78.5798561 61.2667453 83.2164741 65.2729684 93.2420267 63.4305437 96.0378701 58.6093451 98.8775837 58.6093451 99.8917323 51.5444485 104.520255 47.7267292 98.1459432 42.7904161 102.437008 36.9052262 102.437008 36.0811646 96.0378701 31.1970492 96.4309244 16.3942059 103.147232 18.4226364 106.506869 10.7447744 104.736642 8.8976721 105.759888 4.85718298 101.064887 0.597648703 99.8917323"></polygon>
                <polygon id="Tempelhof-Schöneberg" fill="#FFFFFF" stroke-linecap="round" stroke-linejoin="round" points="65.2729684 106.506869 64.9829625 108.581816 68.8796936 108.527274 69.2306599 112.571643 76.6045014 113.210727 78.1403485 109.38986 75.972999 100.143894 72.3881721 99.4336696 71.6921581 97.4440915 77.075021 82.1321659 76.6045014 79.8129921 75.3933597 79.8129921 74.9076715 74.5052523 73.3286195 74.6884406 73.3286195 71.7814961 65.4339512 72.1605619 66.3815008 69.7038242 64.5006059 68.9870781 64.785877 66.8973098 57.7334092 64.4127085 58.3169719 75.017914 54.2130938 75.6431451 53.6390007 78.9462325 55.4995381 79.8944731 57.5374057 78.5798561 61.2667453 83.2164741 65.2729684 93.2420267 63.3399909 96.135689 58.6093451 98.8775837 58.6892447 101.326022"></polygon>
                <polygon id="Reinickendorf" fill="#FFFFFF" stroke-linejoin="round" points="30.4715612 18.2229581 40.4881251 18.2229581 40.4444264 13.4915082 45.0453592 13.0411033 45.5365935 5.78999231 50.8016786 6.54307963 49.1297063 8.86321811 50.8016786 13.0411033 50.9153135 18.0181905 57.6381216 19.937991 64.2851731 19.1399663 66.3637453 25.0907374 63.2387848 31.2465726 59.7308982 32.3712533 69.3354171 40.6480996 66.8674084 41.5226603 66.3637453 43.6712598 63.8519399 45.1533046 63.2387848 43.6712598 57.3149723 42.0852081 51.4941414 44.4083785 49.1297063 47.7684889 38.9382735 47.7684889 32.2790076 42.5909617 29.7537081 33.3640267 30.4715612 31.6240157 26.1180414 26.1487827"></polygon>
                <polygon id="Mitte" fill="#FFFFFF" stroke-linecap="round" stroke-linejoin="round" points="49.1297063 47.7684889 51.0520305 44.6055577 57.3149723 42.0852081 63.2387848 43.6712598 63.8519399 45.1533046 66.5578716 43.4218892 66.8786536 41.4458279 69.1844957 40.7961323 70.8748152 43.085392 73.5328072 53.3378254 73.0954311 55.2449984 78.3830064 58.3396341 77.1827375 61.9310715 78.5741735 63.2127961 77.4885456 64.5905612 74.8857731 64.8490403 72.1623292 63.2127961 66.5578716 63.831481 64.785877 66.8973098 57.7334092 64.4127085 55.1198058 57.6495659 52.9751198 57.6495659 52.1172377 53.3378254 56.126256 51.7027559 52.9751198 47.7684889"></polygon>
                <polygon id="Friedrichshain-Kreuzberg" fill="#FFFFFF" stroke-linecap="square" stroke-linejoin="round" points="73.3109539 71.7266015 73.5925839 70.7211413 77.4885456 71.373564 76.5032953 68.0154099 81.1591905 70.0523055 84.4848808 66.8973098 90.9088899 71.7266015 92.8738272 70.7211413 87.660233 66.4011009 89.5381686 60.8100071 88.1984023 58.4860168 86.0332412 58.9223979 82.8378507 56.3957049 81.5334164 54.7446397 77.2916376 55.9137243 76.1713475 57.1143676 78.3830064 58.3396341 77.1306548 61.8812728 78.5741735 63.2127961 77.4885456 64.5905612 74.6584681 64.8604601 72.1623292 63.2127961 66.5578716 63.831481 64.539298 67.3484247 64.6432415 69.0339127 66.3815008 69.7038242 65.4339512 72.1605619"></polygon>
                <polygon id="Pankow" fill="#FFFFFF" stroke-linejoin="round" points="76.1713475 57.1143676 77.2916376 55.9137243 81.3771684 54.7446397 86.0332412 58.9223979 88.1984023 58.4860168 85.5212922 55.4969563 87.4939235 52.9044578 87.2412042 48.2797559 90.1347519 48.4822115 91.5380249 46.7205812 93.5597797 47.2499892 93.5597797 44.6597113 91.4569417 42.9131121 92.8738272 40.6480996 90.3513685 38.9908688 90.6833956 34.6749191 92.8738272 31.6240157 96.0822384 30.0843056 94.1847718 26.0843407 96.6178614 18.5701858 98.9379078 17.4119502 100.225457 11.9072169 99.0977069 10.8663806 97.5970748 11.5452756 91.4569417 6.3132872 92.2074206 2.07251665 89.2807144 3.4397884 89.2807144 7.14984862e-15 87.2412042 3.10818736 85.5212922 2.46604526 83.6753165 4.648712 86.1752849 6.80902859 89.2807144 7.52952756 85.647356 10.2887153 81.3771684 9.89915872 77.4885456 14.9867194 71.0430824 10.2887153 64.2851731 19.1399663 66.3542757 24.5579502 63.2387848 31.2465726 60.1352743 32.4413675 69.3354171 40.6480996 71.0430824 42.9131121 73.5328072 53.3378254 73.0954311 55.2449984"></polygon>
                <polygon id="Neukölln" fill="#FFFFFF" stroke-linecap="round" stroke-linejoin="round" points="86.93303 95.8759843 90.1791406 105.759888 98.526573 103.555701 100.374324 99.0939711 99.5753287 94.2048023 97.0185428 93.5657185 86.0332412 85.0919714 85.0170372 81.8553086 89.0611386 82.0456109 90.1791406 79.8944731 87.4729438 76.5597356 87.8771935 74.6067387 82.789911 70.8136246 76.5032953 68.0154099 77.4885456 71.373564 73.6168497 70.6677855 73.3286195 74.6884406 74.9076715 74.5052523 75.3933597 79.8129921 76.7915255 79.6446005 77.075021 82.1321659 71.6921581 97.4440915 72.3881721 99.4336696 76.0422452 100.173537"></polygon>
                <path d="M96.7149245,31.5927923 L100.225457,31.2015314 L105.714574,33.1746729 C107.272691,34.3365559 108.352026,35.2522202 108.952578,35.921666 C109.55313,36.5911118 110.161156,37.5563773 110.776655,38.8174625 L104.933031,40.8476503 L100.749556,45.6949051 L102.294281,51.6405185 L99.1574836,52.9133504 L99.1574836,61.0470482 L103.282076,61.6554 L106.525854,72.1605619 L105.714574,73.7148067 L106.717757,76.4331748 L104.234475,75.7972441 L102.035051,78.4476523 L100.144095,75.7972441 L96.7149245,75.7972441 L95.2191492,72.6134932 L87.7933989,66.6406091 L89.5381686,60.8100071 L88.1984023,57.9528639 L85.3015872,56.021894 L87.3376755,52.7094128 L87.2412042,48.2797559 L90.3235516,48.2797559 L91.6054957,46.632722 L94.0723206,47.2787138 L94.0723206,45.6693948 L91.4202471,42.6958126 L92.8738272,40.7961323 L90.2969184,38.8174625 L90.6040879,34.95065 L91.7226817,32.9735216 L96.2164389,30.3241577 L96.7149245,31.5927923 Z" id="Lichtenberg" fill="#FFFFFF" stroke-linecap="round" stroke-linejoin="round"></path>
                <polygon id="Marzahl-Hellersdorf" fill="#FFFFFF" points="111.840799 75.3518309 115.028495 73.7925025 120.907327 76.9969677 121.494441 75.8527824 121.638852 73.2709551 124.513461 69.3623472 123.504951 68.3367304 126.415662 60.731752 131.359373 56.9511979 130.986509 55.1685218 123.793773 55.0712957 123.504951 52.4358618 125.664606 52.216761 126.436969 50.4328991 114.599344 47.6870079 115.028495 44.8362387 113.631141 39.5637322 111.840799 38.3028756 104.933031 40.8476503 100.749556 45.6949051 102.294281 51.6405185 99.2557305 52.9139433 99.2557305 60.731752 103.203952 61.5949301 106.326546 71.7814961 105.714574 73.7148067 106.717757 76.4331748 109.821787 76.4331748"></polygon>
                <polygon id="Treptow-Köpenick" fill="#FFFFFF" stroke-linejoin="round" points="98.526573 103.555701 101.523694 105.114283 103.614695 104.037681 103.004499 108.375507 110.442852 108.375507 116.316358 106.729777 119.211681 114.16461 124.434745 111.253755 125.435847 113.210727 127.701157 112.702661 127.5674 115.227576 128.93399 115.954724 126.840609 119.06445 126.232781 124.269011 128.860589 127.5 129.77677 127.034619 134.276595 116.869748 136.306622 115.52785 139.185387 116.304177 141.260601 113.210727 138.37633 109.921046 144.545168 104.336474 148.333677 104.037681 149.716149 101.275037 147.829928 97.7743045 150.419265 93.5580116 151.360896 89.5835982 153.690677 87.8444882 153.018072 86.1522281 147.593188 85.0548774 144.545168 80.2870886 141.260601 78.4476523 142.108527 83.2384092 140.515271 83.3712059 139.752383 79.8129921 133.433211 76.3904902 128.288585 74.1904018 123.726894 76.4610384 123.726894 78.5798561 114.69055 73.613025 110.187766 76.3904902 106.897252 76.4610384 104.234475 75.7972441 102.035051 78.4476523 100.144095 75.7972441 96.7149245 75.7972441 95.2191492 72.6134932 92.8738272 70.7211413 90.9088899 71.7266015 84.4848808 66.8973098 81.1591905 70.0523055 87.8771935 74.6067387 87.3887968 76.4610384 89.853032 79.6042872 89.0617304 82.0284185 85.0170372 81.8553086 86.0332412 85.0548774 97.0185428 93.5657185 99.5753287 94.2048023 100.374324 99.0939711"></polygon>
            </g>
        </g>
    </g>
</svg>