<svg xmlns="http://www.w3.org/2000/svg" width="241" height="33" viewBox="0 0 241 33">
  <g fill="#FFFFFF" fill-rule="evenodd">
    <path fill-rule="nonzero" d="M53.9100999,25.2585 C52.0074904,25.2585 50.3128074,24.9057035 48.826,24.2001 L48.826,21.8187001 C50.3506076,22.612504 52.0452906,23.0094001 53.9100999,23.0094001 C54.8047043,23.0094001 55.4598977,22.8393018 55.8756998,22.4991001 C56.2915019,22.1588984 56.5056997,21.7053029 56.5182998,21.1383001 C56.5182998,20.5838974 56.3261517,20.1681015 55.9418498,19.8909001 C55.6055856,19.6483489 55.0980956,19.4250945 54.4193674,19.2211317 L52.8327999,18.7758002 C52.1019963,18.5741992 51.4657026,18.3316516 50.9238999,18.0481502 C50.3820972,17.7646488 49.9285018,17.348853 49.5631,16.8007502 C49.1976982,16.2526475 49.015,15.5439046 49.015,14.6745003 C49.015,13.2632933 49.4370958,12.189154 50.2813,11.4520504 C51.1255042,10.7149467 52.3161922,10.3464004 53.8533999,10.3464004 C54.7732044,10.3464004 55.5827463,10.4314495 56.2820498,10.6015504 C56.9813533,10.7716512 57.6963961,11.0267987 58.4271997,11.3670004 L58.4271997,13.6728003 C57.0537929,12.9545967 55.5292082,12.5955003 53.8533999,12.5955003 C52.3665925,12.5955003 51.6231999,13.2191941 51.6231999,14.4666003 C51.6358,15.021003 51.8090483,15.4304989 52.1429499,15.6951003 C52.4351139,15.9266264 52.9129745,16.138856 53.5765433,16.3317937 L55.1763998,16.7724002 C55.9702038,16.9866013 56.644297,17.2448987 57.1986998,17.5473002 C57.7531025,17.8497017 58.2129979,18.2812474 58.5783997,18.8419502 C58.9438016,19.402653 59.1264997,20.1302957 59.1264997,21.0249001 C59.1138997,22.3353066 58.6445544,23.3684963 57.7184498,24.1245 C56.7923452,24.8805038 55.5229079,25.2585 53.9100999,25.2585 Z M63.8798496,20.2311001 C64.0814506,22.1463097 65.13984,23.1039001 67.0550495,23.1039001 C67.546452,23.1039001 68.0252472,23.0409007 68.4914495,22.9149001 C68.9576518,22.7888994 69.4805466,22.5873015 70.0601494,22.3101001 L70.7405494,24.3135 C70.1357464,24.6537017 69.5183526,24.8962493 68.8883495,25.04115 C68.2583463,25.1860507 67.5464535,25.2585 66.7526495,25.2585 C65.5808437,25.2585 64.5791537,25.0222524 63.7475496,24.54975 C62.9159455,24.0772477 62.2891018,23.4189043 61.8669997,22.5747001 C61.4448976,21.7304959 61.2338497,20.7477057 61.2338497,19.6263001 C61.2338497,18.4544943 61.4543475,17.4496544 61.8953497,16.6117502 C62.3363519,15.7738461 62.9348458,15.1407024 63.6908496,14.7123003 C64.4468534,14.2838981 65.2910449,14.0697003 66.2234495,14.0697003 C67.6976569,14.0697003 68.8536953,14.5075459 69.6915995,15.3832503 C70.5295036,16.2589546 70.9547494,17.5409918 70.9673494,19.2294002 L70.9673494,20.2311001 L63.8798496,20.2311001 Z M66.2234495,16.2243002 C64.9886434,16.2243002 64.2389509,16.9046934 63.9743496,18.2655002 L68.3024495,18.2655002 C68.2394492,17.5598967 68.0378512,17.0433019 67.6976495,16.7157002 C67.3574478,16.3880986 66.8660527,16.2243002 66.2234495,16.2243002 Z M79.0092992,14.1453003 C80.370106,14.1453003 81.3812458,14.4917968 82.0427491,15.1848003 C82.7042524,15.8778037 83.0349991,17.0054924 83.0349991,18.5679002 L83.0349991,24.9372 L80.5023992,24.9372 L80.5023992,18.5679002 C80.5023992,17.8244965 80.3543507,17.2795519 80.0582492,16.9330502 C79.7621477,16.5865485 79.2487029,16.4133002 78.5178992,16.4133002 C77.661095,16.4133002 76.7980036,16.7849965 75.9285993,17.5284002 L75.9285993,24.9372 L73.3959994,24.9372 L73.3959994,14.3721003 L75.9285993,14.3721003 L75.9285993,15.3549003 C76.8862041,14.5484963 77.9130938,14.1453003 79.0092992,14.1453003 Z M86.200749,9.68490041 L88.733349,9.68490041 L88.733349,12.5388003 L86.200749,12.5388003 L86.200749,9.68490041 Z M86.200749,14.3721003 L88.733349,14.3721003 L88.733349,24.9372 L86.200749,24.9372 L86.200749,14.3721003 Z M96.7941987,25.2585 C95.6223929,25.2585 94.6270029,25.0128025 93.8079988,24.5214 C92.9889947,24.0299976 92.3747509,23.3590543 91.9652489,22.5085501 C91.5557468,21.6580458 91.3509989,20.7036054 91.3509989,19.6452001 C91.3509989,18.5993949 91.5557468,17.6544044 91.9652489,16.8102002 C92.3747509,15.965996 92.9889947,15.2982027 93.8079988,14.8068003 C94.6270029,14.3153978 95.6223929,14.0697003 96.7941987,14.0697003 C97.9534045,14.0697003 98.9393446,14.3153978 99.7520487,14.8068003 C100.564753,15.2982027 101.175847,15.965996 101.585349,16.8102002 C101.994851,17.6544044 102.199599,18.5993949 102.199599,19.6452001 C102.199599,20.7036054 101.994851,21.6580458 101.585349,22.5085501 C101.175847,23.3590543 100.564753,24.0299976 99.7520487,24.5214 C98.9393446,25.0128025 97.9534045,25.2585 96.7941987,25.2585 Z M96.7941987,23.0472001 C97.6888032,23.0472001 98.3754963,22.7416531 98.8542987,22.1305501 C99.3331011,21.519447 99.5724987,20.6910053 99.5724987,19.6452001 C99.5724987,18.5993949 99.3331011,17.7741032 98.8542987,17.1693002 C98.3754963,16.5644972 97.6888032,16.2621002 96.7941987,16.2621002 C95.8869942,16.2621002 95.1908512,16.5644972 94.7057488,17.1693002 C94.2206464,17.7741032 93.9780988,18.5993949 93.9780988,19.6452001 C93.9780988,20.6910053 94.2206464,21.519447 94.7057488,22.1305501 C95.1908512,22.7416531 95.8869942,23.0472001 96.7941987,23.0472001 Z M110.827448,14.1453003 L110.827448,16.4133002 L110.392748,16.4133002 C109.359543,16.4133002 108.345253,16.8038963 107.349848,17.5851002 L107.349848,24.9372 L104.817249,24.9372 L104.817249,14.3721003 L107.349848,14.3721003 L107.349848,15.4305003 C108.320053,14.573696 109.334343,14.1453003 110.392748,14.1453003 L110.827448,14.1453003 Z M115.146098,20.2311001 C115.347699,22.1463097 116.406089,23.1039001 118.321298,23.1039001 C118.812701,23.1039001 119.291496,23.0409007 119.757698,22.9149001 C120.2239,22.7888994 120.746795,22.5873015 121.326398,22.3101001 L122.006798,24.3135 C121.401995,24.6537017 120.784601,24.8962493 120.154598,25.04115 C119.524595,25.1860507 118.812702,25.2585 118.018898,25.2585 C116.847092,25.2585 115.845402,25.0222524 115.013798,24.54975 C114.182194,24.0772477 113.55535,23.4189043 113.133248,22.5747001 C112.711146,21.7304959 112.500098,20.7477057 112.500098,19.6263001 C112.500098,18.4544943 112.720596,17.4496544 113.161598,16.6117502 C113.602601,15.7738461 114.201095,15.1407024 114.957098,14.7123003 C115.713102,14.2838981 116.557294,14.0697003 117.489698,14.0697003 C118.963906,14.0697003 120.119944,14.5075459 120.957848,15.3832503 C121.795752,16.2589546 122.220998,17.5409918 122.233598,19.2294002 L122.233598,20.2311001 L115.146098,20.2311001 Z M117.489698,16.2243002 C116.254892,16.2243002 115.5052,16.9046934 115.240598,18.2655002 L119.568698,18.2655002 C119.505698,17.5598967 119.3041,17.0433019 118.963898,16.7157002 C118.623696,16.3880986 118.132301,16.2243002 117.489698,16.2243002 Z M130.275548,14.1453003 C131.636355,14.1453003 132.647494,14.4917968 133.308998,15.1848003 C133.970501,15.8778037 134.301248,17.0054924 134.301248,18.5679002 L134.301248,24.9372 L131.768648,24.9372 L131.768648,18.5679002 C131.768648,17.8244965 131.620599,17.2795519 131.324498,16.9330502 C131.028396,16.5865485 130.514952,16.4133002 129.784148,16.4133002 C128.927344,16.4133002 128.064252,16.7849965 127.194848,17.5284002 L127.194848,24.9372 L124.662248,24.9372 L124.662248,14.3721003 L127.194848,14.3721003 L127.194848,15.3549003 C128.152453,14.5484963 129.179342,14.1453003 130.275548,14.1453003 Z M143.080298,14.1453003 C144.441104,14.1453003 145.452244,14.4917968 146.113747,15.1848003 C146.775251,15.8778037 147.105997,17.0054924 147.105997,18.5679002 L147.105997,24.9372 L144.573397,24.9372 L144.573397,18.5679002 C144.573397,17.8244965 144.425349,17.2795519 144.129248,16.9330502 C143.833146,16.5865485 143.319701,16.4133002 142.588898,16.4133002 C141.732093,16.4133002 140.869002,16.7849965 139.999598,17.5284002 L139.999598,24.9372 L137.466998,24.9372 L137.466998,14.3721003 L139.999598,14.3721003 L139.999598,15.3549003 C140.957202,14.5484963 141.984092,14.1453003 143.080298,14.1453003 Z M152.275147,20.2311001 C152.476748,22.1463097 153.535138,23.1039001 155.450347,23.1039001 C155.94175,23.1039001 156.420545,23.0409007 156.886747,22.9149001 C157.352949,22.7888994 157.875844,22.5873015 158.455447,22.3101001 L159.135847,24.3135 C158.531044,24.6537017 157.91365,24.8962493 157.283647,25.04115 C156.653644,25.1860507 155.941751,25.2585 155.147947,25.2585 C153.976141,25.2585 152.974451,25.0222524 152.142847,24.54975 C151.311243,24.0772477 150.684399,23.4189043 150.262297,22.5747001 C149.840195,21.7304959 149.629147,20.7477057 149.629147,19.6263001 C149.629147,18.4544943 149.849645,17.4496544 150.290647,16.6117502 C150.73165,15.7738461 151.330144,15.1407024 152.086147,14.7123003 C152.842151,14.2838981 153.686343,14.0697003 154.618747,14.0697003 C156.092955,14.0697003 157.248993,14.5075459 158.086897,15.3832503 C158.924801,16.2589546 159.350047,17.5409918 159.362647,19.2294002 L159.362647,20.2311001 L152.275147,20.2311001 Z M154.618747,16.2243002 C153.383941,16.2243002 152.634249,16.9046934 152.369647,18.2655002 L156.697747,18.2655002 C156.634747,17.5598967 156.433149,17.0433019 156.092947,16.7157002 C155.752745,16.3880986 155.26135,16.2243002 154.618747,16.2243002 Z M164.853097,16.9047002 L164.853097,21.6864001 C164.853097,22.1400024 164.928696,22.4549992 165.079897,22.6314001 C165.231098,22.8078009 165.508295,22.8960001 165.911497,22.8960001 C166.314699,22.8960001 166.698995,22.8456006 167.064397,22.7448001 L167.064397,24.9561 C166.346193,25.1073008 165.753999,25.1829 165.287797,25.1829 C164.241992,25.1829 163.485999,24.9624022 163.019797,24.5214 C162.553595,24.0803978 162.320497,23.4000046 162.320497,22.4802001 L162.320497,16.9047002 L160.921897,16.9047002 L160.921897,14.6178003 L162.320497,14.6178003 L162.320497,11.0268004 L164.853097,11.0268004 L164.853097,14.6178003 L167.272297,14.6178003 L167.272297,16.9047002 L164.853097,16.9047002 Z M177.809047,22.6881001 L177.809047,24.9372 L169.436347,24.9372 L169.436347,22.6881001 L174.558247,16.6023002 L169.776547,16.6023002 L169.776547,14.3721003 L177.393247,14.3721003 L177.393247,16.6023002 L172.290247,22.6881001 L177.809047,22.6881001 Z M193.382646,17.6607002 C194.20165,17.9253015 194.834794,18.3410973 195.282096,18.9081002 C195.729398,19.475103 195.953046,20.168096 195.953046,20.9871001 C195.953046,22.3101067 195.5404,23.2991968 194.715096,23.9544 C193.889792,24.6096033 192.506956,24.9372 190.566546,24.9372 L185.085546,24.9372 L185.085546,10.6110004 L190.566546,10.6110004 C192.317955,10.6110004 193.559043,10.9322972 194.289846,11.5749004 C195.02065,12.2175036 195.386046,13.175094 195.386046,14.4477003 C195.386046,15.2163041 195.225398,15.8683476 194.904096,16.4038502 C194.582795,16.9393529 194.07565,17.3582987 193.382646,17.6607002 Z M187.712646,16.6968002 L190.566546,16.6968002 C192.002953,16.6968002 192.721146,16.022707 192.721146,14.6745003 C192.721146,13.9814968 192.557348,13.4838018 192.229746,13.1814003 C191.902145,12.8789988 191.34775,12.7278003 190.566546,12.7278003 L187.712646,12.7278003 L187.712646,16.6968002 Z M193.288146,20.7981001 C193.288146,20.1050967 193.061348,19.6011017 192.607746,19.2861002 C192.154144,18.9710986 191.473751,18.8136002 190.566546,18.8136002 L187.712646,18.8136002 L187.712646,22.8204001 L190.566546,22.8204001 C191.561951,22.8204001 192.264394,22.6597517 192.673896,22.3384501 C193.083398,22.0171485 193.288146,21.5037036 193.288146,20.7981001 Z M200.819796,20.2311001 C201.021397,22.1463097 202.079786,23.1039001 203.994996,23.1039001 C204.486398,23.1039001 204.965194,23.0409007 205.431396,22.9149001 C205.897598,22.7888994 206.420493,22.5873015 207.000096,22.3101001 L207.680496,24.3135 C207.075693,24.6537017 206.458299,24.8962493 205.828296,25.04115 C205.198293,25.1860507 204.4864,25.2585 203.692596,25.2585 C202.52079,25.2585 201.5191,25.0222524 200.687496,24.54975 C199.855892,24.0772477 199.229048,23.4189043 198.806946,22.5747001 C198.384844,21.7304959 198.173796,20.7477057 198.173796,19.6263001 C198.173796,18.4544943 198.394294,17.4496544 198.835296,16.6117502 C199.276298,15.7738461 199.874792,15.1407024 200.630796,14.7123003 C201.3868,14.2838981 202.230991,14.0697003 203.163396,14.0697003 C204.637603,14.0697003 205.793642,14.5075459 206.631546,15.3832503 C207.46945,16.2589546 207.894696,17.5409918 207.907296,19.2294002 L207.907296,20.2311001 L200.819796,20.2311001 Z M203.163396,16.2243002 C201.92859,16.2243002 201.178897,16.9046934 200.914296,18.2655002 L205.242396,18.2655002 C205.179396,17.5598967 204.977798,17.0433019 204.637596,16.7157002 C204.297394,16.3880986 203.805999,16.2243002 203.163396,16.2243002 Z M216.346146,14.1453003 L216.346146,16.4133002 L215.911446,16.4133002 C214.87824,16.4133002 213.863951,16.8038963 212.868546,17.5851002 L212.868546,24.9372 L210.335946,24.9372 L210.335946,14.3721003 L212.868546,14.3721003 L212.868546,15.4305003 C213.838751,14.573696 214.85304,14.1453003 215.911446,14.1453003 L216.346146,14.1453003 Z M221.647595,25.1829 C220.61439,25.1829 219.858398,24.9655522 219.379596,24.53085 C218.900793,24.0961479 218.661396,23.4252046 218.661396,22.5180001 L218.661396,8.94780043 L221.193995,8.94780043 L221.193995,21.6864001 C221.193995,22.1400024 221.269595,22.4549992 221.420795,22.6314001 C221.571996,22.8078009 221.842894,22.8960001 222.233495,22.8960001 C222.624097,22.8960001 222.970594,22.8582004 223.272995,22.7826001 L223.272995,24.975 C222.680792,25.1136007 222.138998,25.1829 221.647595,25.1829 Z M225.493745,9.68490041 L228.026345,9.68490041 L228.026345,12.5388003 L225.493745,12.5388003 L225.493745,9.68490041 Z M225.493745,14.3721003 L228.026345,14.3721003 L228.026345,24.9372 L225.493745,24.9372 L225.493745,14.3721003 Z M236.899895,14.1453003 C238.260702,14.1453003 239.271842,14.4917968 239.933345,15.1848003 C240.594848,15.8778037 240.925595,17.0054924 240.925595,18.5679002 L240.925595,24.9372 L238.392995,24.9372 L238.392995,18.5679002 C238.392995,17.8244965 238.244947,17.2795519 237.948845,16.9330502 C237.652744,16.5865485 237.139299,16.4133002 236.408495,16.4133002 C235.551691,16.4133002 234.688599,16.7849965 233.819195,17.5284002 L233.819195,24.9372 L231.286595,24.9372 L231.286595,14.3721003 L233.819195,14.3721003 L233.819195,15.3549003 C234.7768,14.5484963 235.80369,14.1453003 236.899895,14.1453003 Z"/>
    <g transform="translate(.95 .95)">
      <path d="M18.6256242,6.68512879 C15.6294301,4.08637511 12.0333714,2.4775179 8.21777954,1.97485714 C6.88421201,2.71428018 5.66955827,3.64663876 4.608,4.73447206 C13.9244376,4.18627067 22.0286285,11.3302724 22.7705157,20.8343069 C23.04758,24.381089 22.2443102,27.9016731 20.5320962,30.9394286 C21.9833739,30.4536619 23.3398095,29.7575759 24.5677026,28.8852036 C25.4617224,26.2529066 25.8317031,23.4362435 25.6107257,20.6051347 C25.1863431,15.167927 22.7055224,10.2243208 18.6256242,6.68512879"/>
      <path d="M17.2273339,12.8448083 C11.8895318,12.8448083 6.868984,10.2422002 3.63539451,5.92457143 C3.00737538,6.71456421 2.4509788,7.56770649 1.97485714,8.47326535 C5.74801913,13.0589675 11.318955,15.7988571 17.2273339,15.7988571 C22.0604134,15.7988571 26.6714149,13.9982227 30.2811429,10.7775982 C29.9453822,9.79940488 29.5209345,8.8653913 29.0186153,7.98454312 C25.8422277,11.0935953 21.642455,12.8448083 17.2273339,12.8448083"/>
      <path d="M22.8338684,5.29626602 C22.8338684,14.937643 15.1322014,22.7814628 5.66555411,22.7814628 C4.42164721,22.7814628 3.18373793,22.6353517 1.97485714,22.3651195 C2.49713011,23.5208142 3.15207048,24.6007657 3.92048587,25.585916 C4.50033601,25.6377146 5.08210539,25.6731429 5.66555411,25.6731429 C16.6978208,25.6731429 25.6731429,16.5321597 25.6731429,5.29626602 C25.6731429,4.61237818 25.62996,3.93166667 25.5637462,3.25462015 C24.5878131,2.48570445 23.5199964,1.83357989 22.3790087,1.31657143 C22.6755311,2.6144679 22.8338684,3.9497473 22.8338684,5.29626602"/>
      <path d="M31.5146916,14.1728942 C28.5803268,19.8481286 22.5914586,23.5186475 15.9095948,23.5186475 C9.06827857,23.5186475 2.97807377,19.6589462 0.12844103,13.824 C0.0468834178,14.4573808 0,15.1014566 0,15.7567026 C0,17.0239395 0.16067338,18.2541005 0.457601692,19.4319749 C4.23415867,23.7054532 9.81743652,26.3314286 15.9095948,26.3314286 C21.8237426,26.3314286 27.2707655,23.862313 31.0482992,19.7777794 C31.4043202,18.4958072 31.5977143,17.1484767 31.5977143,15.7567026 C31.5977143,15.2219534 31.5693889,14.6936211 31.5146916,14.1728942"/>
      <path d="M16.3068056,0.0200231263 C16.0501263,0.00708134956 15.7920171,0 15.5322396,0 C13.7831506,0 12.10413,0.302544555 10.5368852,0.852447976 C6.84184816,4.58773778 4.608,9.76200664 4.608,15.3604239 C4.608,21.641581 7.38237602,27.3764974 11.9227624,31.1581822 C13.0810364,31.4429013 14.2886442,31.5977143 15.5322396,31.5977143 C16.2936975,31.5977143 17.0418091,31.5388658 17.7737143,31.4297154 C11.5266613,28.7021749 7.42861165,22.4346921 7.42861165,15.3604239 C7.42861165,8.86243107 10.9317946,3.02837577 16.3068056,0.0200231263"/>
      <path d="M4.7619793,13.1657143 C12.6953027,13.1657143 19.749782,8.64387153 23.04,1.68643468 C22.1877875,1.2656867 21.2915118,0.920893793 20.3596465,0.658285714 C17.500861,6.52671369 11.501721,10.3299783 4.7619793,10.3299783 C3.63885042,10.3299783 2.52588998,10.2221557 1.43471907,10.0122609 C1.0945604,10.8889789 0.833570325,11.8037943 0.658285714,12.7488 C2.00269931,13.023628 3.37616561,13.1657143 4.7619793,13.1657143"/>
    </g>
  </g>
</svg>
