<svg xmlns="http://www.w3.org/2000/svg" width="156" height="56" viewBox="0 0 156 56">
  <g fill="none">
    <path fill="#D8232E" d="M50.8564414,33.2838968 C52.6084595,34.994271 52.450132,36.6233973 51.1175427,38.5032117 C47.813499,43.1697627 39.3464529,46.8467548 34.3883041,47.3884081 C31.8140943,47.6640957 31.2161997,46.1835768 31.1050928,44.4572308 C30.8030207,40.0969222 32.2585221,33.9373528 35.0063366,27.8875027 C42.1755143,29.0659458 48.4009771,30.8943727 50.8564414,33.2838968 Z M49.963419,9.6810099 C52.0682018,8.47340096 54.2785362,8.32201582 56,9.32824086 L56,0 L39.2117356,0 C39.3936734,0.477765929 39.5158909,1.0381687 39.545751,1.7346792 C39.8367124,8.26160065 37.9222003,17.208601 33.5306969,25.4910344 C24.1192416,24.4952258 14.8709745,21.5946033 10.7496001,17.504427 C8.81981077,15.5940577 9.52464566,13.0614816 10.6739085,11.2490266 C13.6481034,6.56997594 20.0805029,2.37355225 26.7781705,0 L0,0 L0,30.4034125 C1.51244373,28.6590115 3.97832421,27.3826542 7.97748099,26.7930855 C13.625882,25.9611616 23.4657936,26.2361548 32.4126831,27.4930681 C27.0357997,36.6331191 18.522922,44.6308375 6.47684238,47.1536916 C3.45542701,47.7870092 1.37633769,47.1724412 0,45.8419186 L0,56 L12.2745433,56 C18.6687498,55.0958558 25.7733467,41.7329927 27.7579951,37.3490737 L30.0579095,36.010218 C27.0621877,43.2287889 22.9498407,51.5806652 19.1444267,56 L56,56 L56,22.8397113 C51.4119762,25.413953 43.8483687,26.2465713 36.0528254,25.7111679 C39.3985342,19.1391087 44.2282156,12.9594008 49.963419,9.6810099 L49.963419,9.6810099 Z"/>
    <path fill="#000000" d="M69.9098155,12.9196164 L74.4597456,12.7867312 L74.4597456,15.1703579 C74.4597456,15.6506821 74.1976931,15.8908443 73.673588,15.8908443 L66.7162691,15.8908443 C66.1921642,15.8908443 65.9301116,15.6506821 65.9301116,15.1703579 L65.9301116,0.917737788 C65.9301116,0.437413486 66.1921642,0.196559224 66.7162691,0.196559224 L69.9098155,0.196559224 L69.9098155,12.9196164 M81.0536851,12.9182321 C79.5994684,12.9182321 78.7420327,11.6717421 78.7420327,8.04300968 C78.7420327,4.41566145 79.5994684,3.16917144 81.0536851,3.16917144 C82.5072029,3.16917144 83.3639399,4.41566145 83.3639399,8.04300968 C83.3639399,11.6717421 82.5072029,12.9182321 81.0536851,12.9182321 Z M81.0536851,0 C77.1683202,0 74.6903518,2.49228792 74.6903518,8.04300968 C74.6903518,13.5958078 77.1683202,16.0874036 81.0536851,16.0874036 C84.9362548,16.0874036 87.4156209,13.5958078 87.4156209,8.04300968 C87.4156209,2.49228792 84.9362548,0 81.0536851,0 L81.0536851,0 Z M101.172328,3.29998022 L101.172328,15.1703579 C101.172328,15.6506821 101.434381,15.8908443 101.958486,15.8908443 L104.365176,15.8908443 C104.889281,15.8908443 105.151334,15.6506821 105.151334,15.1703579 L105.151334,3.29998022 L107.859908,3.29998022 C108.384013,3.29998022 108.646066,3.06051018 108.646066,2.57949376 L108.646066,0.195867115 L88.0829812,0.195867115 C87.5588762,0.195867115 87.2968237,0.438105595 87.2968237,0.917737788 L87.2968237,2.57949376 C87.2968237,3.06051018 87.5588762,3.29998022 88.0829812,3.29998022 L90.7922546,3.29998022 L90.7922546,15.1703579 C90.7922546,15.6506821 91.0543071,15.8908443 91.578412,15.8908443 L93.9844033,15.8908443 C94.5085084,15.8908443 94.7705608,15.6506821 94.7705608,15.1703579 L94.7705608,3.29998022 L101.172328,3.29998022 M114.890602,12.9182321 C113.436385,12.9182321 112.578949,11.6717421 112.578949,8.04300968 C112.578949,4.41566145 113.436385,3.16917144 114.890602,3.16917144 C116.344818,3.16917144 117.200857,4.41566145 117.200857,8.04300968 C117.200857,11.6717421 116.344818,12.9182321 114.890602,12.9182321 Z M114.890602,0 C111.006634,0 108.527967,2.49228792 108.527967,8.04300968 C108.527967,13.5958078 111.006634,16.0874036 114.890602,16.0874036 C118.774569,16.0874036 121.252538,13.5958078 121.252538,8.04300968 C121.252538,2.49228792 118.774569,0 114.890602,0 L114.890602,0 Z M75.2144568,24.03421 L72.3800971,24.821139 C72.069128,23.9255488 71.7197247,23.0943246 70.5757782,23.0943246 C69.8853573,23.0943246 69.3612522,23.443148 69.3612522,24.1650187 C69.3612522,26.8545581 76.0327593,26.5258058 76.0327593,31.8156021 C76.0327593,34.3300375 74.3654066,36.2091161 70.3633409,36.2091161 C65.8581345,36.2091161 65,33.0835476 65,32.4495748 C65,32.1215147 65.1201947,31.9699427 65.4297661,31.8598971 L67.6925021,31.0508206 C68.1935464,30.8771011 68.336103,30.9857623 68.4800572,31.3574253 C68.7896284,32.1429701 69.2417564,33.2365038 70.4814393,33.2365038 C71.5065887,33.2365038 72.0544531,32.8655329 72.0544531,32.0121614 C72.0544531,29.2361084 65.4528266,29.3676092 65.4528266,24.3186672 C65.4528266,21.7391735 67.8371549,20.1224045 70.9573266,20.1224045 C74.9384281,20.1224045 75.6924405,22.9413684 75.6924405,23.5310461 C75.6924405,23.7712083 75.5722458,23.9463121 75.2144568,24.03421 M87.3052094,22.7018983 C87.3052094,23.1815306 87.0431569,23.4223847 86.5190518,23.4223847 L83.8104774,23.4223847 L83.8104774,35.2913783 C83.8104774,35.7723946 83.5484249,36.0118647 83.0243198,36.0118647 L80.6176298,36.0118647 C80.0935247,36.0118647 79.8314722,35.7723946 79.8314722,35.2913783 L79.8314722,23.4223847 L77.1228976,23.4223847 C76.5987927,23.4223847 76.3367402,23.1815306 76.3367402,22.7018983 L76.3367402,21.0401423 C76.3367402,20.5591259 76.5987927,20.3182716 77.1228976,20.3182716 L87.3052094,20.3182716 L87.3052094,22.7018983 M92.5965732,35.2920704 C92.5965732,35.7723946 92.3345209,36.0125568 91.8090182,36.0125568 L89.4023281,36.0125568 C88.8789219,36.0125568 88.6161707,35.7723946 88.6161707,35.2920704 L88.6161707,21.0401423 C88.6161707,20.5598181 88.8789219,20.3182716 89.4023281,20.3182716 L92.5965732,20.3182716 L92.5965732,35.2920704 M106.796324,23.4223847 L106.796324,35.2913783 C106.796324,35.7723946 107.058377,36.0118647 107.582482,36.0118647 L109.99057,36.0118647 C110.514675,36.0118647 110.776727,35.7723946 110.776727,35.2913783 L110.776727,23.4223847 L113.484603,23.4223847 C114.010105,23.4223847 114.272158,23.1815306 114.272158,22.7018983 L114.272158,20.3182716 L95.9326762,20.3182716 C95.4085713,20.3182716 95.1458199,20.5591259 95.1458199,21.0401423 L95.1458199,35.2913783 C95.1458199,35.7723946 95.4085713,36.0118647 95.9326762,36.0118647 L98.5545988,36.0118647 C99.0787037,36.0118647 99.1255238,35.7723946 99.1255238,35.2913783 L99.1255238,30.6722365 L102.397336,30.6722365 C102.921442,30.6722365 103.183494,30.4313822 103.183494,29.9503658 L103.183494,27.5681234 L99.1255238,27.5681234 L99.1255238,23.4223847 L106.796324,23.4223847 M127.448856,30.4161557 C127.448856,34.0026696 125.448871,36.1869685 121.135138,36.1869685 C117.226014,36.1869685 115.439864,34.3950959 115.439864,30.4161557 L115.439864,21.0401423 C115.439864,20.5598181 115.701916,20.3182716 116.226021,20.3182716 L119.419568,20.3182716 L119.419568,30.65701 C119.419568,32.2315601 120.03871,33.0171049 121.419552,33.0171049 C122.803189,33.0171049 123.541129,32.2315601 123.541129,30.65701 L123.541129,21.0401423 C123.541129,20.5598181 123.803182,20.3182716 124.327287,20.3182716 L127.448856,20.3182716 L127.448856,30.4161557 M141.94001,35.2920704 C141.94001,35.7723946 141.676559,36.0125568 141.151756,36.0125568 L139.031576,36.0125568 C138.436193,36.0125568 138.221659,35.9246588 137.864569,35.2920704 L133.717152,27.7280008 L133.670332,27.7280008 L133.670332,35.2920704 C133.670332,35.7723946 133.408279,36.0125568 132.882777,36.0125568 L130.620041,36.0125568 C130.095936,36.0125568 129.833184,35.7723946 129.833184,35.2920704 L129.833184,21.0401423 C129.833184,20.5598181 130.095936,20.3182716 130.620041,20.3182716 L133.670332,20.3182716 L138.054645,28.339826 L138.102163,28.339826 L138.102163,21.0401423 C138.102163,20.5598181 138.364216,20.3182716 138.88902,20.3182716 L141.94001,20.3182716 L141.94001,35.2920704 M155.928023,33.1929009 C155.928023,33.5424164 155.880503,33.7839628 155.665969,34.0670357 C155.094346,34.8103618 153.59261,36.2091161 150.422824,36.2091161 C146.515795,36.2091161 143.823294,34.1971524 143.823294,28.0795926 C143.823294,22.592545 146.849126,20.1224045 150.589838,20.1224045 C155.094346,20.1224045 156,23.3344868 156,24.405873 C156,24.7775361 155.880503,24.9962428 155.213842,25.1055961 L152.735174,25.5208621 C152.450062,24.4930789 151.972776,23.2908839 150.494801,23.2908839 C149.017523,23.2908839 147.874276,24.3408146 147.874276,28.0795926 C147.874276,32.1443544 149.041283,33.14999 150.756853,33.14999 C151.638747,33.14999 152.091574,32.8433854 152.281649,32.6904291 L152.281649,30.2195965 L151.138401,30.2195965 C150.614296,30.2195965 150.352244,29.9801266 150.352244,29.4991101 L150.352244,28.1661063 C150.352244,27.6850899 150.614296,27.4449277 151.138401,27.4449277 L155.928023,27.4449277 L155.928023,33.1929009 M71.2193791,52.8979631 L69.8378384,52.8979631 L69.8378384,49.6194383 L71.2913562,49.6194383 C72.6491376,49.6194383 73.435295,49.9468063 73.435295,51.2147517 C73.435295,52.3733438 72.6735958,52.8979631 71.2193791,52.8979631 Z M69.8378384,43.4112121 L71.1732579,43.4112121 C72.3633257,43.4112121 73.1026631,43.9801265 73.1026631,45.0279809 C73.1026631,46.0765276 72.2927461,46.646134 71.1732579,46.646134 L69.8378384,46.646134 L69.8378384,43.4112121 Z M74.270369,48.0005932 L74.270369,47.9569902 C75.7951651,47.5202689 77.009691,46.2516314 77.009691,44.5476567 C77.009691,41.6394107 75.0327671,40.3077912 70.6952742,40.3077912 L66.7155702,40.3077912 C66.1914653,40.3077912 65.9294128,40.5479533 65.9294128,41.0282776 L65.9294128,55.2808977 C65.9294128,55.7619142 66.1914653,56 66.7155702,56 L70.8378308,56 C74.4849026,56 77.3912395,55.2352185 77.3912395,51.4763693 C77.3912395,49.3349812 75.8664434,48.3950959 74.270369,48.0005932 L74.270369,48.0005932 Z M88.8307043,42.6893415 C88.8307043,43.1696657 88.5686518,43.4112121 88.0445468,43.4112121 L83.3269031,43.4112121 L83.3269031,46.5796915 L87.9725697,46.5796915 L87.9725697,48.9633182 C87.9725697,49.4443345 87.7105173,49.6851888 87.1864122,49.6851888 L83.3269031,49.6851888 L83.3269031,52.897271 L89.0445391,52.897271 L89.0445391,55.2808977 C89.0445391,55.7612221 88.7824866,56 88.2590804,56 L80.1319591,56 C79.6078541,56 79.3465004,55.7612221 79.3465004,55.2808977 L79.3465004,41.0289697 C79.3465004,40.5479533 79.6078541,40.3077912 80.1319591,40.3077912 L88.8307043,40.3077912 L88.8307043,42.6893415 M95.7419021,47.3680046 L94.9089244,47.3680046 L94.9089244,43.4112121 L96.0039545,43.4112121 C97.4574723,43.4112121 98.2680881,43.9136839 98.2680881,45.355349 C98.2680881,46.9312834 97.0759239,47.3680046 95.7419021,47.3680046 Z M102.796355,54.9507612 L100.175131,49.3349812 C101.462333,48.5265967 102.31907,47.2150484 102.31907,45.2252323 C102.31907,41.7930591 100.198891,40.307099 95.933375,40.307099 L91.7146793,40.307099 C91.1905743,40.307099 90.9285219,40.5479533 90.9285219,41.0282776 L90.9285219,55.2802055 C90.9285219,55.7612221 91.1905743,56 91.7146793,56 L94.1220682,56 C94.6468721,56 94.9089244,55.7612221 94.9089244,55.2802055 L94.9089244,50.404291 L96.5518189,50.404291 L98.2680881,54.9299979 C98.579057,55.7612221 98.6971554,56 99.4595534,56 L101.96198,56 C102.818717,56 103.224724,55.8705754 102.796355,54.9507612 L102.796355,54.9507612 Z M108.634186,52.897271 L113.186212,52.897271 L113.186212,55.2808977 C113.186212,55.7612221 112.922762,56 112.398657,56 L105.442037,56 C104.917932,56 104.655181,55.7612221 104.655181,55.2808977 L104.655181,41.0289697 C104.655181,40.5479533 104.917932,40.3077912 105.442037,40.3077912 L108.634186,40.3077912 L108.634186,52.897271 M118.619434,55.2808977 C118.619434,55.7612221 118.357382,56 117.833277,56 L115.426587,56 C114.902481,56 114.63973,55.7612221 114.63973,55.2808977 L114.63973,41.0289697 C114.63973,40.5486453 114.902481,40.3077912 115.426587,40.3077912 L118.619434,40.3077912 L118.619434,55.2808977 M133.274807,55.2808977 C133.274807,55.7612221 133.012755,56 132.48865,56 L130.367073,56 C129.771689,56 129.557855,55.9134862 129.199367,55.2808977 L125.054046,47.7168282 L125.005828,47.7168282 L125.005828,55.2808977 C125.005828,55.7612221 124.743776,56 124.219671,56 L121.955537,56 C121.431432,56 121.169379,55.7612221 121.169379,55.2808977 L121.169379,41.0289697 C121.169379,40.5486453 121.431432,40.3077912 121.955537,40.3077912 L125.005828,40.3077912 L129.39084,48.3286533 L129.438359,48.3286533 L129.438359,41.0289697 C129.438359,40.5486453 129.700411,40.3077912 130.224516,40.3077912 L133.274807,40.3077912 L133.274807,55.2808977"/>
  </g>
</svg>
