<?xml version="1.0" encoding="utf-8"?>
<!-- Generator: Adobe Illustrator 25.3.1, SVG Export Plug-In . SVG Version: 6.00 Build 0)  -->
<svg version="1.1" id="Ebene_1" xmlns="http://www.w3.org/2000/svg" xmlns:xlink="http://www.w3.org/1999/xlink" x="0px" y="0px"
	 viewBox="0 0 2218 577" style="enable-background:new 0 0 2218 577;" xml:space="preserve">
<style type="text/css">
	.st0{display:none;fill:#005DA8;}
	.st1{fill:#FFFFFF;}
	.st2{display:none;fill:#FFFFFF;}
	.st3{fill:#DB0029;}
</style>
<rect id="Blau" y="0" class="st0" width="2218" height="577"/>
<g id="Schrift_1_">
	<path class="st1" d="M726.9,305.5c5.4,3.3,16.5,7.1,25.2,7.1c8.8,0,12.5-3.1,12.5-7.9s-2.9-7.1-13.8-10.8
		c-19.4-6.5-26.9-17.1-26.7-28.2c0-17.5,15-30.7,38.2-30.7c10.9,0,20.7,2.5,26.5,5.4l-5.2,20.2c-4.2-2.3-12.3-5.4-20.3-5.4
		c-7.1,0-11.1,2.9-11.1,7.7c0,4.4,3.7,6.7,15.2,10.8c17.9,6.1,25.3,15.2,25.5,29c0,17.5-13.8,30.3-40.7,30.3
		c-12.3,0-23.2-2.7-30.3-6.5L726.9,305.5z"/>
	<path class="st1" d="M903.1,283.1c0,34.4-24.4,50.1-49.5,50.1c-27.5,0-48.6-18-48.6-48.4c0-30.3,20-49.7,50.1-49.7
		C883.9,235.1,903.1,254.9,903.1,283.1z M835.2,284c0,16.1,6.7,28.2,19.2,28.2c11.3,0,18.6-11.3,18.6-28.2c0-14-5.4-28.2-18.6-28.2
		C840.3,255.8,835.2,270.2,835.2,284z"/>
	<path class="st1" d="M992.2,328.8c-5.2,2.3-15,4.2-26.1,4.2c-30.3,0-49.7-18.4-49.7-48c0-27.5,18.8-49.9,53.8-49.9
		c7.7,0,16.1,1.3,22.3,3.6l-4.6,21.7c-3.5-1.5-8.6-2.9-16.3-2.9c-15.4,0-25.3,10.9-25.2,26.3c0,17.3,11.5,26.3,25.7,26.3
		c6.9,0,12.3-1.1,16.7-2.9L992.2,328.8z"/>
	<path class="st1" d="M1038.5,211.1c0,8.1-6.1,14.6-15.7,14.6c-9.2,0-15.4-6.5-15.2-14.6c-0.2-8.4,6-14.8,15.4-14.8
		C1032.3,196.3,1038.3,202.6,1038.5,211.1z M1008.3,331.1v-93.9h29.2v93.9H1008.3z"/>
	<path class="st1" d="M1114.3,331.1l-1.7-9.4h-0.6c-6.1,7.5-15.7,11.5-26.9,11.5c-19,0-30.3-13.8-30.3-28.8
		c0-24.4,21.9-36.1,55.1-35.9v-1.3c0-5-2.7-12.1-17.1-12.1c-9.6,0-19.8,3.3-25.9,7.1l-5.4-18.8c6.5-3.6,19.4-8.3,36.5-8.3
		c31.3,0,41.3,18.4,41.3,40.5v32.6c0,9,0.4,17.7,1.3,22.9L1114.3,331.1L1114.3,331.1L1114.3,331.1z M1110.8,286.7
		c-15.4-0.2-27.3,3.5-27.3,14.8c0,7.5,5,11.1,11.5,11.1c7.3,0,13.2-4.8,15.2-10.8c0.4-1.5,0.6-3.3,0.6-5L1110.8,286.7L1110.8,286.7
		L1110.8,286.7z"/>
	<path class="st1" d="M1162.3,194.8h29.2v136.3h-29.2V194.8z"/>
	<path class="st1" d="M1215.1,267.1c0-11.7-0.4-21.7-0.8-29.9h24.6l1.3,12.7h0.6c4-5.9,12.3-14.8,28.4-14.8
		c12.1,0,21.7,6.1,25.7,15.9h0.4c3.5-4.8,7.7-8.6,12.1-11.3c5.2-3.1,10.9-4.6,17.9-4.6c18.1,0,31.7,12.7,31.7,40.7v55.3h-28.4V280
		c0-13.6-4.4-21.5-13.8-21.5c-6.7,0-11.5,4.6-13.4,10.2c-0.8,2.1-1.2,5.2-1.2,7.5v54.9h-28.4v-52.6c0-11.9-4.2-20-13.4-20
		c-7.5,0-11.9,5.8-13.6,10.6c-1,2.3-1.2,5-1.2,7.3v54.7h-28.4L1215.1,267.1L1215.1,267.1z"/>
	<path class="st1" d="M1433.6,331.1l-1.7-9.4h-0.6c-6.1,7.5-15.7,11.5-26.9,11.5c-19,0-30.3-13.8-30.3-28.8
		c0-24.4,21.9-36.1,55.1-35.9v-1.3c0-5-2.7-12.1-17.1-12.1c-9.6,0-19.8,3.3-25.9,7.1l-5.4-18.8c6.5-3.6,19.4-8.3,36.5-8.3
		c31.3,0,41.3,18.4,41.3,40.5v32.6c0,9,0.4,17.7,1.3,22.9L1433.6,331.1L1433.6,331.1z M1430.2,286.7c-15.4-0.2-27.3,3.5-27.3,14.8
		c0,7.5,5,11.1,11.5,11.1c7.3,0,13.2-4.8,15.2-10.8c0.4-1.5,0.6-3.3,0.6-5L1430.2,286.7L1430.2,286.7L1430.2,286.7z"/>
	<path class="st1" d="M1481.6,268.7c0-12.3-0.4-22.9-0.8-31.5h25.3l1.3,13.1h0.4c6.9-10,17.7-15.2,31.3-15.2c20.5,0,39,17.9,39,47.8
		c0,34.2-21.7,50.3-42.6,50.3c-11.3,0-20.2-4.6-24.4-10.8h-0.4v46.7h-29.2L1481.6,268.7L1481.6,268.7z M1510.8,290.8
		c0,2.3,0.2,4.4,0.6,6.1c1.9,7.9,8.6,13.8,17.1,13.8c12.7,0,20.2-10.6,20.2-26.5c0-15-6.7-26.3-19.8-26.3c-8.3,0-15.6,6.1-17.5,14.8
		c-0.4,1.5-0.6,3.5-0.6,5.2L1510.8,290.8L1510.8,290.8z"/>
	<path class="st2" d="M1587.8,315.5c0-10.4,7.1-17.9,17.3-17.9s17.1,7.3,17.1,17.9c0,10.2-6.9,17.7-17.3,17.7
		C1594.9,333.2,1587.8,325.7,1587.8,315.5z"/>
	<path class="st1" d="M1639,331.1c0.4-6.1,0.8-17.5,0.8-28V194.8h29.2v53.6h0.4c5.6-8.1,15.4-13.2,28.4-13.2
		c22.5,0,39,18.6,38.8,47.4c0,33.8-21.5,50.7-43,50.7c-10.9,0-21.5-4-28.2-15.2h-0.4l-1.2,13.1H1639V331.1z M1669,291.1
		c0,1.9,0.2,3.6,0.6,5.2c1.9,7.9,8.6,13.8,17.1,13.8c12.5,0,20.2-9.6,20.2-26.5c0-14.6-6.5-26.1-20.2-26.1c-7.9,0-15.2,6-17.1,14.4
		c-0.4,1.7-0.6,3.5-0.6,5.4V291.1z"/>
	<path class="st1" d="M1777.7,293.5c1,12.1,12.9,17.9,26.5,17.9c10,0,18.1-1.3,25.9-3.8l3.8,19.8c-9.6,3.8-21.3,5.8-34,5.8
		c-31.9,0-50.1-18.4-50.1-47.8c0-23.8,14.8-50.1,47.4-50.1c30.3,0,41.9,23.6,41.9,46.8c0,5-0.6,9.4-1,11.5L1777.7,293.5
		L1777.7,293.5z M1812,273.5c0-7.1-3.1-19-16.5-19c-12.3,0-17.3,11.1-18.1,19H1812z"/>
	<path class="st1" d="M1856.6,268.1c0-13.8-0.4-22.9-0.8-30.9h25.2l1,17.3h0.8c4.8-13.6,16.3-19.4,25.3-19.4c2.7,0,4,0,6.1,0.4V263
		c-2.1-0.4-4.6-0.8-7.9-0.8c-10.8,0-18.1,5.8-20,14.8c-0.4,1.9-0.6,4.2-0.6,6.5v47.6h-29.2L1856.6,268.1L1856.6,268.1z"/>
	<path class="st1" d="M1929,194.8h29.2v136.3H1929V194.8z"/>
	<path class="st1" d="M2011.9,211.1c0,8.1-6.1,14.6-15.7,14.6c-9.2,0-15.4-6.5-15.2-14.6c-0.2-8.4,5.9-14.8,15.4-14.8
		C2005.8,196.3,2011.7,202.6,2011.9,211.1z M1981.8,331.1v-93.9h29.2v93.9H1981.8z"/>
	<path class="st1" d="M2034.4,267.1c0-11.7-0.4-21.7-0.8-29.9h25.3l1.3,12.9h0.6c3.8-5.9,13.4-15,29-15c19.2,0,33.6,12.7,33.6,40.3
		v55.7h-29.2v-52c0-12.1-4.2-20.4-14.8-20.4c-8.1,0-12.9,5.6-14.8,10.9c-0.8,1.7-1.1,4.6-1.1,7.3V331h-29.2L2034.4,267.1
		L2034.4,267.1z"/>
	<path class="st1" d="M722.3,392.5c3.3-0.6,7.9-1,14.4-1c6.6,0,11.3,1.3,14.4,3.8c3,2.4,5,6.3,5,10.9s-1.5,8.5-4.3,11.2
		c-3.6,3.4-9,5-15.3,5c-1.4,0-2.7-0.1-3.6-0.2v16.9h-10.6L722.3,392.5L722.3,392.5z M732.9,414c0.9,0.2,2,0.3,3.6,0.3
		c5.7,0,9.2-2.9,9.2-7.7c0-4.3-3-6.9-8.3-6.9c-2.2,0-3.6,0.2-4.4,0.4L732.9,414L732.9,414z"/>
	<path class="st1" d="M780.8,439.1l-0.6-3.4H780c-2.2,2.7-5.7,4.2-9.8,4.2c-6.9,0-11.1-5-11.1-10.5c0-8.9,8-13.2,20.1-13.1v-0.5
		c0-1.8-1-4.4-6.2-4.4c-3.5,0-7.2,1.2-9.5,2.6l-2-6.9c2.4-1.3,7.1-3,13.3-3c11.4,0,15,6.7,15,14.8v11.9c0,3.3,0.1,6.4,0.5,8.3H780.8
		z M779.6,422.9c-5.6-0.1-9.9,1.3-9.9,5.4c0,2.7,1.8,4.1,4.2,4.1c2.7,0,4.8-1.8,5.5-3.9c0.1-0.6,0.2-1.2,0.2-1.8V422.9L779.6,422.9z
		"/>
	<path class="st1" d="M798.3,416.1c0-5-0.1-8.3-0.3-11.3h9.2l0.3,6.3h0.3c1.8-5,6-7.1,9.2-7.1c1,0,1.5,0,2.2,0.1v10
		c-0.8-0.1-1.7-0.3-2.9-0.3c-3.9,0-6.6,2.1-7.3,5.4c-0.1,0.7-0.2,1.5-0.2,2.4V439h-10.6L798.3,416.1L798.3,416.1z"/>
	<path class="st1" d="M835.9,395.3c0,2.9-2.2,5.3-5.7,5.3c-3.4,0-5.6-2.4-5.5-5.3c-0.1-3.1,2.2-5.4,5.6-5.4
		C833.7,389.9,835.9,392.2,835.9,395.3z M825,439.1v-34.2h10.6v34.2H825z"/>
	<path class="st1" d="M856,395v9.8h7.6v7.8H856V425c0,4.1,1,6,4.2,6c1.3,0,2.4-0.1,3.2-0.3l0.1,8c-1.4,0.6-3.9,0.9-6.9,0.9
		c-3.4,0-6.3-1.2-8-2.9c-2-2-2.9-5.3-2.9-10.1v-14h-4.5v-7.8h4.5v-7.4L856,395z"/>
	<path class="st1" d="M889.3,439.1l-0.6-3.4h-0.2c-2.2,2.7-5.7,4.2-9.8,4.2c-6.9,0-11.1-5-11.1-10.5c0-8.9,8-13.2,20.1-13.1v-0.5
		c0-1.8-1-4.4-6.2-4.4c-3.5,0-7.2,1.2-9.5,2.6l-2-6.9c2.4-1.3,7.1-3,13.3-3c11.4,0,15,6.7,15,14.8v11.9c0,3.3,0.1,6.4,0.5,8.3H889.3
		z M871.7,395.2c0-2.9,2.2-5,5-5c2.7,0,4.8,2.1,4.8,5c0,2.7-2,4.9-4.8,4.9S871.7,397.8,871.7,395.2z M888,422.9
		c-5.6-0.1-9.9,1.3-9.9,5.4c0,2.7,1.8,4.1,4.2,4.1c2.7,0,4.8-1.8,5.5-3.9c0.1-0.6,0.2-1.2,0.2-1.8V422.9L888,422.9z M886.5,395.2
		c0-2.9,2.2-5,5-5c2.7,0,4.8,2.1,4.8,5c0,2.7-2,4.9-4.8,4.9C888.6,400.1,886.5,397.8,886.5,395.2z"/>
	<path class="st1" d="M918.1,395v9.8h7.6v7.8h-7.6V425c0,4.1,1,6,4.2,6c1.3,0,2.4-0.1,3.2-0.3l0.1,8c-1.4,0.6-3.9,0.9-6.9,0.9
		c-3.4,0-6.3-1.2-8-2.9c-2-2-2.9-5.3-2.9-10.1v-14h-4.5v-7.8h4.5v-7.4L918.1,395z"/>
	<path class="st1" d="M942.9,395.3c0,2.9-2.2,5.3-5.7,5.3c-3.4,0-5.6-2.4-5.5-5.3c-0.1-3.1,2.2-5.4,5.6-5.4S942.8,392.2,942.9,395.3
		z M931.9,439.1v-34.2h10.6v34.2H931.9z"/>
	<path class="st1" d="M951,429.8c2,1.2,6,2.6,9.2,2.6s4.5-1.1,4.5-2.9s-1-2.6-5-3.9c-7.1-2.4-9.8-6.2-9.7-10.3
		c0-6.4,5.5-11.2,13.9-11.2c4,0,7.6,0.9,9.7,2l-1.9,7.4c-1.5-0.8-4.5-2-7.4-2c-2.6,0-4.1,1-4.1,2.8c0,1.6,1.3,2.5,5.5,3.9
		c6.5,2.2,9.2,5.5,9.3,10.6c0,6.4-5,11.1-14.8,11.1c-4.5,0-8.5-1-11.1-2.4L951,429.8z"/>
	<path class="st1" d="M1007.2,438.2c-1.9,0.8-5.5,1.5-9.5,1.5c-11.1,0-18.1-6.7-18.1-17.5c0-10,6.9-18.2,19.6-18.2
		c2.8,0,5.9,0.5,8.1,1.3l-1.7,7.9c-1.3-0.6-3.2-1-6-1c-5.6,0-9.2,4-9.2,9.6c0,6.3,4.2,9.6,9.4,9.6c2.5,0,4.5-0.4,6.1-1L1007.2,438.2
		z"/>
	<path class="st1" d="M1013,389.4h10.6v19.5h0.1c1.1-1.5,2.5-2.6,4.2-3.5c1.5-0.8,3.6-1.3,5.5-1.3c6.8,0,12,4.7,12,15v20h-10.6
		v-18.8c0-4.5-1.5-7.6-5.5-7.6c-2.8,0-4.6,1.8-5.3,3.7c-0.3,0.7-0.3,1.6-0.3,2.4v20.3H1013V389.4z"/>
	<path class="st1" d="M1062.2,425.4c0.3,4.4,4.7,6.5,9.7,6.5c3.6,0,6.6-0.5,9.4-1.4l1.4,7.2c-3.5,1.4-7.8,2.1-12.4,2.1
		c-11.6,0-18.3-6.7-18.3-17.4c0-8.7,5.4-18.3,17.3-18.3c11.1,0,15.3,8.6,15.3,17.1c0,1.8-0.2,3.4-0.3,4.2L1062.2,425.4L1062.2,425.4
		z M1074.8,418.1c0-2.6-1.1-6.9-6-6.9c-4.5,0-6.3,4.1-6.6,6.9H1074.8z"/>
	<path class="st1" d="M1091,416.1c0-5-0.1-8.3-0.3-11.3h9.2l0.3,6.3h0.3c1.8-5,5.9-7.1,9.2-7.1c1,0,1.5,0,2.2,0.1v10
		c-0.8-0.1-1.7-0.3-2.9-0.3c-3.9,0-6.6,2.1-7.3,5.4c-0.1,0.7-0.2,1.5-0.2,2.4V439H1091V416.1z"/>
	<path class="st1" d="M1137.1,439.1l-11.2-47.2h11.4l3.6,19.5c1.1,5.6,2,11.7,2.8,16.5h0.1c0.8-5.1,1.9-10.8,3.1-16.6l4-19.3h11.3
		l3.8,19.9c1.1,5.5,1.8,10.6,2.5,15.8h0.1c0.7-5.2,1.8-10.8,2.7-16.4l3.8-19.3h10.8l-12.2,47.2h-11.6l-4-20.3
		c-0.9-4.8-1.7-9.2-2.2-14.6h-0.1c-0.8,5.3-1.6,9.8-2.7,14.6l-4.5,20.3h-11.5L1137.1,439.1L1137.1,439.1z"/>
	<path class="st1" d="M1196.6,425.4c0.3,4.4,4.7,6.5,9.7,6.5c3.6,0,6.6-0.5,9.4-1.4l1.4,7.2c-3.5,1.4-7.8,2.1-12.4,2.1
		c-11.6,0-18.3-6.7-18.3-17.4c0-8.7,5.4-18.3,17.3-18.3c11.1,0,15.3,8.6,15.3,17.1c0,1.8-0.2,3.4-0.3,4.2L1196.6,425.4L1196.6,425.4
		z M1209.1,418.1c0-2.6-1.1-6.9-6-6.9c-4.5,0-6.3,4.1-6.6,6.9H1209.1z"/>
	<path class="st1" d="M1258,404.9c-0.1,2.2-0.3,5-0.3,10.1v19.1c0,6.6-1.3,12-5.2,15.4c-3.8,3.2-8.9,4.2-13.9,4.2
		c-4.5,0-9.2-0.9-12.3-2.7l2.1-8c2.2,1.3,5.9,2.6,9.9,2.6c5,0,8.9-2.7,8.9-9v-2.2h-0.1c-2,2.9-5.3,4.5-9.2,4.5
		c-8.5,0-14.5-6.9-14.5-16.7c0-11,7.1-18,15.5-18c4.7,0,7.6,2,9.4,4.8h0.1l0.3-4.1L1258,404.9L1258,404.9z M1247.1,418.8
		c0-0.7-0.1-1.4-0.2-2c-0.8-2.8-2.8-4.7-5.7-4.7c-3.8,0-7,3.5-7,9.7c0,5.1,2.5,9.1,7,9.1c2.7,0,4.9-1.8,5.6-4.3
		c0.3-0.8,0.3-1.9,0.3-2.8L1247.1,418.8L1247.1,418.8z"/>
	<path class="st1" d="M1273.6,404.9l2.7,14c0.7,3.6,1.4,7.4,2,11.3h0.1c0.7-3.9,1.7-7.8,2.5-11.2l3.6-14.1h8.4l3.4,13.6
		c0.9,3.9,1.8,7.7,2.5,11.6h0.1c0.5-3.9,1.2-7.8,2-11.7l2.9-13.6h10.4l-10.5,34.2h-10l-3.2-12c-0.8-3.4-1.5-6.4-2.2-10.6h-0.1
		c-0.6,4.3-1.3,7.4-2.2,10.6l-3.4,12h-10l-9.9-34.2L1273.6,404.9L1273.6,404.9z"/>
	<path class="st1" d="M1326.6,425.4c0.3,4.4,4.7,6.5,9.7,6.5c3.6,0,6.6-0.5,9.4-1.4l1.4,7.2c-3.5,1.4-7.8,2.1-12.4,2.1
		c-11.6,0-18.3-6.7-18.3-17.4c0-8.7,5.4-18.3,17.3-18.3c11.1,0,15.3,8.6,15.3,17.1c0,1.8-0.2,3.4-0.3,4.2L1326.6,425.4L1326.6,425.4
		z M1339.1,418.1c0-2.6-1.1-6.9-6-6.9c-4.5,0-6.3,4.1-6.6,6.9H1339.1z"/>
	<path class="st1" d="M1366.3,395.3c0,2.9-2.2,5.3-5.7,5.3c-3.4,0-5.6-2.4-5.5-5.3c-0.1-3.1,2.2-5.4,5.6-5.4
		C1364.1,389.9,1366.2,392.2,1366.3,395.3z M1355.3,439.1v-34.2h10.6v34.2H1355.3z"/>
	<path class="st1" d="M1374.4,429.8c2,1.2,6,2.6,9.2,2.6s4.6-1.1,4.6-2.9s-1.1-2.6-5-3.9c-7.1-2.4-9.8-6.2-9.7-10.3
		c0-6.4,5.5-11.2,13.9-11.2c4,0,7.6,0.9,9.7,2l-1.9,7.4c-1.5-0.8-4.5-2-7.4-2c-2.6,0-4.1,1-4.1,2.8c0,1.6,1.3,2.5,5.5,3.9
		c6.5,2.2,9.2,5.5,9.3,10.6c0,6.4-5,11.1-14.8,11.1c-4.5,0-8.5-1-11.1-2.4L1374.4,429.8z"/>
	<path class="st1" d="M1413.1,425.4c0.3,4.4,4.7,6.5,9.7,6.5c3.6,0,6.6-0.5,9.4-1.4l1.4,7.2c-3.5,1.4-7.8,2.1-12.4,2.1
		c-11.6,0-18.3-6.7-18.3-17.4c0-8.7,5.4-18.3,17.3-18.3c11.1,0,15.3,8.6,15.3,17.1c0,1.8-0.2,3.4-0.3,4.2L1413.1,425.4L1413.1,425.4
		z M1425.6,418.1c0-2.6-1.1-6.9-6-6.9c-4.5,0-6.3,4.1-6.6,6.9H1425.6z"/>
	<path class="st1" d="M1441.8,416.1c0-5-0.1-8.3-0.3-11.3h9.2l0.3,6.3h0.3c1.8-5,5.9-7.1,9.2-7.1c1,0,1.5,0,2.2,0.1v10
		c-0.8-0.1-1.7-0.3-2.9-0.3c-3.9,0-6.6,2.1-7.3,5.4c-0.1,0.7-0.2,1.5-0.2,2.4V439h-10.6v-22.9H1441.8z"/>
	<path class="st1" d="M1483.8,439.1v-26.4h-4.5v-7.8h4.5v-1.3c0-4.1,1.3-8.7,4.3-11.5c2.7-2.5,6.4-3.4,9.4-3.4
		c2.4,0,4.2,0.3,5.7,0.7l-0.4,8.2c-0.9-0.3-2-0.5-3.4-0.5c-3.5,0-5,2.7-5,6.1v1.8h6.9v7.8h-6.8v26.4L1483.8,439.1L1483.8,439.1z"/>
	<path class="st1" d="M1538.7,428.1c0,4.5,0.1,8.1,0.3,11h-9.2l-0.5-4.8h-0.2c-1.3,2.1-4.6,5.6-10.7,5.6c-6.9,0-12-4.3-12-14.9
		v-20.1h10.7v18.4c0,5,1.6,8,5.3,8c2.9,0,4.6-2,5.3-3.7c0.3-0.6,0.3-1.5,0.3-2.3v-20.4h10.7L1538.7,428.1L1538.7,428.1z
		 M1510.5,395.2c0-2.9,2.2-5,5-5c2.7,0,4.8,2.1,4.8,5c0,2.7-2,4.9-4.8,4.9S1510.5,397.8,1510.5,395.2z M1525.3,395.2
		c0-2.9,2.2-5,5-5c2.7,0,4.8,2.1,4.8,5c0,2.7-2,4.9-4.8,4.9C1527.4,400.1,1525.3,397.8,1525.3,395.2z"/>
	<path class="st1" d="M1547.3,416.1c0-5-0.1-8.3-0.3-11.3h9.2l0.3,6.3h0.3c1.8-5,5.9-7.1,9.2-7.1c1,0,1.5,0,2.2,0.1v10
		c-0.8-0.1-1.7-0.3-2.9-0.3c-3.9,0-6.6,2.1-7.3,5.4c-0.1,0.7-0.2,1.5-0.2,2.4V439h-10.6v-22.9H1547.3z"/>
	<path class="st1" d="M1587.9,429.8c2,1.2,6,2.6,9.2,2.6s4.6-1.1,4.6-2.9s-1.1-2.6-5-3.9c-7.1-2.4-9.8-6.2-9.7-10.3
		c0-6.4,5.5-11.2,13.9-11.2c4,0,7.6,0.9,9.7,2l-1.9,7.4c-1.5-0.8-4.5-2-7.4-2c-2.6,0-4.1,1-4.1,2.8c0,1.6,1.3,2.5,5.5,3.9
		c6.5,2.2,9.2,5.5,9.3,10.6c0,6.4-5,11.1-14.8,11.1c-4.5,0-8.5-1-11.1-2.4L1587.9,429.8z"/>
	<path class="st1" d="M1652.2,421.6c0,12.5-8.9,18.3-18.1,18.3c-10,0-17.7-6.6-17.7-17.6c0-11.1,7.3-18.1,18.3-18.1
		C1645.2,404.1,1652.2,411.3,1652.2,421.6z M1627.4,421.9c0,5.9,2.4,10.3,7,10.3c4.1,0,6.8-4.1,6.8-10.3c0-5.1-2-10.3-6.8-10.3
		C1629.3,411.6,1627.4,416.9,1627.4,421.9z"/>
	<path class="st1" d="M1655.4,433l10.8-13.5c2-2.3,3.5-4,5.5-6.1v-0.1h-15.1v-8.4h28v6.4l-10.3,13c-1.9,2.2-3.6,4.4-5.6,6.3v0.1
		h16.4v8.5h-29.8L1655.4,433L1655.4,433z"/>
	<path class="st1" d="M1702,395.3c0,2.9-2.2,5.3-5.7,5.3c-3.4,0-5.6-2.4-5.5-5.3c-0.1-3.1,2.2-5.4,5.6-5.4
		C1699.7,389.9,1701.9,392.2,1702,395.3z M1691,439.1v-34.2h10.6v34.2H1691z"/>
	<path class="st1" d="M1729.6,439.1l-0.6-3.4h-0.2c-2.2,2.7-5.7,4.2-9.8,4.2c-6.9,0-11.1-5-11.1-10.5c0-8.9,8-13.2,20.1-13.1v-0.5
		c0-1.8-1-4.4-6.2-4.4c-3.5,0-7.2,1.2-9.4,2.6l-2-6.9c2.4-1.3,7.1-3,13.3-3c11.4,0,15.1,6.7,15.1,14.8v11.9c0,3.3,0.1,6.4,0.5,8.3
		H1729.6z M1728.4,422.9c-5.6-0.1-9.9,1.3-9.9,5.4c0,2.7,1.8,4.1,4.2,4.1c2.7,0,4.8-1.8,5.5-3.9c0.1-0.6,0.2-1.2,0.2-1.8
		L1728.4,422.9L1728.4,422.9z"/>
	<path class="st1" d="M1747.1,389.4h10.6v49.7h-10.6V389.4z"/>
	<path class="st1" d="M1774.6,425.4c0.3,4.4,4.7,6.5,9.7,6.5c3.6,0,6.6-0.5,9.4-1.4l1.4,7.2c-3.5,1.4-7.8,2.1-12.4,2.1
		c-11.6,0-18.3-6.7-18.3-17.4c0-8.7,5.4-18.3,17.3-18.3c11.1,0,15.3,8.6,15.3,17.1c0,1.8-0.2,3.4-0.3,4.2L1774.6,425.4L1774.6,425.4
		z M1787.1,418.1c0-2.6-1.1-6.9-6-6.9c-4.5,0-6.3,4.1-6.6,6.9H1787.1z"/>
	<path class="st1" d="M1828.8,427l-3.4,12.1h-11.1l14.4-47.2h14l14.6,47.2H1846l-3.6-12.1H1828.8z M1840.8,419l-2.9-10
		c-0.8-2.8-1.7-6.3-2.4-9.1h-0.1c-0.7,2.8-1.4,6.4-2.2,9.1l-2.8,10H1840.8z"/>
	<path class="st1" d="M1863,415.8c0-4.3-0.1-7.9-0.3-10.9h9.2l0.5,4.7h0.2c1.4-2.2,4.9-5.5,10.6-5.5c7,0,12.2,4.6,12.2,14.7v20.3
		h-10.6v-19c0-4.4-1.5-7.4-5.4-7.4c-2.9,0-4.7,2-5.4,4c-0.3,0.6-0.4,1.7-0.4,2.7v19.7H1863V415.8L1863,415.8z"/>
	<path class="st1" d="M1936.7,404.9c-0.1,2.2-0.3,5-0.3,10.1v19.1c0,6.6-1.3,12-5.2,15.4c-3.8,3.2-8.9,4.2-13.9,4.2
		c-4.5,0-9.2-0.9-12.3-2.7l2.1-8c2.2,1.3,5.9,2.6,9.9,2.6c5,0,8.9-2.7,8.9-9v-2.2h-0.1c-2,2.9-5.3,4.5-9.2,4.5
		c-8.5,0-14.5-6.9-14.5-16.7c0-11,7.1-18,15.5-18c4.7,0,7.6,2,9.4,4.8h0.1l0.3-4.1L1936.7,404.9L1936.7,404.9z M1925.8,418.8
		c0-0.7-0.1-1.4-0.2-2c-0.8-2.8-2.8-4.7-5.7-4.7c-3.8,0-7,3.5-7,9.7c0,5.1,2.5,9.1,7,9.1c2.7,0,4.9-1.8,5.6-4.3
		c0.3-0.8,0.3-1.9,0.3-2.8L1925.8,418.8L1925.8,418.8z"/>
	<path class="st1" d="M1953.1,425.4c0.3,4.4,4.7,6.5,9.7,6.5c3.6,0,6.6-0.5,9.4-1.4l1.4,7.2c-3.5,1.4-7.8,2.1-12.4,2.1
		c-11.6,0-18.3-6.7-18.3-17.4c0-8.7,5.4-18.3,17.3-18.3c11.1,0,15.3,8.6,15.3,17.1c0,1.8-0.2,3.4-0.3,4.2L1953.1,425.4L1953.1,425.4
		z M1965.7,418.1c0-2.6-1.1-6.9-6-6.9c-4.5,0-6.3,4.1-6.6,6.9H1965.7z"/>
	<path class="st1" d="M1981.6,439.1c0.1-2.2,0.3-6.4,0.3-10.2v-39.5h10.6v19.5h0.1c2-2.9,5.6-4.8,10.4-4.8c8.2,0,14.2,6.8,14.1,17.3
		c0,12.3-7.8,18.5-15.7,18.5c-4,0-7.8-1.5-10.3-5.5h-0.1l-0.4,4.8L1981.6,439.1L1981.6,439.1z M1992.5,424.5c0,0.7,0.1,1.3,0.2,1.9
		c0.7,2.9,3.2,5,6.2,5c4.6,0,7.3-3.5,7.3-9.7c0-5.3-2.4-9.5-7.3-9.5c-2.9,0-5.5,2.2-6.2,5.2c-0.1,0.6-0.2,1.3-0.2,2V424.5z"/>
	<path class="st1" d="M2057.8,421.6c0,12.5-8.9,18.3-18.1,18.3c-10,0-17.7-6.6-17.7-17.6c0-11.1,7.3-18.1,18.3-18.1
		C2050.8,404.1,2057.8,411.3,2057.8,421.6z M2033,421.9c0,5.9,2.4,10.3,7,10.3c4.1,0,6.8-4.1,6.8-10.3c0-5.1-2-10.3-6.8-10.3
		C2034.9,411.6,2033,416.9,2033,421.9z"/>
	<path class="st1" d="M2076.2,395v9.8h7.6v7.8h-7.6V425c0,4.1,1,6,4.2,6c1.3,0,2.4-0.1,3.1-0.3l0.1,8c-1.4,0.6-3.9,0.9-6.9,0.9
		c-3.4,0-6.3-1.2-8-2.9c-2-2-2.9-5.3-2.9-10.1v-14h-4.6v-7.8h4.6v-7.4L2076.2,395z"/>
	<path class="st1" d="M2097.9,425.4c0.4,4.4,4.7,6.5,9.7,6.5c3.6,0,6.6-0.5,9.4-1.4l1.4,7.2c-3.5,1.4-7.8,2.1-12.4,2.1
		c-11.6,0-18.3-6.7-18.3-17.4c0-8.7,5.4-18.3,17.3-18.3c11.1,0,15.3,8.6,15.3,17.1c0,1.8-0.2,3.4-0.4,4.2L2097.9,425.4L2097.9,425.4
		z M2110.4,418.1c0-2.6-1.1-6.9-6-6.9c-4.5,0-6.3,4.1-6.6,6.9H2110.4z"/>
</g>
<g id="Karte_1_">
	<path class="st1" d="M40.3,434c0.3,0.2,0.7,0.1,0.7-0.2c1.3-9.4,5.9-17.5,9.5-26c28.3-66.4,56.8-132.8,85.2-199.2
		c0.4-0.9,0.7-1.9,1.4-2.8c0.7-0.1,1.2,0.4,1.8,0.7c33.2,17.1,66.3,34.2,99.5,51.3c1.9,1,1.9,1,1.5,3.1
		c-8.4,39.6-16.8,79.2-25.2,118.8c-7.2,34.3-14.5,68.6-21.7,102.9c-0.5,2.2-0.4,2.2-2.8,2.2c-32.6,0-65.1,0.1-97.7,0
		c-13.4,0-25.5-4.1-35.8-12.9c-8.4-7.2-13.8-16.1-15.5-27.1c-0.1-0.5,0.2-1.4-0.9-1.2C40.3,440.4,40.3,437.1,40.3,434z"/>
	<path class="st1" d="M666.2,439.8C499,353.6,332.1,267.6,164.8,181.4c3.3-1.4,6.4-2.1,9.5-2.7c3.9-0.7,7.8-1,11.7-1
		c65.9,0,131.8,0,197.8,0c1.8,0,2.8,0.5,3.7,2.1c17.2,29.8,36.5,58.2,56.9,86c5.2,7,12.5,9.7,21,9.1c7.4-0.5,13.3-3.9,17.9-9.9
		c20.6-26.8,40.2-54.4,57.1-83.8c1-1.7,1-1.7,3-1.1c13.1,3.9,23.5,11.4,30.4,23.4c0.9,1.5,1.6,3.1,2.3,4.7
		c29.1,71.6,58.1,143.1,87.1,214.7c2,4.9,3.2,9.9,3.2,15.1C666.3,438.5,666.3,439,666.2,439.8z"/>
	<path class="st1" d="M272,275c71.1,36.6,142.2,73.3,213.6,110.1c-3,3.3-5.8,6.3-8.6,9.4c-27.4,29.6-54.9,59.3-82.3,88.9
		c-1,1-1.9,1.4-3.3,1.4c-53.9,0-107.8,0-161.8,0c-0.2,0-0.5,0-0.7,0c-1.4-0.1-1.5-0.1-1.3-1.5c0.6-3.1,1.3-6.2,2-9.4
		c5.6-26.3,11.1-52.7,16.7-79c6.6-31.4,13.3-62.8,20-94.2c1.6-7.8,3.3-15.6,4.9-23.4C271.4,276.5,271.4,275.8,272,275z"/>
	<path class="st1" d="M440.3,484.8c0.2-1.1,0.9-1.5,1.4-2c24.5-26.5,49.1-53.1,73.7-79.6c0.3-0.3,0.6-0.6,0.8-0.9
		c0.6-0.9,1.3-0.9,2.2-0.4c3.1,1.7,6.2,3.2,9.4,4.9c40.6,20.9,81.3,41.9,121.9,62.8c0.6,0.3,1.3,0.5,1.8,1.1c-0.3,0.8-1,1.2-1.7,1.7
		c-8.6,7-18.5,10.9-29.5,12c-2.9,0.3-5.8,0.3-8.6,0.3c-56.1,0-112.2,0-168.2,0C442.4,484.8,441.4,484.8,440.3,484.8z"/>
	<path class="st3" d="M525.2,109.3c0.2,10.6-2.1,20.4-5.1,30.2c-5,16.1-12,31.3-19.7,46.2c-8,15.5-16.9,30.5-26.3,45.1
		c-2.6,4.1-6.2,6.5-11.3,6.5c-3.7,0-6.8-1.6-9.2-4.4c-0.5-0.6-1-1.3-1.4-1.9c-13.5-22.5-26.3-45.3-37-69.3
		c-4.9-11.1-9.3-22.4-12.4-34.2c-3.7-14.1-3.5-28,1.2-41.8c6-16.7,17.8-27.3,34.5-32.7c8.9-2.9,18.1-3.8,27.4-3.6
		c7.2,0.2,14.4,0.8,21.4,2.6c9.6,2.5,18.2,6.9,24.8,14.5c5.4,6.2,8.7,13.6,10.6,21.5C524.5,95.1,525.2,102.3,525.2,109.3z
		 M463.2,139.9c17.7,0.3,34.1-14.1,34.1-33.8c0-20-16.5-34-33.9-34.1c-18.1-0.1-34.1,14.6-34.2,33.8
		C429,124.8,444.7,140.2,463.2,139.9z"/>
	<path class="st1" d="M463.2,139.9c-18.5,0.2-34.2-15.1-34-34.2c0.1-19.2,16.1-33.9,34.2-33.8c17.4,0.1,34,14.1,33.9,34.1
		C497.2,125.8,480.9,140.2,463.2,139.9z"/>
</g>
</svg>
