<svg xmlns="http://www.w3.org/2000/svg" width="283" height="94" viewBox="0 0 283 94">
  <g fill="#FFFFFF" fill-rule="evenodd">
    <path fill-rule="nonzero" d="M122.24016 44.2729514C121.148155 44.2729514 120.173764 44.1805523 119.31696 43.9957514 118.460156 43.8109505 117.569765 43.5001536 116.64576 43.0633514L116.64576 39.9637514C117.536164 40.4677539 118.439155 40.8331502 119.35476 41.0599514 120.270365 41.2867525 121.232155 41.4001514 122.24016 41.4001514 123.668167 41.4001514 124.38216 40.8877565 124.38216 39.8629514 124.38216 39.4261492 124.260361 39.1027524 124.01676 38.8927514 123.773159 38.6827503 123.390963 38.5105521 122.87016 38.3761514L120.80376 37.9225514C119.510154 37.63695 118.531563 37.1707546 117.86796 36.5239514 117.204357 35.8771481 116.87256 34.9489574 116.87256 33.7393514 116.87256 30.8161368 118.695342 29.3545514 122.34096 29.3545514 123.936968 29.3545514 125.541352 29.6569484 127.15416 30.2617514L127.15416 33.2353514C126.532557 32.9329499 125.818564 32.6893523 125.01216 32.5045514 124.205756 32.3197505 123.365764 32.2273514 122.49216 32.2273514 121.030553 32.2273514 120.29976 32.664147 120.29976 33.5377514 120.29976 33.9409534 120.421559 34.2349505 120.66516 34.4197514 120.908761 34.6045523 121.274158 34.7557508 121.76136 34.8733514L123.80256 35.3269514C125.163367 35.646153 126.171357 36.1249482 126.82656 36.7633514 127.481763 37.4017546 127.80936 38.3845447 127.80936 39.7117514 127.80936 41.2069589 127.305365 42.3409475 126.29736 43.1137514 125.289355 43.8865552 123.936968 44.2729514 122.24016 44.2729514zM133.68816 37.5697514C133.956961 40.1233641 135.368147 41.4001514 137.92176 41.4001514 138.576963 41.4001514 139.215357 41.3161522 139.83696 41.1481514 140.458563 40.9801505 141.155756 40.7113532 141.92856 40.3417514L142.83576 43.0129514C142.029356 43.4665536 141.206164 43.7899504 140.36616 43.9831514 139.526156 44.1763523 138.576965 44.2729514 137.51856 44.2729514 135.956152 44.2729514 134.620566 43.9579545 133.51176 43.3279514 132.402954 42.6979482 131.567163 41.820157 131.00436 40.6945514 130.441557 39.5689458 130.16016 38.2585589 130.16016 36.7633514 130.16016 35.2009436 130.454157 33.861157 131.04216 32.7439514 131.630163 31.6267458 132.428155 30.7825542 133.43616 30.2113514 134.444165 29.6401485 135.569754 29.3545514 136.81296 29.3545514 138.77857 29.3545514 140.319954 29.9383455 141.43716 31.1059514 142.554366 32.2735572 143.12136 33.9829401 143.13816 36.2341514L143.13816 37.5697514 133.68816 37.5697514zM136.81296 32.2273514C135.166552 32.2273514 134.166962 33.1345423 133.81416 34.9489514L139.58496 34.9489514C139.50096 34.0081467 139.232162 33.3193536 138.77856 32.8825514 138.324958 32.4457492 137.669764 32.2273514 136.81296 32.2273514zM153.55296 29.4553514C155.367369 29.4553514 156.715556 29.9173468 157.59756 30.8413514 158.479564 31.765356 158.92056 33.268941 158.92056 35.3521514L158.92056 43.8445514 155.54376 43.8445514 155.54376 35.3521514C155.54376 34.3609464 155.346362 33.6343537 154.95156 33.1723514 154.556758 32.7103491 153.872165 32.4793514 152.89776 32.4793514 151.755354 32.4793514 150.604566 32.9749464 149.44536 33.9661514L149.44536 43.8445514 146.06856 43.8445514 146.06856 29.7577514 149.44536 29.7577514 149.44536 31.0681514C150.722166 29.992946 152.091353 29.4553514 153.55296 29.4553514zM162.83376 23.5081514L166.21056 23.5081514 166.21056 27.3133514 162.83376 27.3133514 162.83376 23.5081514zM162.83376 29.7577514L166.21056 29.7577514 166.21056 43.8445514 162.83376 43.8445514 162.83376 29.7577514zM176.65056 44.2729514C175.088152 44.2729514 173.760965 43.9453547 172.66896 43.2901514 171.576955 42.6349481 170.757963 41.7403571 170.21196 40.6063514 169.665957 39.4723457 169.39296 38.1997584 169.39296 36.7885514 169.39296 35.3941444 169.665957 34.134157 170.21196 33.0085514 170.757963 31.8829458 171.576955 30.9925547 172.66896 30.3373514 173.760965 29.6821481 175.088152 29.3545514 176.65056 29.3545514 178.196168 29.3545514 179.510755 29.6821481 180.59436 30.3373514 181.677965 30.9925547 182.492757 31.8829458 183.03876 33.0085514 183.584763 34.134157 183.85776 35.3941444 183.85776 36.7885514 183.85776 38.1997584 183.584763 39.4723457 183.03876 40.6063514 182.492757 41.7403571 181.677965 42.6349481 180.59436 43.2901514 179.510755 43.9453547 178.196168 44.2729514 176.65056 44.2729514zM176.65056 41.3245514C177.843366 41.3245514 178.758957 40.9171555 179.39736 40.1023514 180.035763 39.2875473 180.35496 38.1829584 180.35496 36.7885514 180.35496 35.3941444 180.035763 34.2937554 179.39736 33.4873514 178.758957 32.6809473 177.843366 32.2777514 176.65056 32.2777514 175.440954 32.2777514 174.512763 32.6809473 173.86596 33.4873514 173.219157 34.2937554 172.89576 35.3941444 172.89576 36.7885514 172.89576 38.1829584 173.219157 39.2875473 173.86596 40.1023514 174.512763 40.9171555 175.440954 41.3245514 176.65056 41.3245514zM195.05376 29.4553514L195.05376 32.4793514 194.47416 32.4793514C193.096553 32.4793514 191.744167 33.0001462 190.41696 34.0417514L190.41696 43.8445514 187.04016 43.8445514 187.04016 29.7577514 190.41696 29.7577514 190.41696 31.1689514C191.710566 30.0265457 193.062953 29.4553514 194.47416 29.4553514L195.05376 29.4553514zM200.50416 37.5697514C200.772961 40.1233641 202.184147 41.4001514 204.73776 41.4001514 205.392963 41.4001514 206.031357 41.3161522 206.65296 41.1481514 207.274563 40.9801505 207.971756 40.7113532 208.74456 40.3417514L209.65176 43.0129514C208.845356 43.4665536 208.022164 43.7899504 207.18216 43.9831514 206.342156 44.1763523 205.392965 44.2729514 204.33456 44.2729514 202.772152 44.2729514 201.436566 43.9579545 200.32776 43.3279514 199.218954 42.6979482 198.383163 41.820157 197.82036 40.6945514 197.257557 39.5689458 196.97616 38.2585589 196.97616 36.7633514 196.97616 35.2009436 197.270157 33.861157 197.85816 32.7439514 198.446163 31.6267458 199.244155 30.7825542 200.25216 30.2113514 201.260165 29.6401485 202.385754 29.3545514 203.62896 29.3545514 205.59457 29.3545514 207.135954 29.9383455 208.25316 31.1059514 209.370366 32.2735572 209.93736 33.9829401 209.95416 36.2341514L209.95416 37.5697514 200.50416 37.5697514zM203.62896 32.2273514C201.982552 32.2273514 200.982962 33.1345423 200.63016 34.9489514L206.40096 34.9489514C206.31696 34.0081467 206.048162 33.3193536 205.59456 32.8825514 205.140958 32.4457492 204.485764 32.2273514 203.62896 32.2273514zM220.36896 29.4553514C222.183369 29.4553514 223.531556 29.9173468 224.41356 30.8413514 225.295564 31.765356 225.73656 33.268941 225.73656 35.3521514L225.73656 43.8445514 222.35976 43.8445514 222.35976 35.3521514C222.35976 34.3609464 222.162362 33.6343537 221.76756 33.1723514 221.372758 32.7103491 220.688165 32.4793514 219.71376 32.4793514 218.571354 32.4793514 217.420566 32.9749464 216.26136 33.9661514L216.26136 43.8445514 212.88456 43.8445514 212.88456 29.7577514 216.26136 29.7577514 216.26136 31.0681514C217.538166 29.992946 218.907353 29.4553514 220.36896 29.4553514zM237.13416 29.4553514C238.948569 29.4553514 240.296756 29.9173468 241.17876 30.8413514 242.060764 31.765356 242.50176 33.268941 242.50176 35.3521514L242.50176 43.8445514 239.12496 43.8445514 239.12496 35.3521514C239.12496 34.3609464 238.927562 33.6343537 238.53276 33.1723514 238.137958 32.7103491 237.453365 32.4793514 236.47896 32.4793514 235.336554 32.4793514 234.185766 32.9749464 233.02656 33.9661514L233.02656 43.8445514 229.64976 43.8445514 229.64976 29.7577514 233.02656 29.7577514 233.02656 31.0681514C234.303366 29.992946 235.672553 29.4553514 237.13416 29.4553514zM249.08616 37.5697514C249.354961 40.1233641 250.766147 41.4001514 253.31976 41.4001514 253.974963 41.4001514 254.613357 41.3161522 255.23496 41.1481514 255.856563 40.9801505 256.553756 40.7113532 257.32656 40.3417514L258.23376 43.0129514C257.427356 43.4665536 256.604164 43.7899504 255.76416 43.9831514 254.924156 44.1763523 253.974965 44.2729514 252.91656 44.2729514 251.354152 44.2729514 250.018566 43.9579545 248.90976 43.3279514 247.800954 42.6979482 246.965163 41.820157 246.40236 40.6945514 245.839557 39.5689458 245.55816 38.2585589 245.55816 36.7633514 245.55816 35.2009436 245.852157 33.861157 246.44016 32.7439514 247.028163 31.6267458 247.826155 30.7825542 248.83416 30.2113514 249.842165 29.6401485 250.967754 29.3545514 252.21096 29.3545514 254.17657 29.3545514 255.717954 29.9383455 256.83516 31.1059514 257.952366 32.2735572 258.51936 33.9829401 258.53616 36.2341514L258.53616 37.5697514 249.08616 37.5697514zM252.21096 32.2273514C250.564552 32.2273514 249.564962 33.1345423 249.21216 34.9489514L254.98296 34.9489514C254.89896 34.0081467 254.630162 33.3193536 254.17656 32.8825514 253.722958 32.4457492 253.067764 32.2273514 252.21096 32.2273514zM265.54896 33.1345514L265.54896 39.5101514C265.54896 40.1149544 265.649759 40.5349502 265.85136 40.7701514 266.052961 41.0053526 266.422557 41.1229514 266.96016 41.1229514 267.497763 41.1229514 268.010158 41.0557521 268.49736 40.9213514L268.49736 43.8697514C267.539755 44.0713524 266.750163 44.1721514 266.12856 44.1721514 264.734153 44.1721514 263.726163 43.8781543 263.10456 43.2901514 262.482957 42.7021484 262.17216 41.7949575 262.17216 40.5685514L262.17216 33.1345514 260.30736 33.1345514 260.30736 30.0853514 262.17216 30.0853514 262.17216 25.2973514 265.54896 25.2973514 265.54896 30.0853514 268.77456 30.0853514 268.77456 33.1345514 265.54896 33.1345514zM282.51576 40.8457514L282.51576 43.8445514 271.35216 43.8445514 271.35216 40.8457514 278.18136 32.7313514 271.80576 32.7313514 271.80576 29.7577514 281.96136 29.7577514 281.96136 32.7313514 275.15736 40.8457514 282.51576 40.8457514zM123.04656 61.1821514C124.928169 61.1821514 126.427554 61.8121451 127.54476 63.0721514 128.661966 64.3321577 129.22056 66.1633394 129.22056 68.5657514 129.22056 70.9681634 128.661966 72.7993451 127.54476 74.0593514 126.427554 75.3193577 124.928169 75.9493514 123.04656 75.9493514 121.685753 75.9493514 120.341767 75.386557 119.01456 74.2609514L119.01456 75.5209514 116.64576 75.5209514 116.64576 54.2017514 119.01456 54.2017514 119.01456 62.8957514C120.358567 61.7533457 121.702553 61.1821514 123.04656 61.1821514zM122.71896 73.7569514C124.046167 73.7569514 125.054157 73.3159558 125.74296 72.4339514 126.431763 71.551947 126.77616 70.2625599 126.77616 68.5657514 126.77616 66.8689429 126.431763 65.5837557 125.74296 64.7101514 125.054157 63.836547 124.046167 63.3997514 122.71896 63.3997514 121.458954 63.3997514 120.224166 63.9205462 119.01456 64.9621514L119.01456 72.1945514C120.257766 73.2361566 121.492554 73.7569514 122.71896 73.7569514zM134.54496 68.7421514C134.57856 70.2877591 134.964956 71.5225468 135.70416 72.4465514 136.443364 73.370556 137.619352 73.8325514 139.23216 73.8325514 140.458566 73.8325514 141.802553 73.4881548 143.26416 72.7993514L143.99496 74.7649514C142.466152 75.5545553 140.811369 75.9493514 139.03056 75.9493514 137.552153 75.9493514 136.292165 75.6385545 135.25056 75.0169514 134.208955 74.3953483 133.419363 73.5301569 132.88176 72.4213514 132.344157 71.3125458 132.07536 70.0189588 132.07536 68.5405514 132.07536 66.9781436 132.356757 65.6467569 132.91956 64.5463514 133.482363 63.4459459 134.242555 62.6101542 135.20016 62.0389514 136.157765 61.4677485 137.232954 61.1821514 138.42576 61.1821514 140.256969 61.1821514 141.693355 61.7533457 142.73496 62.8957514 143.776565 64.0381571 144.29736 65.6761407 144.29736 67.8097514L144.29736 68.7421514 134.54496 68.7421514zM138.42576 63.2989514C136.34255 63.2989514 135.099362 64.4497399 134.69616 66.7513514L141.80256 66.7513514C141.71856 65.5753455 141.399363 64.7059542 140.84496 64.1431514 140.290557 63.5803486 139.484165 63.2989514 138.42576 63.2989514zM154.83816 61.2829514L154.83816 63.5005514 154.25856 63.5005514C152.813753 63.5005514 151.410967 64.0801456 150.05016 65.2393514L150.05016 75.5209514 147.68136 75.5209514 147.68136 61.5853514 150.05016 61.5853514 150.05016 63.1477514C151.427767 61.9045452 152.830553 61.2829514 154.25856 61.2829514L154.83816 61.2829514zM161.42256 75.8485514C160.162554 75.8485514 159.255363 75.5965539 158.70096 75.0925514 158.146557 74.5885489 157.86936 73.7401573 157.86936 72.5473514L157.86936 54.2017514 160.23816 54.2017514 160.23816 71.9173514C160.23816 72.5893547 160.343159 73.0471502 160.55316 73.2907514 160.763161 73.5343526 161.162157 73.6561514 161.75016 73.6561514 162.220562 73.6561514 162.640558 73.6057519 163.01016 73.5049514L163.01016 75.6721514 162.532934 75.7493266C162.082484 75.8154767 161.712361 75.8485514 161.42256 75.8485514zM165.91536 55.1593514L168.28416 55.1593514 168.28416 58.9645514 165.91536 58.9645514 165.91536 55.1593514zM165.91536 61.5853514L168.28416 61.5853514 168.28416 75.5209514 165.91536 75.5209514 165.91536 61.5853514zM179.45496 61.2829514C181.168569 61.2829514 182.441156 61.7365468 183.27276 62.6437514 184.104364 63.5509559 184.52016 65.046141 184.52016 67.1293514L184.52016 75.5209514 182.15136 75.5209514 182.15136 67.1293514C182.15136 65.8189448 181.928762 64.8865542 181.48356 64.3321514 181.038358 63.7777486 180.252966 63.5005514 179.12736 63.5005514 177.816953 63.5005514 176.506567 64.0717457 175.19616 65.2141514L175.19616 75.5209514 172.82736 75.5209514 172.82736 61.5853514 175.19616 61.5853514 175.19616 63.0721514C176.573767 61.8793454 177.993353 61.2829514 179.45496 61.2829514z"/>
    <path d="M55.632312,19.564632 C46.670472,11.922552 35.914392,7.191432 24.501672,5.713272 C20.512872,7.887672 16.879752,10.629432 13.704552,13.828392 C41.570712,12.216312 65.810952,33.224472 68.029992,61.172712 C68.858712,71.602632 66.456072,81.955512 61.334712,90.888552 C65.675592,89.460072 69.732792,87.413112 73.405512,84.847752 C76.079592,77.107032 77.186232,68.824152 76.525272,60.498792 C75.255912,44.509752 67.835592,29.972232 55.632312,19.564632"/>
    <path d="M51.546456,36.959976 C35.555976,36.959976 20.515896,29.452536 10.829016,16.997976 C8.947656,19.276776 7.280856,21.737736 5.854536,24.349896 C17.157816,37.577736 33.846696,45.481176 51.546456,45.481176 C66.024936,45.481176 79.838136,40.287096 90.651816,30.996936 C89.645976,28.175256 88.374456,25.481016 86.869656,22.940136 C77.354136,31.908456 64.772856,36.959976 51.546456,36.959976"/>
    <path d="M67.042944,15.795576 C67.042944,44.206776 43.928784,67.320936 15.517584,67.320936 C11.784384,67.320936 8.069184,66.890376 4.441104,66.094056 C6.008544,69.499656 7.974144,72.682056 10.280304,75.585096 C12.020544,75.737736 13.766544,75.842136 15.517584,75.842136 C48.627504,75.842136 75.564144,48.905496 75.564144,15.795576 C75.564144,13.780296 75.434544,11.774376 75.235824,9.779256 C72.306864,7.513416 69.102144,5.591736 65.677824,4.068216 C66.567744,7.892856 67.042944,11.827656 67.042944,15.795576"/>
    <path d="M93.107088,41.84244 C84.454848,59.03532 66.796128,70.155 47.094048,70.155 C26.921808,70.155 8.964288,58.4622 0.561888,40.78548 C0.321408,42.70428 0.183168,44.65548 0.183168,46.64052 C0.183168,50.47956 0.656928,54.20628 1.532448,57.7746 C12.667968,70.72092 29.130768,78.6762 47.094048,78.6762 C64.532448,78.6762 80.593488,71.19612 91.731888,58.8222 C92.781648,54.93852 93.351888,50.85684 93.351888,46.64052 C93.351888,45.02052 93.268368,43.41996 93.107088,41.84244"/>
    <path d="M49.107672,0.11484 C48.332232,0.07668 47.552472,0.0558 46.767672,0.0558 C41.483592,0.0558 36.411192,0.94788 31.676472,2.56932 C20.513592,13.58316 13.765032,28.83996 13.765032,45.3474 C13.765032,63.86796 22.146552,80.77788 35.863272,91.92852 C39.362472,92.76804 43.010712,93.22452 46.767672,93.22452 C49.068072,93.22452 51.328152,93.051 53.539272,92.72916 C34.666632,84.68676 22.286232,66.20652 22.286232,45.3474 C22.286232,26.18748 32.869512,8.98524 49.107672,0.11484"/>
    <path d="M13.167792,39.431448 C36.760752,39.431448 57.740112,25.843608 67.524912,4.936968 C64.990512,3.672648 62.325072,2.636568 59.553792,1.847448 C51.052032,19.481688 33.211152,30.910248 13.167792,30.910248 C9.827712,30.910248 6.517872,30.586248 3.272832,29.955528 C2.261232,32.590008 1.485072,35.338968 0.963792,38.178648 C4.961952,39.004488 9.046512,39.431448 13.167792,39.431448"/>
  </g>
</svg>
