<?xml version="1.0" encoding="utf-8"?>
<!-- Generator: Adobe Illustrator 25.3.1, SVG Export Plug-In . SVG Version: 6.00 Build 0)  -->
<svg version="1.1" id="Ebene_1" xmlns="http://www.w3.org/2000/svg" xmlns:xlink="http://www.w3.org/1999/xlink" x="0px" y="0px"
	 viewBox="0 0 2220.8 317.3" style="enable-background:new 0 0 2220.8 317.3;" xml:space="preserve">
<style type="text/css">
	.st0{display:none;fill:#005DA8;}
	.st1{fill:#FFFFFF;}
	.st2{display:none;fill:#FFFFFF;}
	.st3{fill:#DB0029;}
</style>
<rect id="Blau_2_" x="-0.2" y="-0.1" class="st0" width="2222" height="317"/>
<g id="Schrift_3_">
	<g>
		<path class="st1" d="M490.2,200.5c4.9,3,15.2,6.5,23.1,6.5c8.1,0,11.5-2.8,11.5-7.2s-2.6-6.5-12.7-9.9
			c-17.8-6-24.7-15.7-24.5-25.9c0-16,13.8-28.2,35.1-28.2c10,0,19,2.3,24.3,4.9l-4.8,18.5c-3.9-2.1-11.3-4.9-18.7-4.9
			c-6.5,0-10.2,2.6-10.2,7.1c0,4.1,3.3,6.2,13.9,9.9c16.4,5.6,23.3,13.9,23.5,26.6c0,16-12.7,27.9-37.4,27.9
			c-11.3,0-21.3-2.5-27.9-6L490.2,200.5z"/>
		<path class="st1" d="M652,179.9c0,31.6-22.4,46-45.5,46c-25.2,0-44.6-16.6-44.6-44.4c0-27.9,18.3-45.7,46-45.7
			C634.4,135.8,652,154,652,179.9z M589.6,180.8c0,14.8,6.2,25.9,17.6,25.9c10.4,0,17.1-10.4,17.1-25.9c0-12.9-4.9-25.9-17.1-25.9
			C594.4,154.9,589.6,168.1,589.6,180.8z"/>
		<path class="st1" d="M733.8,221.9c-4.8,2.1-13.8,3.9-24,3.9c-27.8,0-45.7-16.9-45.7-44.1c0-25.2,17.3-45.8,49.4-45.8
			c7,0,14.8,1.2,20.5,3.4l-4.2,19.9c-3.2-1.4-7.9-2.6-15-2.6c-14.1,0-23.3,10.1-23.1,24.1c0,15.9,10.6,24.1,23.6,24.1
			c6.3,0,11.3-1.1,15.3-2.6L733.8,221.9z"/>
		<path class="st1" d="M776.3,113.8c0,7.4-5.6,13.4-14.5,13.4c-8.5,0-14.1-6-13.9-13.4c-0.2-7.8,5.5-13.6,14.1-13.6
			C770.7,100.2,776.1,106,776.3,113.8z M748.6,224v-86.2h26.8V224H748.6L748.6,224z"/>
		<path class="st1" d="M846,224l-1.6-8.6h-0.5c-5.6,6.9-14.5,10.6-24.7,10.6c-17.5,0-27.8-12.7-27.8-26.4c0-22.4,20.1-33.1,50.6-33
			v-1.2c0-4.6-2.5-11.1-15.7-11.1c-8.8,0-18.2,3-23.8,6.5l-4.9-17.3c6-3.4,17.8-7.6,33.5-7.6c28.7,0,37.9,16.9,37.9,37.2v30
			c0,8.3,0.3,16.2,1.2,21L846,224L846,224z M842.8,183.3c-14.1-0.2-25,3.2-25,13.6c0,6.9,4.6,10.2,10.6,10.2
			c6.7,0,12.2-4.4,13.9-9.9c0.3-1.4,0.5-3,0.5-4.6V183.3L842.8,183.3L842.8,183.3z"/>
		<path class="st1" d="M890,98.8h26.8V224H890V98.8z"/>
		<path class="st1" d="M938.5,165.3c0-10.8-0.3-19.9-0.7-27.5h22.6l1.2,11.6h0.5c3.7-5.5,11.3-13.6,26.1-13.6
			c11.1,0,19.9,5.6,23.6,14.6h0.3c3.2-4.4,7-7.9,11.1-10.4c4.8-2.8,10-4.2,16.4-4.2c16.6,0,29.1,11.6,29.1,37.4V224h-26.1v-46.9
			c0-12.5-4.1-19.8-12.7-19.8c-6.2,0-10.6,4.2-12.3,9.3c-0.7,1.9-1.1,4.8-1.1,6.9V224h-26.1v-48.3c0-10.9-3.9-18.3-12.3-18.3
			c-6.9,0-10.9,5.3-12.5,9.7c-0.9,2.1-1.1,4.6-1.1,6.7V224h-26.1L938.5,165.3L938.5,165.3z"/>
		<path class="st1" d="M1139.1,224l-1.6-8.6h-0.5c-5.6,6.9-14.5,10.6-24.7,10.6c-17.4,0-27.8-12.7-27.8-26.4
			c0-22.4,20.1-33.1,50.6-33v-1.2c0-4.6-2.5-11.1-15.7-11.1c-8.8,0-18.2,3-23.8,6.5l-4.9-17.3c6-3.4,17.8-7.6,33.5-7.6
			c28.7,0,37.9,16.9,37.9,37.2v30c0,8.3,0.3,16.2,1.2,21L1139.1,224L1139.1,224z M1135.9,183.3c-14.1-0.2-25,3.2-25,13.6
			c0,6.9,4.6,10.2,10.6,10.2c6.7,0,12.2-4.4,13.9-9.9c0.3-1.4,0.5-3,0.5-4.6V183.3L1135.9,183.3L1135.9,183.3z"/>
		<path class="st1" d="M1183.2,166.7c0-11.3-0.3-21-0.7-28.9h23.3l1.2,12h0.3c6.3-9.2,16.2-13.9,28.7-13.9
			c18.9,0,35.8,16.4,35.8,43.9c0,31.4-19.9,46.2-39.1,46.2c-10.4,0-18.5-4.2-22.4-9.9h-0.3v42.8h-26.8V166.7z M1210,187
			c0,2.1,0.2,4.1,0.5,5.6c1.8,7.2,7.9,12.7,15.7,12.7c11.6,0,18.5-9.7,18.5-24.3c0-13.8-6.2-24.1-18.2-24.1c-7.6,0-14.3,5.6-16,13.6
			c-0.3,1.4-0.5,3.2-0.5,4.8V187L1210,187z"/>
		<path class="st2" d="M1280.7,209.7c0-9.5,6.5-16.4,15.9-16.4c9.3,0,15.7,6.7,15.7,16.4c0,9.3-6.3,16.2-15.9,16.2
			C1287.2,225.9,1280.7,219.1,1280.7,209.7z"/>
		<path class="st1" d="M1327.8,224c0.3-5.6,0.7-16,0.7-25.7V98.8h26.8V148h0.3c5.1-7.4,14.1-12.2,26.1-12.2
			c20.6,0,35.8,17.1,35.6,43.6c0,31-19.7,46.5-39.5,46.5c-10.1,0-19.7-3.7-25.9-13.9h-0.3l-1.1,12H1327.8L1327.8,224L1327.8,224z
			 M1355.3,187.3c0,1.8,0.2,3.4,0.5,4.8c1.8,7.2,7.9,12.7,15.7,12.7c11.5,0,18.5-8.8,18.5-24.3c0-13.4-6-24-18.5-24
			c-7.2,0-13.9,5.5-15.7,13.2c-0.3,1.6-0.5,3.2-0.5,4.9V187.3z"/>
		<path class="st1" d="M1455,189.4c0.9,11.1,11.8,16.4,24.3,16.4c9.2,0,16.6-1.2,23.8-3.5l3.5,18.2c-8.8,3.5-19.6,5.3-31.2,5.3
			c-29.3,0-46-16.9-46-43.9c0-21.9,13.6-46,43.6-46c27.8,0,38.4,21.7,38.4,43c0,4.6-0.5,8.6-0.9,10.6L1455,189.4L1455,189.4z
			 M1486.6,171.1c0-6.5-2.8-17.4-15.2-17.4c-11.3,0-15.9,10.2-16.6,17.4H1486.6z"/>
		<path class="st1" d="M1527.5,166.2c0-12.7-0.3-21-0.7-28.4h23.1l0.9,15.9h0.7c4.4-12.5,15-17.8,23.3-17.8c2.5,0,3.7,0,5.6,0.4
			v25.2c-1.9-0.4-4.2-0.7-7.2-0.7c-9.9,0-16.6,5.3-18.3,13.6c-0.3,1.8-0.5,3.9-0.5,6V224h-26.8L1527.5,166.2L1527.5,166.2
			L1527.5,166.2z"/>
		<path class="st1" d="M1594,98.8h26.8V224H1594V98.8z"/>
		<path class="st1" d="M1670.1,113.8c0,7.4-5.6,13.4-14.5,13.4c-8.5,0-14.1-6-13.9-13.4c-0.2-7.8,5.5-13.6,14.1-13.6
			C1664.5,100.2,1669.9,106,1670.1,113.8z M1642.4,224v-86.2h26.8V224H1642.4L1642.4,224z"/>
		<path class="st1" d="M1690.7,165.3c0-10.8-0.3-19.9-0.7-27.5h23.3l1.2,11.8h0.5c3.5-5.5,12.3-13.8,26.6-13.8
			c17.6,0,30.8,11.6,30.8,37V224h-26.8v-47.8c0-11.1-3.9-18.7-13.6-18.7c-7.4,0-11.8,5.1-13.6,10.1c-0.7,1.6-1.1,4.2-1.1,6.7V224
			h-26.8v-58.7H1690.7z"/>
	</g>
</g>
<g id="Karte_3_">
	<path class="st1" d="M31.3,256.3c0.2,0.1,0.4,0.1,0.4-0.1c0.8-5.8,3.7-10.9,5.9-16.2c17.6-41.2,35.3-82.5,52.9-123.7
		c0.2-0.6,0.4-1.2,0.8-1.7c0.4,0,0.8,0.2,1.1,0.4c20.6,10.6,41.2,21.2,61.8,31.8c1.2,0.6,1.2,0.6,0.9,1.9
		c-5.2,24.6-10.4,49.2-15.6,73.8c-4.5,21.3-9,42.6-13.5,63.9c-0.3,1.4-0.3,1.4-1.7,1.4c-20.2,0-40.4,0-60.7,0
		c-8.3,0-15.8-2.6-22.2-8c-5.2-4.4-8.5-10-9.6-16.8c0-0.3,0.1-0.9-0.6-0.7C31.3,260.3,31.3,258.3,31.3,256.3z"/>
	<path class="st1" d="M420,259.9C316.1,206.4,212.5,153,108.6,99.5c2.1-0.9,4-1.3,5.9-1.7c2.4-0.4,4.8-0.6,7.3-0.6
		c40.9,0,81.9,0,122.8,0c1.1,0,1.7,0.3,2.3,1.3c10.7,18.5,22.7,36.2,35.3,53.4c3.2,4.4,7.8,6,13.1,5.6c4.6-0.3,8.2-2.4,11.1-6.1
		c12.8-16.7,24.9-33.8,35.5-52c0.6-1.1,0.6-1.1,1.8-0.7c8.1,2.4,14.6,7.1,18.9,14.5c0.5,0.9,1,1.9,1.4,2.9
		c18,44.4,36.1,88.9,54.1,133.3c1.2,3,2,6.1,2,9.4C420.1,259.1,420,259.4,420,259.9z"/>
	<path class="st1" d="M175.2,157.6c44.2,22.8,88.3,45.5,132.6,68.3c-1.9,2-3.6,3.9-5.4,5.8c-17,18.4-34.1,36.8-51.1,55.2
		c-0.6,0.6-1.2,0.9-2.1,0.9c-33.5,0-67,0-100.4,0c-0.1,0-0.3,0-0.4,0c-0.9,0-1-0.1-0.8-1c0.4-1.9,0.8-3.9,1.2-5.8
		c3.5-16.4,6.9-32.7,10.4-49.1c4.1-19.5,8.3-39,12.4-58.5c1-4.9,2-9.7,3.1-14.6C174.8,158.5,174.8,158.1,175.2,157.6z"/>
	<path class="st1" d="M279.7,287.9c0.1-0.7,0.5-0.9,0.8-1.2c15.2-16.5,30.5-33,45.7-49.4c0.2-0.2,0.4-0.3,0.5-0.6
		c0.4-0.6,0.8-0.5,1.4-0.2c1.9,1,3.9,2,5.8,3c25.2,13,50.5,26,75.7,39c0.4,0.2,0.8,0.3,1.1,0.7c-0.2,0.5-0.6,0.7-1,1
		c-5.4,4.4-11.5,6.8-18.3,7.5c-1.8,0.2-3.6,0.2-5.4,0.2c-34.8,0-69.7,0-104.5,0C281,287.9,280.4,287.9,279.7,287.9z"/>
	<path class="st3" d="M332.5,54.7c0.1,6.6-1.3,12.7-3.2,18.7c-3.1,10-7.4,19.4-12.2,28.7c-5,9.6-10.5,18.9-16.3,28
		c-1.6,2.6-3.9,4.1-7,4c-2.3,0-4.2-1-5.7-2.7c-0.3-0.4-0.6-0.8-0.9-1.2c-8.4-13.9-16.3-28.2-22.9-43c-3.1-6.9-5.8-13.9-7.7-21.2
		c-2.3-8.7-2.2-17.4,0.8-25.9c3.6-10.4,11-17,21.3-20.4c5.5-1.8,11.2-2.4,17-2.2c4.5,0.1,8.9,0.5,13.3,1.6c6,1.5,11.3,4.3,15.4,9
		c3.4,3.9,5.4,8.4,6.6,13.3C332,45.9,332.5,50.4,332.5,54.7z M293.9,73.7c11,0.2,21.1-8.8,21.2-21c0-12.4-10.3-21.1-21.1-21.2
		c-11.2,0-21.2,9.1-21.3,21C272.7,64.3,282.5,73.9,293.9,73.7z"/>
	<path class="st1" d="M293.9,73.7c-11.5,0.2-21.2-9.4-21.1-21.2c0.1-11.9,10-21,21.3-21c10.8,0,21.1,8.8,21.1,21.2
		C315.1,64.9,304.9,73.9,293.9,73.7z"/>
</g>
</svg>
